<svg xmlns="http://www.w3.org/2000/svg" xmlns:xlink="http://www.w3.org/1999/xlink" width="500" zoomAndPan="magnify" viewBox="0 0 375 374.999991" height="500" preserveAspectRatio="xMidYMid meet" version="1.0"><defs><clipPath id="a380caf5dd"><path d="M 115 10 L 336 10 L 336 300 L 115 300 Z M 115 10 " clip-rule="nonzero"/></clipPath><clipPath id="d7075d6aaf"><path d="M 119.296875 0.863281 L 344.941406 12.820312 L 329.640625 301.53125 L 104 289.574219 Z M 119.296875 0.863281 " clip-rule="nonzero"/></clipPath><clipPath id="405d321d34"><path d="M 115.632812 70.691406 C 116.246094 64.132812 116.773438 62.539062 117.386719 61.042969 C 118.085938 59.550781 119.058594 57.882812 119.828125 56.777344 C 120.488281 56.050781 121.484375 55.625 121.609375 54.964844 C 121.726562 54.398438 120.859375 54.0625 120.992188 53.210938 C 121.425781 50.082031 130.308594 38.042969 136.230469 33.390625 C 141.601562 29.09375 147.878906 27.800781 154.488281 25.191406 C 162.097656 22.15625 174.472656 17.941406 179.410156 16.769531 C 181.476562 16.308594 182.25 16.730469 183.785156 16.238281 C 185.765625 15.675781 187.261719 14.226562 190.058594 13.324219 C 194.835938 11.859375 203.589844 10.605469 210.53125 10.207031 C 217.644531 9.820312 224.949219 10.875 232.023438 11.25 C 238.742188 11.605469 245.261719 12.429688 252.007812 12.308594 C 258.75 12.285156 265.636719 11.121094 272.394531 10.8125 C 278.882812 10.488281 285.28125 10.253906 291.839844 10.316406 C 298.660156 10.484375 309.4375 11.246094 312.445312 11.40625 C 313.242188 11.449219 313.417969 11.457031 314.035156 11.492188 C 314.648438 11.617188 315.53125 11.761719 316.230469 11.894531 C 317.023438 12.03125 318.515625 12.300781 318.515625 12.300781 C 318.511719 12.394531 319.894531 13.042969 320.585938 13.367188 C 321.28125 13.6875 322.664062 14.335938 322.664062 14.335938 C 322.753906 14.339844 323.941406 15.359375 324.535156 15.867188 C 325.132812 16.28125 326.320312 17.296875 326.320312 17.296875 C 326.320312 17.296875 327.316406 18.59375 327.722656 19.28125 C 328.222656 19.882812 329.128906 21.171875 329.128906 21.171875 C 329.21875 21.175781 329.21875 21.175781 329.21875 21.175781 C 329.21875 21.175781 329.851562 22.640625 330.164062 23.421875 C 330.476562 24.203125 331.019531 25.664062 331.109375 25.667969 C 331.109375 25.667969 331.375 27.308594 331.511719 28.078125 C 331.648438 28.851562 331.917969 30.488281 331.917969 30.488281 C 331.914062 30.582031 331.828125 32.203125 331.785156 32.964844 C 331.742188 33.820312 331.65625 35.4375 331.65625 35.4375 C 331.65625 35.4375 331.214844 37.039062 331 37.792969 C 330.777344 38.640625 330.34375 40.144531 330.34375 40.144531 C 330.25 40.234375 329.554688 41.632812 329.164062 42.277344 C 328.769531 43.023438 327.988281 44.414062 327.988281 44.414062 C 327.894531 44.503906 326.859375 45.59375 326.292969 46.234375 C 325.824219 46.78125 324.695312 47.960938 324.695312 47.960938 C 324.695312 47.960938 323.40625 48.847656 322.761719 49.292969 C 322.117188 49.734375 320.835938 50.527344 320.742188 50.617188 C 320.742188 50.617188 319.296875 51.113281 318.574219 51.363281 C 317.851562 51.609375 316.40625 52.109375 316.40625 52.109375 C 316.40625 52.109375 315.265625 51.855469 315.160156 52.230469 C 314.652344 53.445312 322.585938 62.652344 325.644531 68.546875 C 328.855469 74.921875 332.117188 81.972656 333.765625 89.316406 C 335.496094 96.855469 335.21875 105.4375 335.324219 113.464844 C 335.523438 121.402344 335.152344 128.449219 334.953125 137.222656 C 334.648438 148 333.921875 161.710938 333.660156 173.347656 C 333.4375 184.222656 333.59375 194.640625 333.320312 204.847656 C 333.164062 214.484375 333.605469 224.535156 332.535156 233.070312 C 331.527344 240.371094 329.71875 246.003906 327.828125 253.257812 C 325.695312 261.742188 323.683594 272.902344 320.242188 280.933594 C 317.308594 287.75 314.714844 296.589844 309.363281 298.789062 C 303.289062 301.332031 290.214844 297.007812 284.289062 291.730469 C 278.621094 286.558594 277.609375 275.523438 274.199219 267.894531 C 270.949219 260.652344 267.5 253.785156 264.226562 246.929688 C 261.03125 240.265625 258.074219 234.1875 254.894531 227.238281 C 251.398438 219.605469 248.054688 210.738281 244.203125 203.082031 C 240.6875 195.832031 237.242188 188.867188 232.960938 182.625 C 228.769531 176.386719 223.265625 171.511719 218.699219 165.632812 C 214.136719 159.664062 210.167969 152.578125 205.507812 146.789062 C 201.1875 141.308594 197.324219 135.566406 191.863281 131.550781 C 186.226562 127.433594 178.757812 126.175781 172.191406 122.871094 C 165.285156 119.351562 157.390625 116.070312 151.445312 111.074219 C 145.671875 106.28125 139.125 97.625 136.753906 93.773438 C 135.773438 92.195312 135.867188 90.480469 135.09375 89.960938 C 134.585938 89.554688 133.9375 90.089844 133.226562 90.054688 C 131.992188 89.988281 130.148438 89.605469 128.664062 89.144531 C 127.277344 88.59375 125.800781 87.941406 124.523438 87.015625 C 123.234375 86.183594 122.046875 85.164062 120.960938 83.960938 C 119.957031 82.761719 118.960938 81.46875 118.238281 80.09375 C 117.429688 78.617188 116.800781 77.054688 116.351562 75.503906 C 115.992188 73.957031 115.632812 70.691406 115.632812 70.691406 M 171.570312 70.980469 C 175.179688 73.175781 176.972656 66.109375 176.292969 65.597656 C 175.871094 65.191406 173.75 66.703125 172.988281 67.714844 C 172.230469 68.628906 171.570312 70.980469 171.570312 70.980469 " clip-rule="nonzero"/></clipPath><clipPath id="eea117326a"><path d="M 13 0 L 215.597656 0 L 215.597656 270 L 13 270 Z M 13 0 " clip-rule="nonzero"/></clipPath><clipPath id="10d2835b8d"><path d="M 13.097656 133.1875 C 21.183594 103.253906 29.363281 97.574219 34.945312 91.511719 C 39.949219 85.929688 45.242188 81.117188 49.382812 75.246094 C 53.617188 69.375 55.925781 63.117188 60.257812 56.09375 C 65.746094 47.238281 73.539062 35.59375 79.988281 26.546875 C 85.667969 18.460938 92.210938 11.339844 96.640625 4.023438 C 100.488281 -2.328125 102.125 -8.488281 105.6875 -14.746094 C 109.535156 -21.675781 113 -30.914062 119.355469 -35.824219 C 125.898438 -40.921875 137.640625 -46.121094 144.761719 -44.484375 C 151.402344 -42.945312 158.71875 -35.050781 161.222656 -28.507812 C 163.820312 -21.578125 160.738281 -11.664062 159.105469 -3.675781 C 157.5625 4.3125 153.328125 11.628906 151.597656 19.421875 C 149.960938 27.121094 149.191406 35.109375 148.710938 42.8125 C 148.226562 50.316406 148.324219 57.535156 148.613281 65.042969 C 148.902344 72.550781 150.054688 80.15625 150.539062 87.660156 C 150.921875 94.785156 150.730469 101.808594 151.210938 108.835938 C 151.597656 115.765625 151.597656 122.597656 153.136719 129.527344 C 154.675781 136.941406 159.105469 144.160156 160.835938 151.859375 C 162.472656 159.75 161.414062 168.796875 163.144531 176.59375 C 164.78125 183.910156 168.246094 190.453125 170.363281 197.382812 C 172.480469 204.214844 174.597656 213.261719 175.945312 217.882812 C 176.621094 220.289062 176.332031 222.023438 177.582031 223.273438 C 178.835938 224.523438 181.046875 224.523438 183.550781 225.199219 C 187.59375 226.351562 195.582031 227.796875 199.238281 228.953125 C 201.257812 229.527344 202.511719 229.914062 203.953125 230.683594 C 205.398438 231.453125 206.84375 232.417969 208.09375 233.476562 C 209.34375 234.628906 210.5 235.882812 211.367188 237.230469 C 212.328125 238.578125 213.195312 240.117188 213.773438 241.65625 C 214.347656 243.195312 214.734375 244.832031 215.023438 246.46875 C 215.214844 248.105469 215.214844 249.835938 215.023438 251.472656 C 214.832031 253.109375 214.445312 254.746094 213.867188 256.285156 C 213.289062 257.824219 212.519531 259.367188 211.558594 260.714844 C 210.59375 262.0625 209.535156 263.40625 208.285156 264.464844 C 207.035156 265.621094 205.6875 266.585938 204.242188 267.355469 C 202.703125 268.125 201.164062 268.703125 199.527344 269.183594 C 197.988281 269.566406 196.253906 269.761719 194.617188 269.761719 C 192.984375 269.761719 189.613281 269.183594 189.613281 269.183594 C 189.613281 269.183594 177.96875 266.488281 173.925781 265.429688 C 171.421875 264.753906 170.460938 263.601562 167.863281 263.695312 C 163.53125 263.695312 156.503906 268.703125 150.34375 269.183594 C 143.609375 269.664062 135.910156 267.160156 128.882812 265.8125 C 121.953125 264.5625 114.925781 263.890625 108.285156 261.578125 C 101.546875 259.269531 95.101562 255.707031 88.84375 251.761719 C 82.394531 247.816406 76.234375 242.714844 70.171875 237.902344 C 64.300781 233.1875 58.429688 228.375 52.945312 223.371094 C 47.554688 218.460938 42.742188 213.167969 37.449219 208.257812 C 32.25 203.445312 24.359375 200.367188 21.566406 194.207031 C 18.488281 187.566406 18.777344 172.839844 21.085938 169.277344 C 22.242188 167.546875 25.609375 168.414062 25.996094 167.257812 C 26.476562 165.71875 22.820312 163.3125 21.277344 159.941406 C 18.390625 153.976562 13.097656 133.1875 13.097656 133.1875 " clip-rule="nonzero"/></clipPath><clipPath id="a08f60feb6"><path d="M 73 153 L 309 153 L 309 375 L 73 375 Z M 73 153 " clip-rule="nonzero"/></clipPath><clipPath id="838167a93e"><path d="M 86.839844 146.945312 L 317.769531 159.179688 L 303.222656 433.699219 L 72.292969 421.464844 Z M 86.839844 146.945312 " clip-rule="nonzero"/></clipPath><clipPath id="03d7f1e8d7"><path d="M 73.703125 399.191406 C 88.347656 368.945312 92.78125 363.550781 97.980469 358.6875 C 103.179688 353.726562 110.261719 350.644531 115.847656 345.902344 C 121.339844 341.054688 126.46875 335.597656 131.3125 329.925781 C 136.160156 324.257812 140.746094 317.878906 145.03125 311.585938 C 149.210938 305.386719 153.402344 298.988281 156.722656 292.25 C 160.03125 285.804688 162.171875 278.90625 164.800781 272.226562 C 167.4375 265.355469 170.554688 258.703125 172.605469 251.699219 C 174.550781 244.785156 175.617188 237.730469 176.789062 230.582031 C 178.066406 223.238281 176.195312 213.753906 179.957031 208.027344 C 183.621094 202.292969 199.316406 198.777344 199.257812 196.207031 C 199.230469 194.820312 195.605469 194.234375 193.980469 193.257812 C 192.449219 192.289062 191.015625 191.421875 189.789062 190.269531 C 188.566406 189.117188 187.453125 187.777344 186.441406 186.339844 C 185.53125 184.90625 184.722656 183.382812 184.214844 181.777344 C 183.609375 180.164062 183.203125 178.460938 182.996094 176.769531 C 182.890625 175.085938 182.878906 173.40625 183.164062 171.742188 C 183.359375 169.972656 183.839844 168.320312 184.417969 166.769531 C 185.089844 165.226562 185.964844 163.691406 186.929688 162.257812 C 187.886719 160.925781 189.042969 159.605469 190.386719 158.492188 C 191.632812 157.371094 193.164062 156.464844 194.589844 155.652344 C 196.109375 154.941406 197.820312 154.339844 199.421875 153.929688 C 201.117188 153.625 202.808594 153.417969 204.488281 153.410156 C 206.261719 153.503906 207.929688 153.691406 209.585938 154.171875 C 211.242188 154.558594 214.328125 156.003906 214.328125 156.003906 C 214.328125 156.003906 219.921875 158.574219 223.546875 161.039062 C 229.640625 165.3125 240.253906 173.878906 246.304688 180.816406 C 251.515625 186.921875 253.917969 193.769531 258.328125 200.027344 C 262.832031 206.390625 268.664062 211.9375 272.949219 218.683594 C 277.515625 225.742188 280.429688 234.097656 284.777344 241.539062 C 289.121094 249.078125 295.476562 255.9375 299.03125 263.4375 C 302.410156 270.53125 304.882812 277.875 305.882812 285.136719 C 306.890625 292.207031 305.125 299.421875 305.4375 306.550781 C 305.753906 313.683594 309.25 322.265625 307.652344 328.207031 C 306.304688 333.074219 300.207031 336.308594 298.710938 340.277344 C 297.558594 343.378906 299.757812 346.65625 298.117188 349.632812 C 295.488281 354.53125 285.53125 361.613281 279.199219 363.648438 C 274.074219 365.253906 268.316406 362.082031 263.890625 363.527344 C 259.871094 364.796875 257.324219 368.117188 253.332031 370.773438 C 248.003906 374.34375 241.316406 379.421875 234.996094 383.039062 C 228.78125 386.660156 222.59375 389.691406 215.726562 392.488281 C 208.160156 395.449219 199.644531 397.664062 191.324219 399.988281 C 182.792969 402.5 173.710938 404.191406 165.074219 406.898438 C 156.527344 409.703125 148.308594 413.8125 139.863281 416.527344 C 131.625 419.152344 123.839844 422.496094 115.125 422.921875 C 105.71875 423.3125 92.414062 422.707031 85.347656 418.082031 C 79.339844 414.011719 73.703125 399.191406 73.703125 399.191406 " clip-rule="nonzero"/></clipPath><clipPath id="6f345ee9b7"><path d="M 34 210.429688 L 211.558594 210.429688 L 211.558594 334.96875 L 34 334.96875 Z M 34 210.429688 " clip-rule="nonzero"/></clipPath><clipPath id="250c0e65c7"><path d="M 34.335938 221.925781 C 34.484375 220.199219 34.484375 219.375 34.484375 219.375 C 34.484375 219.375 34.785156 218.625 34.859375 218.175781 C 35.007812 217.800781 35.234375 216.976562 35.308594 216.976562 C 35.308594 216.976562 35.683594 216.226562 35.910156 215.925781 C 36.132812 215.550781 36.585938 214.800781 36.585938 214.800781 C 36.585938 214.800781 37.183594 214.199219 37.484375 213.898438 C 37.785156 213.601562 38.382812 213.074219 38.382812 213.074219 C 38.382812 213 39.132812 212.625 39.507812 212.398438 C 39.882812 212.175781 40.558594 211.726562 40.558594 211.726562 C 40.558594 211.726562 41.382812 211.5 41.757812 211.351562 C 42.210938 211.273438 42.960938 210.976562 42.960938 210.976562 C 43.035156 210.976562 43.035156 210.976562 43.035156 210.976562 C 43.035156 210.976562 43.859375 210.976562 44.234375 210.976562 C 44.683594 210.898438 45.507812 210.898438 45.507812 210.898438 C 45.507812 210.898438 46.335938 211.050781 46.785156 211.125 C 47.160156 211.199219 47.984375 211.351562 47.984375 211.351562 C 48.058594 211.351562 48.808594 211.726562 49.183594 211.875 C 49.558594 212.023438 50.308594 212.398438 50.308594 212.398438 C 50.308594 212.398438 50.984375 212.925781 51.285156 213.148438 C 51.660156 213.449219 52.257812 213.976562 52.257812 213.976562 C 52.335938 213.976562 52.335938 213.976562 52.335938 213.976562 C 52.335938 213.976562 52.859375 214.726562 53.085938 214.949219 C 53.234375 215.175781 53.460938 215.476562 53.460938 215.476562 C 53.460938 215.476562 53.609375 215.699219 53.835938 216 C 54.808594 216.976562 59.234375 220.800781 62.382812 222.601562 C 65.609375 224.398438 69.359375 225.449219 72.960938 226.875 C 76.632812 228.226562 80.535156 229.5 84.132812 230.925781 C 87.660156 232.351562 90.734375 234.300781 94.410156 235.5 C 98.308594 236.851562 102.734375 237.523438 106.859375 238.5 C 110.984375 239.398438 115.183594 240.074219 119.308594 241.125 C 123.359375 242.175781 127.484375 243.75 131.460938 244.726562 C 135.210938 245.699219 138.808594 246.75 142.484375 246.976562 C 146.160156 247.199219 149.835938 246.226562 153.507812 246.148438 C 157.335938 246 161.160156 246.449219 165.058594 246.148438 C 169.257812 245.773438 173.683594 244.574219 177.808594 244.050781 C 181.710938 243.523438 185.382812 243.226562 189.132812 243 C 192.808594 242.851562 196.484375 242.324219 200.007812 243 C 203.460938 243.601562 208.183594 244.351562 210.058594 246.976562 C 212.160156 249.898438 211.710938 256.875 210.433594 260.851562 C 209.308594 264.449219 205.109375 266.625 203.460938 269.925781 C 201.808594 273.148438 201.808594 277.125 200.382812 280.5 C 198.960938 283.800781 196.785156 286.574219 194.835938 290.023438 C 192.660156 293.851562 190.035156 298.574219 187.933594 302.398438 C 186.058594 305.699219 184.933594 308.550781 182.835938 311.625 C 180.585938 315.074219 177.882812 319.125 174.660156 321.898438 C 171.585938 324.601562 167.460938 326.175781 164.007812 328.125 C 160.859375 329.925781 158.160156 332.175781 154.785156 333.226562 C 151.335938 334.351562 147.210938 334.574219 143.460938 334.5 C 139.933594 334.351562 136.558594 333.523438 133.109375 332.550781 C 129.433594 331.574219 125.609375 329.925781 122.085938 328.425781 C 118.785156 327 115.859375 325.574219 112.632812 323.851562 C 109.109375 321.976562 105.210938 319.800781 101.835938 317.476562 C 98.535156 315.148438 95.460938 312.523438 92.535156 309.898438 C 89.683594 307.351562 87.132812 304.648438 84.585938 301.875 C 82.035156 299.023438 79.785156 295.648438 77.234375 292.800781 C 74.757812 290.101562 71.984375 288 69.433594 285.300781 C 66.808594 282.523438 63.808594 279.75 61.859375 276.449219 C 59.910156 272.925781 59.160156 268.5 57.808594 264.75 C 56.609375 261.300781 55.257812 256.273438 54.210938 254.851562 C 53.835938 254.25 53.085938 253.949219 53.085938 253.949219 C 53.085938 253.949219 52.632812 253.199219 52.410156 252.824219 C 52.183594 252.523438 51.808594 251.773438 51.734375 251.773438 C 51.734375 251.773438 51.507812 250.949219 51.359375 250.574219 C 51.285156 250.199219 50.984375 249.375 50.984375 249.375 C 50.984375 249.375 50.984375 248.550781 50.910156 248.101562 C 50.910156 247.648438 50.835938 246.824219 50.835938 246.824219 C 50.835938 246.824219 50.910156 246.675781 50.910156 246.601562 C 50.835938 246.601562 50.835938 246.601562 50.757812 246.601562 C 50.460938 246.375 48.808594 244.949219 48.808594 244.949219 C 48.808594 244.949219 46.109375 242.398438 44.683594 240.601562 C 42.660156 237.976562 40.109375 233.25 38.460938 230.699219 C 37.410156 229.050781 35.835938 226.726562 35.835938 226.726562 C 35.835938 226.726562 35.460938 225.976562 35.308594 225.601562 C 35.160156 225.148438 34.785156 224.398438 34.785156 224.398438 C 34.785156 224.398438 34.632812 223.574219 34.558594 223.199219 C 34.484375 222.75 34.335938 221.925781 34.335938 221.925781 M 52.484375 213.898438 C 53.835938 216 53.609375 215.699219 53.460938 215.476562 C 53.234375 215.101562 52.484375 213.898438 52.484375 213.898438 " clip-rule="nonzero"/></clipPath><clipPath id="2255b169f0"><path d="M 116.484375 15.617188 L 311 15.617188 L 311 165.824219 L 116.484375 165.824219 Z M 116.484375 15.617188 " clip-rule="nonzero"/></clipPath><clipPath id="e8c8e4388e"><path d="M 116.582031 132.015625 C 117.589844 117.585938 117.84375 117.71875 117.96875 117.519531 C 118.285156 116.738281 117.148438 113.410156 117.023438 110.667969 C 116.773438 106.554688 117.339844 100.15625 117.402344 95.0625 C 117.464844 90.167969 116.707031 85.402344 117.402344 80.636719 C 118.097656 75.671875 120.617188 70.90625 121.878906 65.816406 C 123.140625 60.59375 123.203125 52.953125 124.90625 49.691406 C 125.789062 47.925781 127.804688 47.339844 128.246094 46.164062 C 128.5625 45.382812 128.183594 44.597656 128.246094 43.878906 C 128.3125 43.359375 128.4375 42.902344 128.5 42.378906 C 128.5625 41.921875 128.5 41.269531 128.5625 40.875 C 128.625 40.617188 128.816406 40.417969 128.878906 40.160156 C 128.941406 39.960938 128.878906 39.703125 128.941406 39.441406 C 129.128906 39.046875 129.445312 38.527344 129.636719 38.070312 C 129.886719 37.613281 130.011719 37.023438 130.203125 36.699219 C 130.328125 36.4375 130.519531 36.308594 130.707031 36.109375 C 130.832031 35.851562 130.832031 35.652344 131.023438 35.394531 C 131.273438 35.066406 131.777344 34.738281 132.09375 34.347656 C 132.410156 34.023438 132.726562 33.5 133.039062 33.238281 C 133.292969 33.042969 133.480469 32.976562 133.671875 32.78125 C 133.859375 32.652344 133.984375 32.453125 134.238281 32.257812 C 134.554688 32.0625 135.121094 31.867188 135.5625 31.671875 C 136.003906 31.410156 136.445312 31.019531 136.824219 30.886719 C 137.074219 30.757812 137.328125 30.757812 137.515625 30.691406 C 137.769531 30.625 137.957031 30.625 138.148438 30.429688 C 138.652344 29.648438 137.390625 25.925781 138.652344 24.488281 C 140.796875 22.074219 150.316406 22.140625 154.414062 21.8125 C 157 21.617188 158.765625 22.207031 160.722656 21.8125 C 162.613281 21.488281 163.621094 20.507812 166.019531 19.921875 C 170.683594 18.746094 180.710938 17.960938 187.519531 17.308594 C 193.636719 16.65625 199.4375 16.132812 204.988281 15.9375 C 210.09375 15.675781 214.570312 15.613281 219.679688 15.808594 C 225.226562 16.003906 231.40625 16.328125 237.144531 17.375 C 243.070312 18.417969 249.25 19.921875 254.738281 22.207031 C 260.035156 24.425781 265.203125 27.6875 269.683594 30.757812 C 273.78125 33.628906 276.679688 37.480469 280.714844 39.960938 C 284.816406 42.445312 289.671875 43.554688 294.210938 45.773438 C 298.941406 48.058594 305.8125 49.429688 308.460938 53.542969 C 311.109375 57.785156 311.867188 66.535156 309.785156 71.039062 C 307.832031 75.214844 301.902344 78.480469 297.238281 79.984375 C 292.382812 81.550781 286.328125 80.046875 281.15625 80.046875 C 276.238281 80.046875 271.574219 79.460938 266.78125 80.046875 C 261.925781 80.699219 257.132812 82.921875 252.277344 84.03125 C 247.550781 85.074219 242.628906 85.269531 237.964844 86.445312 C 233.425781 87.554688 229.011719 88.796875 224.722656 90.6875 C 220.246094 92.648438 215.453125 94.800781 211.671875 98 C 207.824219 101.199219 205.300781 106.097656 201.769531 109.949219 C 198.113281 113.800781 193.824219 117.261719 190.042969 121.046875 C 186.320312 124.703125 182.789062 128.359375 179.195312 132.277344 C 175.351562 136.390625 172.007812 142.199219 167.65625 145.203125 C 163.683594 147.945312 157.945312 150.492188 154.605469 150.230469 C 152.335938 150.097656 150.003906 146.703125 149.183594 147.160156 C 148.488281 147.617188 149.246094 150.292969 149.183594 151.664062 C 149.121094 152.90625 149.054688 153.949219 148.742188 155.058594 C 148.488281 156.105469 148.109375 157.214844 147.605469 158.195312 C 147.101562 159.171875 146.472656 160.152344 145.777344 161 C 145.019531 161.851562 144.199219 162.632812 143.316406 163.222656 C 142.433594 163.875 141.425781 164.394531 140.417969 164.789062 C 139.410156 165.246094 138.335938 165.507812 137.265625 165.636719 C 136.191406 165.765625 135.058594 165.765625 133.984375 165.636719 C 132.914062 165.507812 131.527344 165.113281 130.769531 164.789062 C 130.390625 164.65625 130.203125 164.460938 129.886719 164.332031 C 129.445312 164.136719 128.5625 164.003906 128.5625 164.003906 C 128.5625 164.003906 127.617188 163.480469 127.113281 163.222656 C 126.609375 162.960938 125.664062 162.4375 125.664062 162.4375 C 125.664062 162.4375 124.84375 161.71875 124.402344 161.328125 C 124.023438 160.9375 123.203125 160.21875 123.203125 160.21875 C 123.140625 160.21875 122.574219 159.304688 122.257812 158.847656 C 121.941406 158.390625 121.3125 157.476562 121.3125 157.476562 C 121.3125 157.410156 120.933594 156.429688 120.679688 155.910156 C 120.492188 155.386719 120.113281 154.34375 120.113281 154.34375 C 120.113281 154.34375 120.113281 154.34375 120.113281 154.277344 C 120.113281 154.277344 119.925781 149.121094 119.546875 145.984375 C 118.980469 141.9375 116.582031 132.015625 116.582031 132.015625 M 170.875 72.277344 C 172.386719 70.449219 171.628906 70.449219 171.378906 70.648438 C 171.0625 70.90625 170.875 72.277344 170.875 72.277344 " clip-rule="nonzero"/></clipPath><clipPath id="715d601602"><path d="M 157 0 L 313 0 L 313 109 L 157 109 Z M 157 0 " clip-rule="nonzero"/></clipPath><clipPath id="5ec072fa39"><path d="M 139.742188 31.488281 L 289.566406 -28.035156 L 328.886719 70.941406 L 179.0625 130.460938 Z M 139.742188 31.488281 " clip-rule="nonzero"/></clipPath><clipPath id="1b09711f1a"><path d="M 303.179688 6.730469 C 315.566406 37.90625 312.96875 47.964844 308.308594 56.980469 C 303.199219 65.910156 294.617188 75.425781 285.214844 82.878906 C 275.457031 90.46875 262.925781 97.308594 250.996094 101.515625 C 238.710938 105.863281 224.804688 108.203125 212.9375 108.40625 C 201.421875 108.46875 189.351562 106.097656 180.660156 101.851562 C 171.703125 97.980469 164.417969 91.054688 160.703125 83.769531 C 156.984375 76.488281 156.015625 66.789062 158.265625 57.929688 C 160.070312 48.984375 165.878906 38.714844 173.3125 30.453125 C 180.652344 21.964844 191.746094 13.574219 202.945312 7.535156 C 214.144531 1.492188 227.851562 -3.421875 240.152344 -5.65625 C 252.097656 -7.746094 276.300781 -5.949219 276.300781 -5.949219 " clip-rule="nonzero"/></clipPath><clipPath id="29d4aa77f0"><path d="M 117.476562 118.230469 L 250.742188 118.230469 L 250.742188 255 L 117.476562 255 Z M 117.476562 118.230469 " clip-rule="nonzero"/></clipPath><clipPath id="3d133f5831"><path d="M 184.109375 118.230469 L 250.742188 170.328125 L 225.292969 254.625 L 142.925781 254.625 L 117.476562 170.328125 Z M 184.109375 118.230469 " clip-rule="nonzero"/></clipPath><clipPath id="431275f864"><path d="M 187.5 -104.328125 C 23.871094 -104.328125 -108.785156 28.328125 -108.785156 191.953125 C -108.785156 355.582031 23.871094 488.238281 187.5 488.238281 C 351.128906 488.238281 483.785156 355.582031 483.785156 191.953125 C 483.785156 28.328125 351.128906 -104.328125 187.5 -104.328125 Z M 187.5 338.84375 C 106.367188 338.84375 40.609375 273.074219 40.609375 191.953125 C 40.609375 110.835938 106.367188 45.0625 187.5 45.0625 C 268.632812 45.0625 334.390625 110.824219 334.390625 191.953125 C 334.390625 273.085938 268.632812 338.84375 187.5 338.84375 Z M 187.5 338.84375 " clip-rule="nonzero"/></clipPath></defs><rect x="-37.5" width="450" fill="#ffffff" y="-37.499999" height="449.999989" fill-opacity="1"/><rect x="-37.5" width="450" fill="#ffffff" y="-37.499999" height="449.999989" fill-opacity="1"/><g clip-path="url(#a380caf5dd)"><g clip-path="url(#d7075d6aaf)"><g clip-path="url(#405d321d34)"><path fill="#4298b4" d="M 115.980469 -2.824219 L 347.929688 9.464844 L 332.332031 303.78125 L 100.382812 291.492188 Z M 115.980469 -2.824219 " fill-opacity="1" fill-rule="nonzero"/></g></g></g><g clip-path="url(#eea117326a)"><g clip-path="url(#10d2835b8d)"><path fill="#e4ae3a" d="M 9.246094 -48.335938 L 218.871094 -48.335938 L 218.871094 273.472656 L 9.246094 273.472656 Z M 9.246094 -48.335938 " fill-opacity="1" fill-rule="nonzero"/></g></g><g clip-path="url(#a08f60feb6)"><g clip-path="url(#838167a93e)"><g clip-path="url(#03d7f1e8d7)"><path fill="#33a474" d="M 83.324219 143.039062 L 320.75 155.617188 L 305.855469 436.628906 L 68.433594 424.050781 Z M 83.324219 143.039062 " fill-opacity="1" fill-rule="nonzero"/></g></g></g><g clip-path="url(#6f345ee9b7)"><g clip-path="url(#250c0e65c7)"><path fill="#f25e62" d="M 31.335938 207.898438 L 213.585938 207.898438 L 213.585938 337.5 L 31.335938 337.5 Z M 31.335938 207.898438 " fill-opacity="1" fill-rule="nonzero"/></g></g><g clip-path="url(#2255b169f0)"><g clip-path="url(#e8c8e4388e)"><path fill="#88619a" d="M 114.058594 13.195312 L 312.113281 13.195312 L 312.113281 168.246094 L 114.058594 168.246094 Z M 114.058594 13.195312 " fill-opacity="1" fill-rule="nonzero"/></g></g><g clip-path="url(#715d601602)"><g clip-path="url(#5ec072fa39)"><g clip-path="url(#1b09711f1a)"><path fill="#88619a" d="M 122.421875 28.90625 L 302.664062 -42.699219 L 348.835938 73.527344 L 168.597656 145.132812 Z M 122.421875 28.90625 " fill-opacity="1" fill-rule="nonzero"/></g></g></g><g clip-path="url(#29d4aa77f0)"><g clip-path="url(#3d133f5831)"><path fill="#ffffff" d="M 117.476562 118.230469 L 250.742188 118.230469 L 250.742188 254.625 L 117.476562 254.625 Z M 117.476562 118.230469 " fill-opacity="1" fill-rule="nonzero"/></g></g><path stroke-linecap="butt" transform="matrix(-0.0107626, 0.749923, -0.749923, -0.0107626, 164.07783, 29.396396)" fill="none" stroke-linejoin="miter" d="M 11.096969 20.279954 C 76.694667 57.467451 148.207244 57.467279 225.629566 20.284717 " stroke="#ffffff" stroke-width="45" stroke-opacity="1" stroke-miterlimit="4"/><path stroke-linecap="butt" transform="matrix(-0.711545, 0.237074, -0.237074, -0.711545, 337.490255, 114.046274)" fill="none" stroke-linejoin="miter" d="M 10.577752 20.508974 C 80.367022 57.68921 156.44451 57.690417 238.816803 20.5093 " stroke="#ffffff" stroke-width="45" stroke-opacity="1" stroke-miterlimit="4"/><path stroke-linecap="butt" transform="matrix(-0.414059, -0.625344, 0.625344, -0.414059, 296.476185, 309.893065)" fill="none" stroke-linejoin="miter" d="M 8.609408 20.786603 C 75.295385 48.412996 141.979633 48.409696 208.667962 20.786794 " stroke="#ffffff" stroke-width="45" stroke-opacity="1" stroke-miterlimit="4"/><path stroke-linecap="butt" transform="matrix(0.452215, -0.598333, 0.598333, 0.452215, 102.669651, 345.901765)" fill="none" stroke-linejoin="miter" d="M 6.812768 21.445511 C 105.262389 52.722465 174.999324 52.720954 216.01942 21.44412 " stroke="#ffffff" stroke-width="45" stroke-opacity="1" stroke-miterlimit="4"/><path stroke-linecap="butt" transform="matrix(0.676262, 0.324299, -0.324299, 0.676262, 27.691389, 154.436006)" fill="none" stroke-linejoin="miter" d="M 5.993449 21.688637 C 107.852546 49.828238 174.631561 49.82811 206.323545 21.685809 " stroke="#ffffff" stroke-width="45" stroke-opacity="1" stroke-miterlimit="4"/><g clip-path="url(#431275f864)"><rect x="-37.5" width="450" fill="#ffffff" y="-37.499999" height="449.999989" fill-opacity="1"/></g></svg>