<svg xmlns="http://www.w3.org/2000/svg" xmlns:xlink="http://www.w3.org/1999/xlink" width="130" zoomAndPan="magnify" viewBox="0 0 97.5 32.249999" height="43" preserveAspectRatio="xMidYMid meet" version="1.0"><defs><g/><clipPath id="b9004d11b8"><path d="M 0.863281 0 L 96.148438 0 L 96.148438 31.515625 L 0.863281 31.515625 Z M 0.863281 0 " clip-rule="nonzero"/></clipPath><clipPath id="4db4f3fbb9"><path d="M 16.519531 6 L 32.101562 6 L 32.101562 24.53125 L 16.519531 24.53125 Z M 16.519531 6 " clip-rule="nonzero"/></clipPath><clipPath id="3e492bae61"><path d="M 16.519531 10.484375 C 16.539062 10.0625 16.566406 9.957031 16.605469 9.859375 C 16.648438 9.761719 16.707031 9.652344 16.757812 9.582031 C 16.800781 9.53125 16.867188 9.5 16.875 9.457031 C 16.878906 9.421875 16.816406 9.402344 16.824219 9.347656 C 16.84375 9.148438 17.410156 8.347656 17.800781 8.03125 C 18.15625 7.738281 18.582031 7.632812 19.027344 7.445312 C 19.542969 7.222656 20.378906 6.914062 20.714844 6.820312 C 20.855469 6.785156 20.910156 6.808594 21.011719 6.773438 C 21.148438 6.730469 21.246094 6.632812 21.433594 6.5625 C 21.757812 6.453125 22.355469 6.34375 22.832031 6.296875 C 23.320312 6.246094 23.828125 6.289062 24.316406 6.289062 C 24.777344 6.289062 25.230469 6.320312 25.695312 6.289062 C 26.160156 6.265625 26.628906 6.167969 27.09375 6.125 C 27.539062 6.082031 27.976562 6.046875 28.429688 6.027344 C 28.898438 6.015625 29.644531 6.027344 29.851562 6.027344 C 29.90625 6.027344 29.917969 6.027344 29.960938 6.027344 C 30.003906 6.03125 30.066406 6.039062 30.113281 6.046875 C 30.171875 6.050781 30.273438 6.0625 30.273438 6.0625 C 30.273438 6.070312 30.371094 6.105469 30.421875 6.125 C 30.46875 6.144531 30.566406 6.179688 30.566406 6.179688 C 30.574219 6.179688 30.660156 6.242188 30.703125 6.269531 C 30.742188 6.296875 30.828125 6.355469 30.828125 6.355469 C 30.828125 6.355469 30.902344 6.4375 30.933594 6.480469 C 30.96875 6.515625 31.035156 6.59375 31.035156 6.59375 C 31.042969 6.59375 31.042969 6.59375 31.042969 6.59375 C 31.042969 6.59375 31.09375 6.6875 31.117188 6.734375 C 31.140625 6.785156 31.183594 6.875 31.191406 6.875 C 31.191406 6.875 31.214844 6.980469 31.226562 7.027344 C 31.238281 7.078125 31.261719 7.179688 31.261719 7.179688 C 31.261719 7.1875 31.261719 7.289062 31.261719 7.339844 C 31.261719 7.394531 31.261719 7.5 31.261719 7.5 C 31.261719 7.5 31.238281 7.601562 31.226562 7.652344 C 31.214844 7.707031 31.191406 7.804688 31.191406 7.804688 C 31.183594 7.808594 31.140625 7.902344 31.117188 7.945312 C 31.09375 7.992188 31.042969 8.085938 31.042969 8.085938 C 31.035156 8.089844 30.96875 8.164062 30.933594 8.207031 C 30.902344 8.242188 30.828125 8.324219 30.828125 8.324219 C 30.828125 8.324219 30.742188 8.382812 30.703125 8.414062 C 30.660156 8.445312 30.574219 8.5 30.566406 8.503906 C 30.566406 8.503906 30.46875 8.542969 30.421875 8.5625 C 30.371094 8.578125 30.273438 8.617188 30.273438 8.617188 C 30.273438 8.617188 30.195312 8.601562 30.1875 8.628906 C 30.15625 8.707031 30.738281 9.269531 30.96875 9.636719 C 31.214844 10.03125 31.464844 10.472656 31.605469 10.933594 C 31.75 11.410156 31.761719 11.960938 31.800781 12.472656 C 31.84375 12.980469 31.84375 13.433594 31.859375 13.996094 C 31.878906 14.683594 31.878906 15.5625 31.902344 16.308594 C 31.929688 17.003906 31.976562 17.667969 31.996094 18.324219 C 32.019531 18.9375 32.085938 19.582031 32.042969 20.128906 C 32 20.601562 31.898438 20.964844 31.792969 21.4375 C 31.679688 21.984375 31.582031 22.707031 31.371094 23.230469 C 31.195312 23.675781 31.050781 24.25 30.6875 24.410156 C 30.28125 24.59375 29.363281 24.359375 28.9375 24.042969 C 28.527344 23.730469 28.417969 23.03125 28.15625 22.554688 C 27.90625 22.101562 27.640625 21.675781 27.390625 21.246094 C 27.148438 20.832031 26.921875 20.453125 26.679688 20.019531 C 26.410156 19.542969 26.148438 18.988281 25.855469 18.511719 C 25.585938 18.058594 25.324219 17.625 25.003906 17.242188 C 24.695312 16.859375 24.296875 16.5625 23.960938 16.203125 C 23.625 15.835938 23.328125 15.398438 22.984375 15.042969 C 22.667969 14.707031 22.378906 14.355469 21.988281 14.117188 C 21.585938 13.871094 21.066406 13.816406 20.601562 13.628906 C 20.113281 13.425781 19.558594 13.242188 19.132812 12.945312 C 18.71875 12.65625 18.234375 12.125 18.058594 11.886719 C 17.984375 11.789062 17.984375 11.679688 17.929688 11.648438 C 17.894531 11.625 17.851562 11.660156 17.800781 11.660156 C 17.714844 11.660156 17.585938 11.644531 17.484375 11.621094 C 17.386719 11.589844 17.28125 11.550781 17.191406 11.496094 C 17.097656 11.449219 17.011719 11.386719 16.933594 11.3125 C 16.859375 11.242188 16.789062 11.160156 16.734375 11.074219 C 16.671875 10.984375 16.621094 10.886719 16.585938 10.789062 C 16.554688 10.691406 16.519531 10.484375 16.519531 10.484375 M 20.371094 10.3125 C 20.628906 10.441406 20.726562 9.984375 20.675781 9.953125 C 20.644531 9.929688 20.503906 10.03125 20.457031 10.097656 C 20.40625 10.160156 20.371094 10.3125 20.371094 10.3125 " clip-rule="nonzero"/></clipPath><clipPath id="d6081b4486"><path d="M 19.59375 8.882812 L 22.167969 8.882812 L 22.167969 11.519531 L 19.59375 11.519531 Z M 19.59375 8.882812 " clip-rule="nonzero"/></clipPath><clipPath id="cd5e829a0a"><path d="M 22.160156 9.804688 C 22.160156 10.636719 22.070312 10.851562 21.941406 11.007812 C 21.816406 11.167969 21.636719 11.3125 21.445312 11.394531 C 21.261719 11.480469 21.03125 11.523438 20.828125 11.507812 C 20.628906 11.496094 20.402344 11.429688 20.230469 11.320312 C 20.054688 11.214844 19.890625 11.050781 19.785156 10.878906 C 19.679688 10.703125 19.609375 10.484375 19.597656 10.277344 C 19.582031 10.074219 19.625 9.84375 19.710938 9.660156 C 19.796875 9.476562 19.9375 9.292969 20.097656 9.164062 C 20.261719 9.042969 20.476562 8.945312 20.671875 8.910156 C 20.871094 8.871094 21.105469 8.882812 21.300781 8.945312 C 21.496094 9.007812 21.835938 9.269531 21.835938 9.269531 " clip-rule="nonzero"/></clipPath><clipPath id="a2bffe75a6"><path d="M 0.863281 1.808594 L 12.695312 1.808594 L 12.695312 21.804688 L 0.863281 21.804688 Z M 0.863281 1.808594 " clip-rule="nonzero"/></clipPath><clipPath id="c993794640"><path d="M -0.148438 13.113281 C 0.363281 11.214844 0.882812 10.855469 1.238281 10.472656 C 1.554688 10.117188 1.890625 9.8125 2.152344 9.441406 C 2.421875 9.066406 2.570312 8.671875 2.84375 8.226562 C 3.191406 7.664062 3.6875 6.925781 4.09375 6.351562 C 4.457031 5.835938 4.871094 5.386719 5.152344 4.921875 C 5.394531 4.519531 5.5 4.128906 5.726562 3.730469 C 5.96875 3.292969 6.1875 2.707031 6.59375 2.394531 C 7.007812 2.070312 7.753906 1.742188 8.203125 1.84375 C 8.625 1.941406 9.089844 2.441406 9.246094 2.859375 C 9.414062 3.296875 9.21875 3.925781 9.113281 4.433594 C 9.015625 4.941406 8.746094 5.402344 8.636719 5.898438 C 8.535156 6.386719 8.484375 6.894531 8.453125 7.382812 C 8.421875 7.859375 8.429688 8.316406 8.449219 8.792969 C 8.464844 9.269531 8.539062 9.75 8.570312 10.226562 C 8.59375 10.679688 8.582031 11.125 8.613281 11.570312 C 8.636719 12.011719 8.636719 12.445312 8.734375 12.882812 C 8.832031 13.351562 9.113281 13.8125 9.222656 14.300781 C 9.328125 14.800781 9.261719 15.375 9.371094 15.867188 C 9.472656 16.332031 9.695312 16.746094 9.828125 17.1875 C 9.960938 17.621094 10.097656 18.195312 10.183594 18.488281 C 10.226562 18.640625 10.207031 18.75 10.285156 18.828125 C 10.363281 18.910156 10.503906 18.910156 10.664062 18.953125 C 10.921875 19.023438 11.425781 19.117188 11.660156 19.191406 C 11.789062 19.226562 11.867188 19.25 11.957031 19.300781 C 12.050781 19.347656 12.140625 19.410156 12.222656 19.476562 C 12.300781 19.550781 12.375 19.628906 12.429688 19.714844 C 12.488281 19.800781 12.542969 19.898438 12.582031 19.996094 C 12.617188 20.09375 12.640625 20.195312 12.660156 20.300781 C 12.671875 20.40625 12.671875 20.515625 12.660156 20.617188 C 12.648438 20.722656 12.625 20.824219 12.585938 20.921875 C 12.550781 21.019531 12.5 21.117188 12.441406 21.203125 C 12.378906 21.289062 12.3125 21.375 12.234375 21.441406 C 12.152344 21.515625 12.070312 21.578125 11.976562 21.625 C 11.878906 21.675781 11.78125 21.710938 11.675781 21.742188 C 11.578125 21.765625 11.46875 21.777344 11.367188 21.777344 C 11.261719 21.777344 11.050781 21.742188 11.050781 21.742188 C 11.050781 21.742188 10.308594 21.570312 10.054688 21.503906 C 9.894531 21.460938 9.832031 21.386719 9.667969 21.394531 C 9.394531 21.394531 8.949219 21.710938 8.558594 21.742188 C 8.128906 21.773438 7.640625 21.613281 7.195312 21.527344 C 6.757812 21.449219 6.3125 21.40625 5.890625 21.257812 C 5.460938 21.113281 5.054688 20.886719 4.65625 20.636719 C 4.246094 20.386719 3.855469 20.0625 3.472656 19.757812 C 3.101562 19.457031 2.726562 19.152344 2.378906 18.835938 C 2.039062 18.523438 1.734375 18.1875 1.398438 17.878906 C 1.066406 17.570312 0.566406 17.375 0.390625 16.984375 C 0.195312 16.5625 0.210938 15.628906 0.359375 15.40625 C 0.433594 15.292969 0.644531 15.347656 0.671875 15.277344 C 0.699219 15.179688 0.46875 15.027344 0.371094 14.8125 C 0.1875 14.433594 -0.148438 13.113281 -0.148438 13.113281 " clip-rule="nonzero"/></clipPath><clipPath id="5e88400d31"><path d="M 6.5 1.445312 L 11.53125 1.445312 L 11.53125 20.351562 L 6.5 20.351562 Z M 6.5 1.445312 " clip-rule="nonzero"/></clipPath><clipPath id="1e3ac89216"><path d="M 8.984375 11.425781 C 10.621094 16.679688 11.335938 18.15625 11.480469 18.773438 C 11.539062 19.011719 11.539062 19.117188 11.523438 19.28125 C 11.511719 19.445312 11.488281 19.625 11.414062 19.769531 C 11.34375 19.910156 11.203125 20.0625 11.097656 20.148438 C 11.019531 20.210938 10.953125 20.238281 10.878906 20.269531 C 10.796875 20.300781 10.730469 20.324219 10.632812 20.335938 C 10.5 20.34375 10.273438 20.324219 10.140625 20.289062 C 10.046875 20.257812 9.992188 20.234375 9.917969 20.171875 C 9.808594 20.09375 9.652344 19.929688 9.578125 19.8125 C 9.527344 19.734375 9.515625 19.703125 9.484375 19.582031 C 9.363281 19.152344 9.164062 17.40625 9.023438 16.660156 C 8.929688 16.203125 8.875 15.949219 8.765625 15.550781 C 8.644531 15.082031 8.519531 14.628906 8.289062 14.035156 C 7.921875 13.121094 6.914062 11.496094 6.664062 10.65625 C 6.523438 10.195312 6.523438 9.890625 6.507812 9.53125 C 6.488281 9.207031 6.507812 8.925781 6.53125 8.589844 C 6.5625 8.195312 6.628906 7.699219 6.695312 7.308594 C 6.757812 6.980469 6.8125 6.722656 6.914062 6.386719 C 7.042969 5.976562 7.347656 5.464844 7.441406 5.054688 C 7.519531 4.71875 7.460938 4.445312 7.507812 4.121094 C 7.5625 3.773438 7.714844 3.382812 7.753906 3.046875 C 7.789062 2.773438 7.714844 2.457031 7.753906 2.273438 C 7.769531 2.167969 7.792969 2.113281 7.84375 2.035156 C 7.917969 1.914062 8.046875 1.746094 8.179688 1.648438 C 8.320312 1.558594 8.519531 1.496094 8.660156 1.472656 C 8.753906 1.453125 8.820312 1.453125 8.917969 1.472656 C 9.050781 1.496094 9.273438 1.582031 9.394531 1.65625 C 9.472656 1.703125 9.523438 1.746094 9.582031 1.828125 C 9.667969 1.9375 9.777344 2.144531 9.816406 2.277344 C 9.847656 2.371094 9.863281 2.417969 9.847656 2.535156 C 9.816406 2.777344 9.539062 3.308594 9.375 3.664062 C 9.21875 3.980469 8.992188 4.367188 8.875 4.5625 C 8.8125 4.660156 8.800781 4.703125 8.734375 4.777344 C 8.636719 4.878906 8.480469 5.019531 8.324219 5.082031 C 8.171875 5.148438 7.984375 5.171875 7.820312 5.160156 C 7.65625 5.148438 7.472656 5.085938 7.332031 4.996094 C 7.195312 4.902344 7.0625 4.769531 6.984375 4.621094 C 6.898438 4.476562 6.855469 4.269531 6.84375 4.128906 C 6.832031 4.03125 6.847656 3.957031 6.867188 3.871094 C 6.886719 3.785156 6.941406 3.628906 6.945312 3.628906 C 6.957031 3.632812 6.847656 4.132812 6.84375 4.132812 C 6.835938 4.132812 6.855469 3.902344 6.886719 3.792969 C 6.914062 3.683594 6.96875 3.574219 7.039062 3.480469 C 7.097656 3.382812 7.183594 3.296875 7.277344 3.230469 C 7.367188 3.164062 7.476562 3.109375 7.585938 3.070312 C 7.695312 3.042969 7.8125 3.023438 7.929688 3.023438 C 8.046875 3.023438 8.160156 3.046875 8.269531 3.085938 C 8.375 3.128906 8.484375 3.183594 8.570312 3.253906 C 8.660156 3.324219 8.746094 3.414062 8.808594 3.503906 C 8.871094 3.601562 8.917969 3.714844 8.949219 3.824219 C 8.972656 3.933594 8.984375 4.054688 8.980469 4.171875 C 8.972656 4.28125 8.941406 4.402344 8.898438 4.507812 C 8.855469 4.609375 8.789062 4.714844 8.714844 4.800781 C 8.644531 4.886719 8.546875 4.964844 8.449219 5.019531 C 8.351562 5.074219 8.234375 5.125 8.125 5.140625 C 8.015625 5.167969 7.890625 5.171875 7.777344 5.152344 C 7.667969 5.140625 7.550781 5.105469 7.445312 5.054688 C 7.34375 5.007812 7.246094 4.941406 7.167969 4.859375 C 7.082031 4.78125 7.007812 4.683594 6.957031 4.582031 C 6.902344 4.476562 6.867188 4.359375 6.855469 4.25 C 6.835938 4.132812 6.835938 4.019531 6.859375 3.902344 C 6.878906 3.792969 6.921875 3.675781 6.976562 3.578125 C 7.03125 3.476562 7.105469 3.382812 7.191406 3.304688 C 7.269531 3.230469 7.375 3.164062 7.476562 3.113281 C 7.582031 3.070312 7.695312 3.042969 7.8125 3.03125 C 7.929688 3.015625 8.046875 3.03125 8.160156 3.054688 C 8.269531 3.078125 8.382812 3.128906 8.480469 3.1875 C 8.578125 3.25 8.667969 3.328125 8.742188 3.414062 C 8.808594 3.503906 8.882812 3.585938 8.910156 3.714844 C 8.960938 3.921875 8.960938 4.34375 8.875 4.5625 C 8.808594 4.734375 8.679688 4.855469 8.546875 4.953125 C 8.417969 5.050781 8.242188 5.128906 8.074219 5.152344 C 7.910156 5.179688 7.722656 5.160156 7.5625 5.105469 C 7.410156 5.054688 7.238281 4.929688 7.136719 4.832031 C 7.0625 4.761719 7.027344 4.714844 6.984375 4.621094 C 6.921875 4.496094 6.847656 4.304688 6.84375 4.128906 C 6.835938 3.933594 6.886719 3.71875 6.988281 3.5 C 7.136719 3.195312 7.585938 2.808594 7.722656 2.527344 C 7.808594 2.34375 7.789062 2.15625 7.84375 2.035156 C 7.886719 1.941406 7.921875 1.886719 7.988281 1.820312 C 8.089844 1.722656 8.253906 1.589844 8.410156 1.535156 C 8.5625 1.472656 8.753906 1.453125 8.917969 1.472656 C 9.078125 1.492188 9.273438 1.582031 9.394531 1.65625 C 9.472656 1.703125 9.523438 1.746094 9.582031 1.828125 C 9.667969 1.9375 9.773438 2.082031 9.816406 2.277344 C 9.890625 2.582031 9.820312 3.101562 9.785156 3.519531 C 9.75 3.9375 9.707031 4.273438 9.597656 4.777344 C 9.417969 5.5625 8.886719 6.828125 8.710938 7.738281 C 8.558594 8.488281 8.40625 9.25 8.492188 9.832031 C 8.550781 10.257812 8.753906 10.503906 8.941406 10.917969 C 9.207031 11.496094 9.667969 12.265625 9.949219 12.960938 C 10.230469 13.652344 10.421875 14.304688 10.640625 15.082031 C 10.902344 16.003906 11.238281 17.375 11.382812 18.152344 C 11.46875 18.617188 11.539062 18.988281 11.523438 19.28125 C 11.511719 19.476562 11.46875 19.640625 11.414062 19.769531 C 11.378906 19.855469 11.347656 19.910156 11.28125 19.976562 C 11.183594 20.074219 11 20.210938 10.878906 20.269531 C 10.792969 20.3125 10.71875 20.324219 10.632812 20.335938 C 10.554688 20.347656 10.480469 20.355469 10.382812 20.34375 C 10.25 20.320312 10.054688 20.265625 9.917969 20.171875 C 9.785156 20.085938 9.652344 19.929688 9.578125 19.8125 C 9.527344 19.734375 9.511719 19.679688 9.484375 19.582031 C 9.4375 19.402344 9.457031 19.164062 9.375 18.839844 C 9.207031 18.183594 8.507812 16.65625 8.300781 15.898438 C 8.171875 15.433594 8.191406 15.125 8.082031 14.761719 C 7.976562 14.421875 7.808594 14.175781 7.679688 13.785156 C 7.496094 13.238281 7.179688 12.078125 7.148438 11.734375 C 7.136719 11.621094 7.140625 11.589844 7.167969 11.507812 C 7.195312 11.386719 7.265625 11.210938 7.355469 11.101562 C 7.445312 10.984375 7.605469 10.878906 7.710938 10.824219 C 7.789062 10.789062 7.84375 10.769531 7.929688 10.765625 C 8.050781 10.753906 8.257812 10.765625 8.375 10.796875 C 8.460938 10.820312 8.519531 10.851562 8.582031 10.894531 C 8.644531 10.929688 8.703125 10.964844 8.757812 11.03125 C 8.839844 11.125 8.984375 11.425781 8.984375 11.425781 " clip-rule="nonzero"/></clipPath><clipPath id="188c2310c4"><path d="M 14.246094 15.605469 L 28.558594 15.605469 L 28.558594 31.515625 L 14.246094 31.515625 Z M 14.246094 15.605469 " clip-rule="nonzero"/></clipPath><clipPath id="b1349361f4"><path d="M 14.261719 31.234375 C 15.066406 29.316406 15.324219 28.96875 15.628906 28.652344 C 15.933594 28.328125 16.359375 28.117188 16.691406 27.804688 C 17.011719 27.488281 17.3125 27.132812 17.59375 26.765625 C 17.875 26.398438 18.136719 25.992188 18.382812 25.585938 C 18.621094 25.191406 18.855469 24.78125 19.039062 24.355469 C 19.222656 23.945312 19.332031 23.511719 19.472656 23.089844 C 19.613281 22.65625 19.785156 22.234375 19.890625 21.796875 C 19.988281 21.363281 20.03125 20.921875 20.078125 20.476562 C 20.132812 20.019531 19.988281 19.441406 20.199219 19.074219 C 20.40625 18.707031 21.367188 18.4375 21.355469 18.28125 C 21.347656 18.195312 21.121094 18.171875 21.019531 18.113281 C 20.921875 18.058594 20.828125 18.011719 20.75 17.945312 C 20.671875 17.878906 20.597656 17.796875 20.53125 17.710938 C 20.46875 17.625 20.414062 17.535156 20.378906 17.4375 C 20.335938 17.339844 20.304688 17.234375 20.285156 17.132812 C 20.273438 17.027344 20.269531 16.925781 20.28125 16.820312 C 20.285156 16.710938 20.308594 16.605469 20.339844 16.507812 C 20.378906 16.410156 20.425781 16.3125 20.480469 16.222656 C 20.535156 16.136719 20.601562 16.050781 20.683594 15.976562 C 20.757812 15.90625 20.847656 15.84375 20.933594 15.789062 C 21.023438 15.738281 21.128906 15.699219 21.226562 15.667969 C 21.328125 15.640625 21.433594 15.625 21.539062 15.617188 C 21.648438 15.617188 21.75 15.625 21.855469 15.648438 C 21.957031 15.667969 22.152344 15.746094 22.152344 15.746094 C 22.152344 15.746094 22.507812 15.886719 22.738281 16.027344 C 23.132812 16.269531 23.816406 16.765625 24.210938 17.175781 C 24.554688 17.535156 24.722656 17.949219 25.015625 18.324219 C 25.316406 18.703125 25.695312 19.023438 25.980469 19.425781 C 26.289062 19.847656 26.496094 20.355469 26.789062 20.800781 C 27.082031 21.253906 27.496094 21.65625 27.738281 22.109375 C 27.972656 22.535156 28.148438 22.980469 28.234375 23.425781 C 28.320312 23.859375 28.234375 24.3125 28.277344 24.75 C 28.320312 25.191406 28.5625 25.710938 28.484375 26.082031 C 28.417969 26.386719 28.050781 26.605469 27.972656 26.859375 C 27.910156 27.054688 28.058594 27.25 27.964844 27.4375 C 27.820312 27.75 27.226562 28.21875 26.84375 28.367188 C 26.53125 28.480469 26.164062 28.304688 25.898438 28.410156 C 25.652344 28.5 25.503906 28.714844 25.269531 28.890625 C 24.949219 29.128906 24.554688 29.464844 24.175781 29.707031 C 23.800781 29.953125 23.429688 30.160156 23.015625 30.355469 C 22.558594 30.5625 22.039062 30.726562 21.53125 30.898438 C 21.011719 31.082031 20.457031 31.214844 19.933594 31.410156 C 19.414062 31.613281 18.917969 31.894531 18.40625 32.089844 C 17.90625 32.277344 17.433594 32.511719 16.898438 32.566406 C 16.316406 32.621094 15.492188 32.625 15.042969 32.363281 C 14.65625 32.132812 14.261719 31.234375 14.261719 31.234375 " clip-rule="nonzero"/></clipPath><clipPath id="0c6c06d444"><path d="M 14.011719 30.023438 L 16.433594 30.023438 L 16.433594 31.515625 L 14.011719 31.515625 Z M 14.011719 30.023438 " clip-rule="nonzero"/></clipPath><clipPath id="fb3b5db7bd"><path d="M 15.714844 31.832031 C 14.722656 31.984375 14.652344 31.949219 14.558594 31.914062 C 14.46875 31.871094 14.382812 31.816406 14.308594 31.746094 C 14.234375 31.679688 14.167969 31.59375 14.125 31.507812 C 14.078125 31.425781 14.039062 31.320312 14.027344 31.230469 C 14.011719 31.132812 14.011719 31.019531 14.023438 30.921875 C 14.039062 30.824219 14.070312 30.726562 14.113281 30.644531 C 14.164062 30.550781 14.222656 30.472656 14.296875 30.398438 C 14.363281 30.332031 14.449219 30.269531 14.539062 30.226562 C 14.632812 30.183594 14.730469 30.160156 14.828125 30.148438 C 14.925781 30.136719 15.03125 30.140625 15.128906 30.160156 C 15.226562 30.179688 15.324219 30.222656 15.40625 30.269531 C 15.492188 30.320312 15.574219 30.386719 15.640625 30.460938 C 15.699219 30.53125 15.757812 30.625 15.796875 30.714844 C 15.835938 30.808594 15.855469 30.910156 15.867188 31.007812 C 15.871094 31.105469 15.859375 31.210938 15.835938 31.308594 C 15.8125 31.398438 15.761719 31.496094 15.714844 31.578125 C 15.660156 31.664062 15.585938 31.734375 15.503906 31.796875 C 15.425781 31.859375 15.335938 31.90625 15.242188 31.941406 C 15.152344 31.972656 15.046875 31.992188 14.949219 31.992188 C 14.847656 31.992188 14.742188 31.980469 14.652344 31.949219 C 14.558594 31.917969 14.460938 31.871094 14.382812 31.808594 C 14.308594 31.753906 14.234375 31.675781 14.175781 31.59375 C 14.121094 31.515625 14.078125 31.417969 14.046875 31.328125 C 14.023438 31.230469 14.011719 31.125 14.015625 31.027344 C 14.015625 30.929688 14.039062 30.824219 14.078125 30.734375 C 14.109375 30.644531 14.164062 30.550781 14.222656 30.472656 C 14.289062 30.398438 14.371094 30.332031 14.457031 30.277344 C 14.535156 30.226562 14.621094 30.195312 14.730469 30.167969 C 14.882812 30.117188 15.121094 30.058594 15.296875 30.039062 C 15.457031 30.027344 15.621094 30.027344 15.738281 30.042969 C 15.824219 30.0625 15.871094 30.082031 15.945312 30.128906 C 16.050781 30.191406 16.1875 30.308594 16.269531 30.421875 C 16.347656 30.546875 16.402344 30.699219 16.421875 30.839844 C 16.433594 30.980469 16.414062 31.144531 16.359375 31.277344 C 16.304688 31.40625 16.214844 31.539062 16.105469 31.632812 C 16 31.722656 15.714844 31.832031 15.714844 31.832031 " clip-rule="nonzero"/></clipPath><clipPath id="99d4dbfd06"><path d="M 19 14 L 27 14 L 27 23 L 19 23 Z M 19 14 " clip-rule="nonzero"/></clipPath><clipPath id="64c55949f8"><path d="M 19.335938 15.191406 L 24.074219 13.65625 L 26.710938 21.804688 L 21.972656 23.339844 Z M 19.335938 15.191406 " clip-rule="nonzero"/></clipPath><clipPath id="c9cdf41bc6"><path d="M 21.851562 21.253906 C 20.152344 17.824219 19.945312 17.085938 19.921875 16.613281 C 19.910156 16.3125 19.96875 16.117188 20.050781 15.894531 C 20.128906 15.671875 20.242188 15.453125 20.390625 15.261719 C 20.535156 15.074219 20.71875 14.90625 20.917969 14.773438 C 21.117188 14.644531 21.351562 14.535156 21.582031 14.472656 C 21.808594 14.421875 22.058594 14.394531 22.300781 14.402344 C 22.539062 14.425781 22.785156 14.476562 23 14.570312 C 23.226562 14.660156 23.433594 14.800781 23.613281 14.949219 C 23.796875 15.109375 23.957031 15.304688 24.078125 15.507812 C 24.195312 15.707031 24.285156 15.953125 24.335938 16.175781 C 24.382812 16.410156 24.398438 16.667969 24.363281 16.898438 C 24.332031 17.136719 24.269531 17.375 24.164062 17.59375 C 24.0625 17.8125 23.917969 18.011719 23.757812 18.183594 C 23.582031 18.359375 23.382812 18.511719 23.175781 18.613281 C 22.960938 18.726562 22.722656 18.800781 22.484375 18.835938 C 22.257812 18.878906 21.996094 18.875 21.761719 18.832031 C 21.53125 18.785156 21.296875 18.707031 21.085938 18.589844 C 20.875 18.476562 20.671875 18.320312 20.515625 18.144531 C 20.351562 17.976562 20.21875 17.761719 20.113281 17.542969 C 20.023438 17.332031 19.953125 17.082031 19.933594 16.851562 C 19.910156 16.617188 19.925781 16.359375 19.980469 16.125 C 20.039062 15.898438 20.125 15.664062 20.257812 15.457031 C 20.375 15.257812 20.542969 15.070312 20.722656 14.914062 C 20.914062 14.765625 21.136719 14.640625 21.347656 14.550781 C 21.570312 14.464844 21.816406 14.417969 22.0625 14.40625 C 22.300781 14.394531 22.546875 14.421875 22.777344 14.488281 C 23.007812 14.558594 23.226562 14.671875 23.425781 14.804688 C 23.621094 14.9375 23.785156 15.078125 23.949219 15.308594 C 24.175781 15.648438 24.277344 16.195312 24.53125 16.746094 C 24.894531 17.523438 25.710938 18.773438 25.941406 19.480469 C 26.089844 19.902344 26.125 20.242188 26.121094 20.535156 C 26.121094 20.742188 26.070312 20.890625 26.019531 21.0625 C 25.964844 21.230469 25.914062 21.378906 25.792969 21.546875 C 25.621094 21.789062 25.324219 22.113281 25.019531 22.289062 C 24.730469 22.46875 24.292969 22.566406 23.996094 22.597656 C 23.796875 22.621094 23.664062 22.609375 23.460938 22.554688 C 23.183594 22.480469 22.761719 22.320312 22.496094 22.101562 C 22.230469 21.882812 21.851562 21.253906 21.851562 21.253906 " clip-rule="nonzero"/></clipPath><clipPath id="04b04b6c11"><path d="M 0.863281 19.378906 L 18.613281 19.378906 L 18.613281 31.480469 L 0.863281 31.480469 Z M 0.863281 19.378906 " clip-rule="nonzero"/></clipPath><clipPath id="d30bd87f24"><path d="M -0.144531 20.550781 C -0.0273438 20.144531 0.0234375 20.042969 0.0820312 19.957031 C 0.140625 19.871094 0.214844 19.785156 0.292969 19.714844 C 0.375 19.648438 0.46875 19.582031 0.558594 19.53125 C 0.652344 19.480469 0.757812 19.445312 0.855469 19.421875 C 0.960938 19.394531 1.066406 19.382812 1.175781 19.382812 C 1.28125 19.382812 1.386719 19.394531 1.492188 19.421875 C 1.597656 19.445312 1.796875 19.53125 1.796875 19.53125 C 1.796875 19.53125 2.0625 19.667969 2.253906 19.773438 C 2.5625 19.953125 3.074219 20.261719 3.476562 20.507812 C 3.882812 20.75 4.253906 21.039062 4.679688 21.25 C 5.109375 21.464844 5.589844 21.621094 6.042969 21.773438 C 6.472656 21.929688 6.875 22.101562 7.332031 22.183594 C 7.816406 22.261719 8.351562 22.226562 8.851562 22.238281 C 9.347656 22.246094 9.828125 22.238281 10.324219 22.238281 C 10.816406 22.238281 11.304688 22.226562 11.808594 22.238281 C 12.332031 22.25 12.882812 22.3125 13.394531 22.320312 C 13.894531 22.324219 14.382812 22.355469 14.851562 22.273438 C 15.3125 22.195312 15.707031 21.953125 16.183594 21.855469 C 16.707031 21.75 17.484375 21.445312 17.882812 21.695312 C 18.300781 21.949219 18.640625 22.941406 18.574219 23.457031 C 18.511719 23.90625 18.023438 24.257812 17.707031 24.628906 C 17.394531 25 16.996094 25.285156 16.683594 25.675781 C 16.335938 26.089844 16.027344 26.605469 15.738281 27.0625 C 15.464844 27.496094 15.265625 27.953125 14.984375 28.335938 C 14.703125 28.695312 14.339844 28.957031 14.0625 29.3125 C 13.765625 29.691406 13.59375 30.203125 13.257812 30.554688 C 12.925781 30.910156 12.5 31.351562 12.046875 31.425781 C 11.578125 31.496094 10.949219 31.136719 10.484375 30.910156 C 10.0625 30.703125 9.761719 30.414062 9.367188 30.160156 C 8.925781 29.875 8.414062 29.578125 7.957031 29.28125 C 7.519531 29 7.085938 28.691406 6.664062 28.410156 C 6.277344 28.144531 5.921875 27.910156 5.535156 27.652344 C 5.113281 27.375 4.652344 27.125 4.230469 26.804688 C 3.792969 26.464844 3.347656 26.070312 2.964844 25.644531 C 2.574219 25.210938 1.992188 24.710938 1.90625 24.214844 C 1.832031 23.78125 2.210938 22.984375 2.320312 22.878906 C 2.34375 22.855469 2.390625 22.875 2.390625 22.863281 C 2.402344 22.792969 1.355469 22.304688 1.015625 22.125 C 0.824219 22.027344 0.6875 21.964844 0.558594 21.886719 C 0.453125 21.824219 0.375 21.773438 0.292969 21.707031 C 0.214844 21.632812 0.144531 21.550781 0.0820312 21.464844 C 0.0234375 21.378906 -0.0273438 21.28125 -0.0664062 21.179688 C -0.101562 21.082031 -0.132812 20.976562 -0.144531 20.871094 C -0.15625 20.765625 -0.144531 20.550781 -0.144531 20.550781 M 8.191406 25.054688 C 8.199219 25.054688 8.199219 25.054688 8.199219 25.054688 C 8.199219 25.054688 8.191406 25.054688 8.191406 25.054688 M 13.773438 24.933594 C 13.90625 24.988281 13.933594 24.945312 13.925781 24.933594 C 13.914062 24.914062 13.773438 24.933594 13.773438 24.933594 " clip-rule="nonzero"/></clipPath><clipPath id="27da4bfbe5"><path d="M 0.863281 17.347656 L 18.921875 17.347656 L 18.921875 29.488281 L 0.863281 29.488281 Z M 0.863281 17.347656 " clip-rule="nonzero"/></clipPath><clipPath id="81af8967f6"><path d="M 17.949219 23.804688 C 8.265625 23.976562 8.0625 23.953125 7.710938 23.878906 C 7.375 23.8125 7.042969 23.71875 6.738281 23.585938 C 6.457031 23.464844 6.226562 23.308594 5.949219 23.128906 C 5.628906 22.914062 5.296875 22.667969 4.949219 22.371094 C 4.511719 21.996094 4.070312 21.417969 3.546875 21.035156 C 3.015625 20.636719 2.25 20.34375 1.761719 20.050781 C 1.421875 19.835938 0.921875 19.695312 0.894531 19.46875 C 0.871094 19.226562 1.367188 18.707031 1.703125 18.632812 C 2.085938 18.546875 2.683594 18.878906 3.125 19.203125 C 3.660156 19.605469 3.953125 20.441406 4.566406 21.019531 C 5.308594 21.734375 6.5625 22.429688 7.375 23.058594 C 8.03125 23.566406 8.667969 24.050781 9.109375 24.484375 C 9.425781 24.792969 9.558594 25.085938 9.839844 25.363281 C 10.140625 25.660156 10.449219 25.90625 10.855469 26.210938 C 11.398438 26.621094 12.453125 27.652344 12.824219 27.542969 C 13.0625 27.472656 13.058594 26.984375 13.210938 26.675781 C 13.394531 26.296875 13.960938 25.53125 13.882812 25.441406 C 13.84375 25.390625 13.667969 25.527344 13.550781 25.539062 C 13.4375 25.558594 13.3125 25.550781 13.203125 25.53125 C 13.09375 25.507812 12.976562 25.464844 12.878906 25.410156 C 12.78125 25.351562 12.683594 25.277344 12.613281 25.191406 C 12.53125 25.105469 12.464844 25 12.421875 24.898438 C 12.378906 24.792969 12.347656 24.671875 12.34375 24.5625 C 12.332031 24.445312 12.34375 24.324219 12.367188 24.214844 C 12.398438 24.105469 12.445312 23.988281 12.507812 23.898438 C 12.570312 23.800781 12.65625 23.707031 12.738281 23.640625 C 12.832031 23.566406 12.933594 23.507812 13.046875 23.46875 C 13.148438 23.425781 13.269531 23.410156 13.386719 23.402344 C 13.496094 23.402344 13.617188 23.421875 13.730469 23.449219 C 13.839844 23.488281 13.949219 23.542969 14.039062 23.609375 C 14.132812 23.675781 14.21875 23.761719 14.285156 23.855469 C 14.351562 23.945312 14.40625 24.054688 14.4375 24.164062 C 14.472656 24.273438 14.484375 24.398438 14.484375 24.507812 C 14.480469 24.625 14.457031 24.746094 14.417969 24.847656 C 14.375 24.957031 14.316406 25.0625 14.242188 25.152344 C 14.175781 25.238281 14.082031 25.320312 13.984375 25.378906 C 13.886719 25.449219 13.777344 25.488281 13.667969 25.519531 C 13.550781 25.546875 13.4375 25.558594 13.320312 25.546875 C 13.203125 25.539062 13.089844 25.507812 12.984375 25.460938 C 12.878906 25.417969 12.777344 25.351562 12.691406 25.269531 C 12.605469 25.195312 12.53125 25.097656 12.476562 25 C 12.417969 24.902344 12.378906 24.789062 12.355469 24.671875 C 12.335938 24.5625 12.332031 24.441406 12.347656 24.332031 C 12.363281 24.214844 12.398438 24.097656 12.453125 23.996094 C 12.5 23.898438 12.574219 23.792969 12.65625 23.714844 C 12.734375 23.632812 12.800781 23.5625 12.933594 23.511719 C 13.203125 23.421875 13.84375 23.324219 14.234375 23.433594 C 14.625 23.542969 15.03125 23.871094 15.285156 24.160156 C 15.503906 24.402344 15.660156 24.679688 15.742188 24.996094 C 15.847656 25.34375 15.867188 25.8125 15.804688 26.179688 C 15.75 26.507812 15.585938 26.800781 15.433594 27.09375 C 15.273438 27.402344 15.085938 27.71875 14.871094 27.980469 C 14.664062 28.238281 14.417969 28.464844 14.164062 28.652344 C 13.90625 28.839844 13.617188 29 13.3125 29.128906 C 12.996094 29.261719 12.613281 29.464844 12.277344 29.441406 C 11.941406 29.410156 11.664062 29.175781 11.292969 28.964844 C 10.769531 28.652344 9.988281 28.066406 9.46875 27.683594 C 9.070312 27.390625 8.722656 27.167969 8.4375 26.871094 C 8.179688 26.605469 8.113281 26.332031 7.8125 26.027344 C 7.34375 25.539062 6.445312 24.917969 5.730469 24.390625 C 5.015625 23.871094 4.09375 23.359375 3.527344 22.890625 C 3.125 22.554688 2.90625 22.304688 2.570312 21.929688 C 2.140625 21.460938 1.621094 20.691406 1.195312 20.257812 C 0.878906 19.941406 0.53125 19.789062 0.292969 19.507812 C 0.0664062 19.238281 -0.226562 18.9375 -0.222656 18.621094 C -0.214844 18.25 0.199219 17.546875 0.558594 17.394531 C 0.910156 17.253906 1.457031 17.523438 1.859375 17.667969 C 2.25 17.804688 2.542969 18 2.949219 18.226562 C 3.464844 18.519531 4.203125 18.945312 4.707031 19.304688 C 5.113281 19.597656 5.449219 19.890625 5.75 20.183594 C 6.019531 20.433594 6.1875 20.734375 6.445312 20.949219 C 6.695312 21.160156 6.976562 21.332031 7.265625 21.480469 C 7.558594 21.625 7.863281 21.753906 8.1875 21.828125 C 8.519531 21.898438 8.789062 21.894531 9.261719 21.90625 C 10.152344 21.929688 11.761719 21.84375 13.144531 21.851562 C 14.710938 21.851562 17.605469 21.839844 18.171875 21.949219 C 18.296875 21.972656 18.3125 21.984375 18.386719 22.027344 C 18.492188 22.089844 18.644531 22.207031 18.722656 22.328125 C 18.808594 22.449219 18.863281 22.625 18.886719 22.75 C 18.898438 22.835938 18.894531 22.902344 18.886719 22.976562 C 18.875 23.046875 18.863281 23.113281 18.832031 23.195312 C 18.777344 23.308594 18.660156 23.480469 18.578125 23.566406 C 18.515625 23.628906 18.464844 23.660156 18.386719 23.695312 C 18.277344 23.742188 17.949219 23.804688 17.949219 23.804688 " clip-rule="nonzero"/></clipPath><clipPath id="e95df14f18"><path d="M 9.121094 0 L 27.980469 0 L 27.980469 13.402344 L 9.121094 13.402344 Z M 9.121094 0 " clip-rule="nonzero"/></clipPath><clipPath id="f2f4926836"><path d="M 9.136719 10.238281 C 9.234375 8.890625 9.261719 8.902344 9.273438 8.882812 C 9.304688 8.8125 9.191406 8.5 9.179688 8.242188 C 9.15625 7.859375 9.210938 7.261719 9.21875 6.785156 C 9.222656 6.324219 9.148438 5.878906 9.21875 5.433594 C 9.285156 4.972656 9.527344 4.523438 9.652344 4.050781 C 9.773438 3.558594 9.777344 2.847656 9.945312 2.539062 C 10.03125 2.375 10.226562 2.320312 10.265625 2.210938 C 10.296875 2.136719 10.261719 2.066406 10.265625 1.996094 C 10.273438 1.949219 10.285156 1.90625 10.292969 1.855469 C 10.296875 1.816406 10.292969 1.753906 10.296875 1.714844 C 10.304688 1.691406 10.324219 1.675781 10.328125 1.648438 C 10.335938 1.632812 10.328125 1.605469 10.335938 1.582031 C 10.351562 1.546875 10.382812 1.496094 10.402344 1.453125 C 10.425781 1.410156 10.4375 1.355469 10.457031 1.324219 C 10.46875 1.300781 10.488281 1.289062 10.503906 1.269531 C 10.519531 1.246094 10.519531 1.226562 10.535156 1.203125 C 10.558594 1.171875 10.609375 1.144531 10.640625 1.105469 C 10.671875 1.074219 10.699219 1.027344 10.730469 1.003906 C 10.753906 0.984375 10.773438 0.976562 10.792969 0.960938 C 10.8125 0.949219 10.824219 0.929688 10.847656 0.910156 C 10.878906 0.894531 10.933594 0.875 10.976562 0.855469 C 11.019531 0.832031 11.0625 0.796875 11.097656 0.78125 C 11.121094 0.769531 11.148438 0.769531 11.164062 0.765625 C 11.1875 0.757812 11.207031 0.757812 11.226562 0.738281 C 11.273438 0.667969 11.152344 0.320312 11.273438 0.183594 C 11.480469 -0.0429688 12.402344 -0.0351562 12.800781 -0.0664062 C 13.050781 -0.0859375 13.222656 -0.0273438 13.410156 -0.0664062 C 13.59375 -0.0976562 13.691406 -0.1875 13.925781 -0.242188 C 14.375 -0.351562 15.347656 -0.425781 16.007812 -0.488281 C 16.597656 -0.546875 17.160156 -0.597656 17.699219 -0.617188 C 18.191406 -0.640625 18.625 -0.644531 19.121094 -0.628906 C 19.65625 -0.609375 20.253906 -0.578125 20.8125 -0.480469 C 21.386719 -0.382812 21.984375 -0.242188 22.515625 -0.0273438 C 23.027344 0.179688 23.527344 0.484375 23.960938 0.769531 C 24.359375 1.039062 24.640625 1.398438 25.03125 1.632812 C 25.425781 1.863281 25.898438 1.96875 26.335938 2.175781 C 26.792969 2.386719 27.460938 2.515625 27.714844 2.902344 C 27.972656 3.296875 28.046875 4.117188 27.84375 4.539062 C 27.65625 4.929688 27.082031 5.234375 26.628906 5.375 C 26.160156 5.519531 25.574219 5.378906 25.074219 5.378906 C 24.597656 5.378906 24.144531 5.324219 23.679688 5.378906 C 23.210938 5.441406 22.746094 5.648438 22.277344 5.753906 C 21.816406 5.851562 21.34375 5.867188 20.890625 5.976562 C 20.449219 6.082031 20.023438 6.199219 19.609375 6.375 C 19.175781 6.558594 18.710938 6.757812 18.34375 7.058594 C 17.972656 7.359375 17.726562 7.816406 17.386719 8.175781 C 17.03125 8.535156 16.617188 8.859375 16.25 9.214844 C 15.890625 9.554688 15.546875 9.898438 15.199219 10.265625 C 14.828125 10.648438 14.503906 11.191406 14.082031 11.472656 C 13.699219 11.730469 13.144531 11.96875 12.820312 11.941406 C 12.597656 11.929688 12.375 11.613281 12.292969 11.65625 C 12.226562 11.699219 12.300781 11.949219 12.292969 12.078125 C 12.289062 12.191406 12.28125 12.289062 12.25 12.394531 C 12.226562 12.492188 12.191406 12.597656 12.140625 12.6875 C 12.09375 12.777344 12.03125 12.871094 11.964844 12.949219 C 11.890625 13.03125 11.8125 13.101562 11.726562 13.15625 C 11.640625 13.21875 11.542969 13.269531 11.445312 13.304688 C 11.347656 13.347656 11.246094 13.371094 11.140625 13.382812 C 11.035156 13.394531 10.925781 13.394531 10.824219 13.382812 C 10.71875 13.371094 10.585938 13.335938 10.511719 13.304688 C 10.476562 13.292969 10.457031 13.273438 10.425781 13.261719 C 10.382812 13.242188 10.296875 13.230469 10.296875 13.230469 C 10.296875 13.230469 10.207031 13.183594 10.15625 13.15625 C 10.109375 13.132812 10.015625 13.085938 10.015625 13.085938 C 10.015625 13.085938 9.9375 13.015625 9.894531 12.980469 C 9.859375 12.945312 9.777344 12.875 9.777344 12.875 C 9.773438 12.875 9.71875 12.792969 9.6875 12.75 C 9.65625 12.707031 9.597656 12.621094 9.597656 12.621094 C 9.597656 12.613281 9.558594 12.523438 9.535156 12.472656 C 9.515625 12.425781 9.480469 12.328125 9.480469 12.328125 C 9.480469 12.328125 9.480469 12.328125 9.480469 12.320312 C 9.480469 12.320312 9.460938 11.839844 9.425781 11.546875 C 9.371094 11.167969 9.136719 10.238281 9.136719 10.238281 M 14.394531 4.652344 C 14.539062 4.480469 14.46875 4.480469 14.441406 4.5 C 14.414062 4.523438 14.394531 4.652344 14.394531 4.652344 " clip-rule="nonzero"/></clipPath><clipPath id="93e637a11e"><path d="M 13.164062 3.167969 L 15.742188 3.167969 L 15.742188 5.804688 L 13.164062 5.804688 Z M 13.164062 3.167969 " clip-rule="nonzero"/></clipPath><clipPath id="df962ae1ac"><path d="M 15.730469 4.089844 C 15.730469 4.921875 15.632812 5.128906 15.511719 5.292969 C 15.382812 5.453125 15.199219 5.59375 15.015625 5.679688 C 14.828125 5.765625 14.601562 5.808594 14.402344 5.796875 C 14.191406 5.78125 13.972656 5.710938 13.796875 5.605469 C 13.625 5.503906 13.460938 5.335938 13.355469 5.160156 C 13.246094 4.988281 13.179688 4.761719 13.167969 4.5625 C 13.15625 4.359375 13.199219 4.128906 13.285156 3.945312 C 13.363281 3.757812 13.507812 3.574219 13.667969 3.449219 C 13.828125 3.324219 14.039062 3.230469 14.242188 3.195312 C 14.441406 3.15625 14.675781 3.167969 14.871094 3.230469 C 15.058594 3.292969 15.40625 3.554688 15.40625 3.554688 " clip-rule="nonzero"/></clipPath><clipPath id="59d1e26332"><path d="M 9.09375 8.25 L 22.667969 8.25 L 22.667969 22.195312 L 9.09375 22.195312 Z M 9.09375 8.25 " clip-rule="nonzero"/></clipPath><clipPath id="6c12cfb0e6"><path d="M 15.878906 8.25 L 22.667969 13.554688 L 20.074219 22.140625 L 11.6875 22.140625 L 9.09375 13.554688 Z M 15.878906 8.25 " clip-rule="nonzero"/></clipPath><clipPath id="fdd2fac510"><path d="M 0.863281 0 L 21 0 L 21 27 L 0.863281 27 Z M 0.863281 0 " clip-rule="nonzero"/></clipPath><clipPath id="8352833810"><path d="M 10 3 L 38 3 L 38 31.515625 L 10 31.515625 Z M 10 3 " clip-rule="nonzero"/></clipPath><clipPath id="9c3bf75c36"><path d="M 1 9 L 30 9 L 30 31.515625 L 1 31.515625 Z M 1 9 " clip-rule="nonzero"/></clipPath><clipPath id="53753f4e57"><path d="M 0.863281 7 L 24 7 L 24 31 L 0.863281 31 Z M 0.863281 7 " clip-rule="nonzero"/></clipPath><clipPath id="834717edff"><path d="M 0.863281 0 L 46.46875 0 L 46.46875 31.515625 L 0.863281 31.515625 Z M 0.863281 0 " clip-rule="nonzero"/></clipPath><clipPath id="aee00c30dd"><path d="M 16.226562 -14.421875 C -0.441406 -14.421875 -13.953125 -0.910156 -13.953125 15.757812 C -13.953125 32.425781 -0.441406 45.9375 16.226562 45.9375 C 32.894531 45.9375 46.40625 32.425781 46.40625 15.757812 C 46.40625 -0.910156 32.894531 -14.421875 16.226562 -14.421875 Z M 16.226562 30.722656 C 7.960938 30.722656 1.261719 24.019531 1.261719 15.757812 C 1.261719 7.496094 7.960938 0.796875 16.226562 0.796875 C 24.488281 0.796875 31.1875 7.496094 31.1875 15.757812 C 31.1875 24.023438 24.488281 30.722656 16.226562 30.722656 Z M 16.226562 30.722656 " clip-rule="nonzero"/></clipPath></defs><g clip-path="url(#b9004d11b8)"><path fill="#ffffff" d="M 0.863281 0 L 96.148438 0 L 96.148438 31.515625 L 0.863281 31.515625 Z M 0.863281 0 " fill-opacity="1" fill-rule="nonzero"/><path fill="#ffffff" d="M 0.863281 0 L 96.148438 0 L 96.148438 31.515625 L 0.863281 31.515625 Z M 0.863281 0 " fill-opacity="1" fill-rule="nonzero"/></g><g clip-path="url(#4db4f3fbb9)"><g clip-path="url(#3e492bae61)"><path fill="#4298b4" d="M 16.273438 5.78125 L 32.285156 5.78125 L 32.285156 24.652344 L 16.273438 24.652344 Z M 16.273438 5.78125 " fill-opacity="1" fill-rule="nonzero"/></g></g><g clip-path="url(#d6081b4486)"><g clip-path="url(#cd5e829a0a)"><path fill="#4298b4" d="M 19.351562 8.664062 L 22.445312 8.664062 L 22.445312 11.757812 L 19.351562 11.757812 Z M 19.351562 8.664062 " fill-opacity="1" fill-rule="nonzero"/></g></g><g clip-path="url(#a2bffe75a6)"><g clip-path="url(#c993794640)"><path fill="#e4ae3a" d="M -0.390625 1.601562 L 12.90625 1.601562 L 12.90625 22.011719 L -0.390625 22.011719 Z M -0.390625 1.601562 " fill-opacity="1" fill-rule="nonzero"/></g></g><g clip-path="url(#5e88400d31)"><g clip-path="url(#1e3ac89216)"><path fill="#e4ae3a" d="M 6.261719 1.226562 L 11.769531 1.226562 L 11.769531 20.589844 L 6.261719 20.589844 Z M 6.261719 1.226562 " fill-opacity="1" fill-rule="nonzero"/></g></g><g clip-path="url(#188c2310c4)"><g clip-path="url(#b1349361f4)"><path fill="#33a474" d="M 14.015625 15.375 L 28.730469 15.375 L 28.730469 32.789062 L 14.015625 32.789062 Z M 14.015625 15.375 " fill-opacity="1" fill-rule="nonzero"/></g></g><g clip-path="url(#0c6c06d444)"><g clip-path="url(#fb3b5db7bd)"><path fill="#33a474" d="M 13.773438 29.792969 L 16.671875 29.792969 L 16.671875 32.234375 L 13.773438 32.234375 Z M 13.773438 29.792969 " fill-opacity="1" fill-rule="nonzero"/></g></g><g clip-path="url(#99d4dbfd06)"><g clip-path="url(#64c55949f8)"><g clip-path="url(#c9cdf41bc6)"><path fill="#33a474" d="M 18.820312 14.929688 L 24.335938 13.144531 L 27.210938 22.023438 L 21.695312 23.808594 Z M 18.820312 14.929688 " fill-opacity="1" fill-rule="nonzero"/></g></g></g><g clip-path="url(#04b04b6c11)"><g clip-path="url(#d30bd87f24)"><path fill="#f25e62" d="M -0.390625 19.136719 L 18.808594 19.136719 L 18.808594 31.675781 L -0.390625 31.675781 Z M -0.390625 19.136719 " fill-opacity="1" fill-rule="nonzero"/></g></g><g clip-path="url(#27da4bfbe5)"><g clip-path="url(#81af8967f6)"><path fill="#f25e62" d="M -0.464844 17.152344 L 19.117188 17.152344 L 19.117188 29.683594 L -0.464844 29.683594 Z M -0.464844 17.152344 " fill-opacity="1" fill-rule="nonzero"/></g></g><g clip-path="url(#e95df14f18)"><g clip-path="url(#f2f4926836)"><path fill="#88619a" d="M 8.894531 -0.871094 L 28.09375 -0.871094 L 28.09375 13.628906 L 8.894531 13.628906 Z M 8.894531 -0.871094 " fill-opacity="1" fill-rule="nonzero"/></g></g><g clip-path="url(#93e637a11e)"><g clip-path="url(#df962ae1ac)"><path fill="#88619a" d="M 12.921875 2.949219 L 16.019531 2.949219 L 16.019531 6.046875 L 12.921875 6.046875 Z M 12.921875 2.949219 " fill-opacity="1" fill-rule="nonzero"/></g></g><g clip-path="url(#59d1e26332)"><g clip-path="url(#6c12cfb0e6)"><path fill="#ffffff" d="M 9.09375 8.25 L 22.667969 8.25 L 22.667969 22.140625 L 9.09375 22.140625 Z M 9.09375 8.25 " fill-opacity="1" fill-rule="nonzero"/></g></g><g clip-path="url(#fdd2fac510)"><path stroke-linecap="butt" transform="matrix(0.00182745, 0.0592877, -0.0592877, 0.00182745, 11.687178, -0.0170082)" fill="none" stroke-linejoin="miter" d="M 6.115086 11.844935 C 96.022839 59.748311 193.996102 59.737407 300.098669 11.880079 " stroke="#ffffff" stroke-width="26" stroke-opacity="1" stroke-miterlimit="4"/></g><path stroke-linecap="butt" transform="matrix(-0.0562745, 0.0187497, -0.0187497, -0.0562745, 30.43808, 6.320674)" fill="none" stroke-linejoin="miter" d="M 6.131555 11.836738 C 96.019566 59.764124 193.981239 59.709184 300.099899 11.838506 " stroke="#ffffff" stroke-width="26" stroke-opacity="1" stroke-miterlimit="4"/><g clip-path="url(#8352833810)"><path stroke-linecap="butt" transform="matrix(-0.0346894, -0.0481147, 0.0481147, -0.0346894, 28.564424, 26.636788)" fill="none" stroke-linejoin="miter" d="M 6.145493 11.859894 C 95.994151 59.751658 193.977685 59.763147 300.042677 11.855849 " stroke="#ffffff" stroke-width="26" stroke-opacity="1" stroke-miterlimit="4"/></g><g clip-path="url(#9c3bf75c36)"><path stroke-linecap="butt" transform="matrix(0.0335761, -0.0488981, 0.0488981, 0.0335761, 9.875216, 32.259102)" fill="none" stroke-linejoin="miter" d="M 5.29333 11.858695 C 101.104799 54.713626 196.859418 54.788928 292.645497 11.864191 " stroke="#ffffff" stroke-width="26" stroke-opacity="1" stroke-miterlimit="4"/></g><g clip-path="url(#53753f4e57)"><path stroke-linecap="butt" transform="matrix(0.0555997, 0.0206651, -0.0206651, 0.0555997, 0.517099, 15.306935)" fill="none" stroke-linejoin="miter" d="M 7.252411 11.455866 C 79.532586 60.187153 161.443234 60.163987 252.94557 11.471041 " stroke="#ffffff" stroke-width="26" stroke-opacity="1" stroke-miterlimit="4"/></g><g clip-path="url(#834717edff)"><g clip-path="url(#aee00c30dd)"><path fill="#ffffff" d="M -14.261719 -14.726562 L 46.710938 -14.726562 L 46.710938 46.246094 L -14.261719 46.246094 Z M -14.261719 -14.726562 " fill-opacity="1" fill-rule="nonzero"/></g></g><g fill="#000000" fill-opacity="1"><g transform="translate(38.497168, 23.088067)"><g><path d="M 0.546875 -18.5625 L 16.71875 -18.5625 L 16.71875 -14.359375 L 0.546875 -14.359375 Z M 5.65625 -13.390625 L 5.515625 -13.53125 L 11.453125 -13.53125 L 11.453125 2.09375 L 5.90625 2.09375 L 5.90625 -5.375 C 5.90625 -7.9375 5.90625 -9.863281 5.90625 -11.15625 C 5.90625 -12.445312 5.894531 -13.113281 5.875 -13.15625 C 5.851562 -13.226562 5.78125 -13.304688 5.65625 -13.390625 Z M 5.65625 -13.390625 "/></g></g></g><g fill="#000000" fill-opacity="1"><g transform="translate(55.764143, 23.088067)"><g><path d="M 1.78125 -18.453125 L 1.5625 -18.5625 L 7.765625 -18.5625 L 7.765625 2.09375 L 2.203125 2.09375 L 2.203125 -17.921875 L 2.109375 -18.125 C 2.035156 -18.269531 1.925781 -18.378906 1.78125 -18.453125 Z M 1.78125 -18.453125 "/></g></g></g><g fill="#000000" fill-opacity="1"><g transform="translate(65.591768, 23.088067)"><g><path d="M 1.59375 -18.5 C 1.570312 -18.5 1.597656 -18.507812 1.671875 -18.53125 C 1.765625 -18.550781 2.039062 -18.5625 2.5 -18.5625 C 2.957031 -18.5625 3.625 -18.5625 4.5 -18.5625 L 7.546875 -18.5625 L 7.546875 2.09375 L 2.09375 2.09375 L 2.09375 -7.859375 C 2.09375 -11.179688 2.085938 -13.675781 2.078125 -15.34375 C 2.066406 -17.007812 2.050781 -17.878906 2.03125 -17.953125 C 1.976562 -18.191406 1.832031 -18.375 1.59375 -18.5 Z M 8.265625 -18.5625 L 10.296875 -18.5625 C 10.828125 -18.5625 11.269531 -18.5625 11.625 -18.5625 C 11.976562 -18.5625 12.257812 -18.550781 12.46875 -18.53125 C 12.644531 -18.507812 12.820312 -18.484375 13 -18.453125 C 13.1875 -18.429688 13.375 -18.382812 13.5625 -18.3125 C 14.050781 -18.1875 14.523438 -17.976562 14.984375 -17.6875 C 15.441406 -17.40625 15.859375 -17.070312 16.234375 -16.6875 C 16.609375 -16.300781 16.929688 -15.875 17.203125 -15.40625 C 17.484375 -14.945312 17.695312 -14.476562 17.84375 -14 C 18.375 -12.3125 18.253906 -10.703125 17.484375 -9.171875 C 17.046875 -8.296875 16.457031 -7.5625 15.71875 -6.96875 C 14.988281 -6.382812 14.160156 -5.957031 13.234375 -5.6875 C 12.578125 -5.519531 11.476562 -5.4375 9.9375 -5.4375 L 8.265625 -5.4375 L 8.265625 -9.3125 L 9.359375 -9.328125 C 10.054688 -9.328125 10.492188 -9.347656 10.671875 -9.390625 C 11.921875 -9.804688 12.5 -10.75 12.40625 -12.21875 C 12.351562 -13.238281 11.960938 -13.894531 11.234375 -14.1875 C 11.066406 -14.257812 10.523438 -14.296875 9.609375 -14.296875 L 8.265625 -14.296875 Z M 8.265625 -18.5625 "/></g></g></g><g fill="#000000" fill-opacity="1"><g transform="translate(84.505832, 23.088067)"><g><path d="M 1.78125 -18.453125 L 1.5625 -18.5625 L 7.765625 -18.5625 L 7.765625 2.09375 L 2.203125 2.09375 L 2.203125 -17.921875 L 2.109375 -18.125 C 2.035156 -18.269531 1.925781 -18.378906 1.78125 -18.453125 Z M 1.78125 -18.453125 "/></g></g></g></svg>