<svg xmlns="http://www.w3.org/2000/svg" xmlns:xlink="http://www.w3.org/1999/xlink" width="115" zoomAndPan="magnify" viewBox="0 0 86.25 32.249999" height="43" preserveAspectRatio="xMidYMid meet" version="1.0"><defs><g/><clipPath id="9d35df7175"><path d="M 0.613281 0 L 38.105469 0 L 38.105469 31.515625 L 0.613281 31.515625 Z M 0.613281 0 " clip-rule="nonzero"/></clipPath><clipPath id="b4a74d03a6"><path d="M 25.972656 34.15625 C 0.246094 34.886719 -0.339844 34.375 -0.777344 33.570312 C -1.367188 32.617188 -1.585938 30.785156 -1.292969 29.757812 C -1 28.878906 -0.265625 28.070312 0.6875 27.558594 C 1.933594 26.898438 4.425781 26.753906 5.816406 26.972656 C 6.917969 27.046875 7.941406 27.484375 8.601562 28 C 9.1875 28.4375 9.554688 28.953125 9.777344 29.613281 C 9.996094 30.417969 10.070312 31.738281 9.777344 32.617188 C 9.554688 33.277344 9.117188 33.789062 8.675781 34.230469 C 8.164062 34.667969 7.648438 34.960938 6.917969 35.183594 C 5.746094 35.476562 3.546875 35.621094 2.078125 35.328125 C 0.832031 35.109375 -0.558594 34.667969 -1.367188 33.789062 C -2.246094 32.910156 -2.613281 31.371094 -2.90625 30.125 C -3.269531 28.804688 -3.199219 28 -3.269531 26.167969 C -3.492188 21.769531 -4.078125 8.429688 -3.785156 4.105469 C -3.636719 2.273438 -3.785156 1.246094 -3.125 0.21875 C -2.464844 -0.804688 -0.777344 -1.757812 0.246094 -1.90625 C 1.054688 -2.125 1.714844 -1.90625 2.300781 -1.613281 C 3.105469 -1.246094 3.910156 -0.660156 4.570312 0.511719 C 5.964844 3.003906 7.0625 10.261719 7.648438 14.367188 C 8.164062 17.589844 8.675781 20.15625 8.457031 23.015625 C 8.238281 25.875 7.210938 31.515625 6.476562 31.515625 C 5.964844 31.589844 4.351562 28.660156 4.9375 27.707031 C 6.402344 25.285156 24.066406 24.40625 28.539062 25.285156 C 30.519531 25.652344 31.179688 27.046875 32.496094 27.339844 C 33.523438 27.484375 34.621094 26.605469 35.503906 27.046875 C 36.527344 27.484375 37.847656 29.097656 37.996094 30.269531 C 38.214844 31.515625 37.480469 33.347656 36.675781 34.230469 C 36.089844 34.960938 35.0625 35.328125 34.183594 35.402344 C 33.304688 35.476562 32.203125 35.328125 31.398438 34.816406 C 30.445312 34.15625 29.34375 32.46875 29.273438 31.296875 C 29.199219 30.050781 30.152344 28.292969 31.03125 27.558594 C 31.691406 26.898438 32.789062 26.605469 33.667969 26.605469 C 34.550781 26.605469 35.648438 26.898438 36.308594 27.484375 C 37.1875 28.292969 38.066406 30.125 38.066406 31.222656 C 38.066406 32.175781 37.628906 33.203125 37.042969 33.863281 C 36.457031 34.523438 35.648438 35.183594 34.621094 35.328125 C 33.011719 35.621094 30.882812 34.15625 28.171875 34.082031 C 23.847656 33.789062 15.785156 35.546875 11.023438 35.621094 C 7.722656 35.695312 4.71875 36.132812 2.519531 35.183594 C 0.613281 34.375 -1.292969 32.910156 -1.804688 31.152344 C -2.464844 29.097656 -0.339844 25.726562 -0.121094 23.601562 C 0.0273438 22.0625 0.0273438 21.328125 -0.191406 19.570312 C -0.558594 15.757812 -4.003906 5.496094 -3.710938 2.199219 C -3.5625 0.804688 -3.125 0.0742188 -2.464844 -0.585938 C -1.804688 -1.320312 -0.707031 -1.90625 0.246094 -1.90625 C 1.417969 -1.980469 3.253906 -1.171875 3.984375 -0.367188 C 4.644531 0.367188 4.71875 1.097656 4.9375 2.566406 C 5.746094 6.890625 7.355469 27.777344 5.378906 28.878906 C 4.570312 29.316406 2.007812 27.191406 2.078125 26.898438 C 2.226562 26.53125 6.476562 26.753906 7.796875 27.414062 C 8.75 27.925781 9.410156 28.878906 9.777344 29.613281 C 10.070312 30.269531 10.070312 30.929688 9.996094 31.589844 C 9.921875 32.25 9.777344 32.910156 9.335938 33.496094 C 8.824219 34.15625 7.941406 34.816406 6.917969 35.183594 C 5.523438 35.621094 2.960938 35.695312 1.640625 35.253906 C 0.613281 34.960938 -0.339844 34.375 -0.777344 33.570312 C -1.367188 32.617188 -1.660156 30.785156 -1.292969 29.757812 C -0.851562 28.660156 0.0273438 27.851562 1.640625 27.191406 C 5.597656 25.652344 21.574219 26.167969 25.535156 26.679688 C 26.78125 26.898438 27.367188 26.972656 28.027344 27.484375 C 28.6875 28 29.34375 28.878906 29.417969 29.757812 C 29.566406 30.710938 29.050781 32.324219 28.394531 33.054688 C 27.878906 33.714844 25.972656 34.15625 25.972656 34.15625 " clip-rule="nonzero"/></clipPath><clipPath id="080065e27d"><path d="M 17.453125 6.621094 L 31.992188 6.621094 L 31.992188 23.945312 L 17.453125 23.945312 Z M 17.453125 6.621094 " clip-rule="nonzero"/></clipPath><clipPath id="ef7d0c355c"><path d="M 17.453125 10.835938 C 17.46875 10.441406 17.496094 10.347656 17.53125 10.253906 C 17.570312 10.164062 17.628906 10.0625 17.675781 9.992188 C 17.714844 9.949219 17.777344 9.917969 17.78125 9.878906 C 17.789062 9.84375 17.730469 9.828125 17.738281 9.777344 C 17.753906 9.589844 18.285156 8.84375 18.648438 8.546875 C 18.980469 8.273438 19.378906 8.175781 19.792969 8 C 20.273438 7.792969 21.050781 7.503906 21.367188 7.417969 C 21.496094 7.382812 21.546875 7.40625 21.644531 7.371094 C 21.769531 7.332031 21.863281 7.242188 22.039062 7.179688 C 22.339844 7.074219 22.898438 6.972656 23.34375 6.929688 C 23.796875 6.882812 24.269531 6.921875 24.726562 6.921875 C 25.160156 6.921875 25.582031 6.949219 26.015625 6.921875 C 26.449219 6.898438 26.886719 6.808594 27.320312 6.769531 C 27.734375 6.726562 28.144531 6.695312 28.566406 6.675781 C 29.003906 6.664062 29.699219 6.675781 29.894531 6.675781 C 29.945312 6.675781 29.957031 6.675781 29.996094 6.675781 C 30.035156 6.683594 30.09375 6.6875 30.140625 6.695312 C 30.191406 6.699219 30.289062 6.710938 30.289062 6.710938 C 30.289062 6.71875 30.378906 6.75 30.425781 6.769531 C 30.46875 6.785156 30.5625 6.820312 30.5625 6.820312 C 30.566406 6.820312 30.648438 6.875 30.6875 6.90625 C 30.726562 6.929688 30.804688 6.984375 30.804688 6.984375 C 30.804688 6.984375 30.875 7.058594 30.902344 7.097656 C 30.9375 7.132812 31 7.207031 31 7.207031 C 31.003906 7.207031 31.003906 7.207031 31.003906 7.207031 C 31.003906 7.207031 31.050781 7.292969 31.074219 7.339844 C 31.097656 7.382812 31.136719 7.46875 31.140625 7.46875 C 31.140625 7.46875 31.164062 7.566406 31.175781 7.613281 C 31.1875 7.65625 31.210938 7.753906 31.210938 7.753906 C 31.210938 7.757812 31.210938 7.855469 31.210938 7.902344 C 31.210938 7.953125 31.210938 8.050781 31.210938 8.050781 C 31.210938 8.050781 31.1875 8.148438 31.175781 8.191406 C 31.164062 8.242188 31.140625 8.335938 31.140625 8.335938 C 31.136719 8.339844 31.097656 8.425781 31.074219 8.464844 C 31.050781 8.511719 31.003906 8.597656 31.003906 8.597656 C 31 8.601562 30.9375 8.671875 30.902344 8.710938 C 30.875 8.746094 30.804688 8.820312 30.804688 8.820312 C 30.804688 8.820312 30.726562 8.875 30.6875 8.90625 C 30.648438 8.933594 30.566406 8.984375 30.5625 8.992188 C 30.5625 8.992188 30.46875 9.023438 30.425781 9.042969 C 30.378906 9.058594 30.289062 9.09375 30.289062 9.09375 C 30.289062 9.09375 30.214844 9.082031 30.207031 9.105469 C 30.179688 9.179688 30.71875 9.703125 30.9375 10.042969 C 31.164062 10.414062 31.398438 10.824219 31.53125 11.257812 C 31.667969 11.703125 31.679688 12.214844 31.710938 12.695312 C 31.75 13.167969 31.75 13.589844 31.769531 14.113281 C 31.785156 14.753906 31.785156 15.578125 31.808594 16.269531 C 31.832031 16.921875 31.878906 17.542969 31.894531 18.152344 C 31.917969 18.726562 31.980469 19.324219 31.941406 19.835938 C 31.898438 20.277344 31.804688 20.617188 31.707031 21.058594 C 31.597656 21.570312 31.507812 22.242188 31.3125 22.730469 C 31.148438 23.148438 31.011719 23.683594 30.675781 23.832031 C 30.292969 24.003906 29.4375 23.785156 29.039062 23.488281 C 28.660156 23.199219 28.554688 22.542969 28.3125 22.097656 C 28.078125 21.679688 27.832031 21.277344 27.597656 20.878906 C 27.371094 20.492188 27.160156 20.140625 26.933594 19.734375 C 26.679688 19.289062 26.4375 18.773438 26.164062 18.328125 C 25.914062 17.90625 25.667969 17.5 25.371094 17.144531 C 25.082031 16.785156 24.710938 16.511719 24.398438 16.175781 C 24.082031 15.832031 23.804688 15.421875 23.484375 15.09375 C 23.1875 14.777344 22.921875 14.449219 22.554688 14.226562 C 22.179688 14 21.695312 13.945312 21.261719 13.769531 C 20.808594 13.582031 20.289062 13.410156 19.890625 13.132812 C 19.503906 12.863281 19.054688 12.367188 18.886719 12.148438 C 18.820312 12.054688 18.820312 11.953125 18.769531 11.925781 C 18.734375 11.902344 18.695312 11.9375 18.648438 11.9375 C 18.570312 11.9375 18.449219 11.917969 18.351562 11.894531 C 18.261719 11.867188 18.164062 11.832031 18.078125 11.78125 C 17.992188 11.734375 17.914062 11.679688 17.839844 11.609375 C 17.769531 11.542969 17.703125 11.46875 17.652344 11.390625 C 17.59375 11.304688 17.546875 11.210938 17.515625 11.121094 C 17.484375 11.03125 17.453125 10.835938 17.453125 10.835938 M 21.046875 10.675781 C 21.285156 10.796875 21.378906 10.367188 21.332031 10.339844 C 21.304688 10.316406 21.171875 10.414062 21.125 10.476562 C 21.082031 10.535156 21.046875 10.675781 21.046875 10.675781 " clip-rule="nonzero"/></clipPath><clipPath id="589890eab7"><path d="M 20.320312 9.339844 L 22.722656 9.339844 L 22.722656 11.800781 L 20.320312 11.800781 Z M 20.320312 9.339844 " clip-rule="nonzero"/></clipPath><clipPath id="25bb9620e7"><path d="M 22.714844 10.203125 C 22.714844 10.980469 22.628906 11.179688 22.511719 11.324219 C 22.398438 11.472656 22.226562 11.609375 22.050781 11.683594 C 21.878906 11.765625 21.660156 11.804688 21.472656 11.792969 C 21.285156 11.78125 21.074219 11.71875 20.914062 11.617188 C 20.75 11.519531 20.597656 11.367188 20.5 11.207031 C 20.402344 11.042969 20.335938 10.835938 20.324219 10.640625 C 20.3125 10.453125 20.351562 10.238281 20.429688 10.066406 C 20.511719 9.894531 20.640625 9.726562 20.789062 9.605469 C 20.945312 9.492188 21.144531 9.402344 21.324219 9.367188 C 21.515625 9.332031 21.730469 9.34375 21.914062 9.402344 C 22.09375 9.457031 22.414062 9.703125 22.414062 9.703125 " clip-rule="nonzero"/></clipPath><clipPath id="2684aca01f"><path d="M 1.863281 2.742188 L 13.886719 2.742188 L 13.886719 21.402344 L 1.863281 21.402344 Z M 1.863281 2.742188 " clip-rule="nonzero"/></clipPath><clipPath id="d7ae0dd554"><path d="M 1.898438 13.292969 C 2.378906 11.519531 2.863281 11.183594 3.191406 10.824219 C 3.488281 10.496094 3.800781 10.210938 4.046875 9.863281 C 4.296875 9.515625 4.433594 9.144531 4.691406 8.726562 C 5.015625 8.203125 5.476562 7.515625 5.859375 6.980469 C 6.195312 6.5 6.582031 6.078125 6.84375 5.644531 C 7.070312 5.269531 7.167969 4.90625 7.378906 4.535156 C 7.605469 4.125 7.8125 3.578125 8.1875 3.289062 C 8.574219 2.984375 9.269531 2.679688 9.691406 2.773438 C 10.085938 2.867188 10.519531 3.332031 10.667969 3.71875 C 10.820312 4.128906 10.636719 4.71875 10.542969 5.191406 C 10.449219 5.664062 10.199219 6.097656 10.097656 6.558594 C 10 7.011719 9.953125 7.484375 9.925781 7.941406 C 9.898438 8.386719 9.902344 8.8125 9.921875 9.257812 C 9.9375 9.703125 10.003906 10.152344 10.035156 10.597656 C 10.058594 11.019531 10.046875 11.433594 10.074219 11.851562 C 10.097656 12.261719 10.097656 12.664062 10.1875 13.074219 C 10.277344 13.515625 10.542969 13.941406 10.644531 14.398438 C 10.742188 14.863281 10.679688 15.398438 10.78125 15.859375 C 10.878906 16.292969 11.082031 16.679688 11.207031 17.089844 C 11.332031 17.496094 11.457031 18.03125 11.539062 18.304688 C 11.578125 18.449219 11.5625 18.550781 11.636719 18.625 C 11.710938 18.699219 11.839844 18.699219 11.988281 18.738281 C 12.226562 18.804688 12.699219 18.890625 12.917969 18.960938 C 13.035156 18.996094 13.109375 19.015625 13.195312 19.0625 C 13.28125 19.109375 13.367188 19.164062 13.441406 19.226562 C 13.515625 19.296875 13.582031 19.371094 13.632812 19.449219 C 13.691406 19.53125 13.742188 19.621094 13.777344 19.710938 C 13.8125 19.804688 13.835938 19.898438 13.851562 19.996094 C 13.863281 20.09375 13.863281 20.195312 13.851562 20.292969 C 13.839844 20.390625 13.816406 20.488281 13.78125 20.578125 C 13.75 20.667969 13.703125 20.761719 13.644531 20.839844 C 13.589844 20.921875 13.527344 21 13.453125 21.0625 C 13.378906 21.132812 13.296875 21.1875 13.214844 21.234375 C 13.121094 21.277344 13.03125 21.3125 12.933594 21.339844 C 12.84375 21.363281 12.742188 21.375 12.644531 21.375 C 12.546875 21.375 12.347656 21.339844 12.347656 21.339844 C 12.347656 21.339844 11.65625 21.183594 11.417969 21.121094 C 11.269531 21.078125 11.214844 21.011719 11.058594 21.015625 C 10.804688 21.015625 10.386719 21.3125 10.023438 21.339844 C 9.625 21.371094 9.167969 21.222656 8.753906 21.140625 C 8.34375 21.066406 7.925781 21.027344 7.53125 20.890625 C 7.132812 20.753906 6.753906 20.542969 6.382812 20.3125 C 6 20.078125 5.636719 19.773438 5.277344 19.488281 C 4.929688 19.210938 4.582031 18.925781 4.257812 18.628906 C 3.9375 18.339844 3.652344 18.027344 3.339844 17.734375 C 3.03125 17.449219 2.566406 17.269531 2.398438 16.902344 C 2.21875 16.511719 2.234375 15.640625 2.371094 15.429688 C 2.441406 15.324219 2.640625 15.375 2.660156 15.308594 C 2.691406 15.21875 2.472656 15.074219 2.382812 14.875 C 2.210938 14.523438 1.898438 13.292969 1.898438 13.292969 " clip-rule="nonzero"/></clipPath><clipPath id="bbf235f1f8"><path d="M 8.101562 2.398438 L 12.796875 2.398438 L 12.796875 20.042969 L 8.101562 20.042969 Z M 8.101562 2.398438 " clip-rule="nonzero"/></clipPath><clipPath id="887fd891a1"><path d="M 10.421875 11.714844 C 11.949219 16.617188 12.613281 17.996094 12.75 18.574219 C 12.804688 18.796875 12.804688 18.890625 12.792969 19.046875 C 12.78125 19.199219 12.757812 19.363281 12.6875 19.5 C 12.621094 19.632812 12.488281 19.773438 12.394531 19.855469 C 12.320312 19.910156 12.257812 19.941406 12.1875 19.96875 C 12.113281 19.996094 12.050781 20.019531 11.960938 20.03125 C 11.835938 20.039062 11.625 20.019531 11.5 19.984375 C 11.414062 19.957031 11.363281 19.933594 11.292969 19.878906 C 11.191406 19.804688 11.042969 19.648438 10.972656 19.542969 C 10.929688 19.46875 10.917969 19.4375 10.890625 19.324219 C 10.773438 18.925781 10.585938 17.296875 10.457031 16.601562 C 10.371094 16.175781 10.320312 15.933594 10.214844 15.566406 C 10.101562 15.125 9.988281 14.703125 9.773438 14.152344 C 9.429688 13.296875 8.488281 11.78125 8.257812 10.996094 C 8.125 10.570312 8.125 10.285156 8.109375 9.949219 C 8.089844 9.644531 8.109375 9.382812 8.132812 9.070312 C 8.160156 8.699219 8.222656 8.238281 8.285156 7.875 C 8.34375 7.566406 8.394531 7.328125 8.488281 7.011719 C 8.609375 6.632812 8.894531 6.152344 8.980469 5.769531 C 9.054688 5.457031 8.996094 5.203125 9.042969 4.898438 C 9.09375 4.574219 9.238281 4.210938 9.269531 3.898438 C 9.304688 3.640625 9.238281 3.34375 9.269531 3.171875 C 9.289062 3.078125 9.3125 3.023438 9.355469 2.953125 C 9.425781 2.835938 9.542969 2.683594 9.667969 2.59375 C 9.800781 2.507812 9.988281 2.449219 10.121094 2.425781 C 10.203125 2.410156 10.269531 2.410156 10.359375 2.425781 C 10.484375 2.449219 10.6875 2.53125 10.804688 2.597656 C 10.878906 2.644531 10.921875 2.683594 10.980469 2.757812 C 11.058594 2.859375 11.164062 3.054688 11.195312 3.179688 C 11.226562 3.265625 11.242188 3.308594 11.226562 3.417969 C 11.195312 3.644531 10.941406 4.140625 10.785156 4.472656 C 10.636719 4.769531 10.425781 5.128906 10.320312 5.308594 C 10.261719 5.402344 10.25 5.441406 10.1875 5.507812 C 10.097656 5.605469 9.949219 5.738281 9.804688 5.792969 C 9.664062 5.855469 9.488281 5.878906 9.332031 5.867188 C 9.179688 5.855469 9.007812 5.800781 8.878906 5.714844 C 8.753906 5.628906 8.625 5.503906 8.554688 5.367188 C 8.472656 5.230469 8.433594 5.035156 8.421875 4.90625 C 8.410156 4.8125 8.425781 4.746094 8.445312 4.667969 C 8.460938 4.585938 8.511719 4.4375 8.519531 4.4375 C 8.53125 4.445312 8.425781 4.910156 8.421875 4.910156 C 8.417969 4.910156 8.433594 4.695312 8.460938 4.59375 C 8.488281 4.488281 8.542969 4.386719 8.605469 4.300781 C 8.660156 4.210938 8.742188 4.128906 8.828125 4.066406 C 8.910156 4.003906 9.015625 3.953125 9.117188 3.917969 C 9.21875 3.890625 9.328125 3.875 9.4375 3.875 C 9.542969 3.875 9.652344 3.898438 9.753906 3.929688 C 9.851562 3.972656 9.953125 4.023438 10.035156 4.089844 C 10.121094 4.152344 10.199219 4.238281 10.257812 4.324219 C 10.3125 4.414062 10.359375 4.519531 10.386719 4.621094 C 10.410156 4.722656 10.421875 4.835938 10.414062 4.945312 C 10.410156 5.046875 10.382812 5.160156 10.339844 5.257812 C 10.300781 5.355469 10.238281 5.453125 10.171875 5.53125 C 10.101562 5.613281 10.011719 5.6875 9.921875 5.738281 C 9.828125 5.789062 9.722656 5.835938 9.617188 5.851562 C 9.515625 5.875 9.402344 5.878906 9.292969 5.863281 C 9.191406 5.851562 9.082031 5.816406 8.984375 5.769531 C 8.890625 5.726562 8.796875 5.664062 8.722656 5.589844 C 8.644531 5.515625 8.574219 5.421875 8.53125 5.328125 C 8.480469 5.230469 8.445312 5.121094 8.433594 5.019531 C 8.417969 4.910156 8.417969 4.804688 8.4375 4.695312 C 8.457031 4.59375 8.496094 4.484375 8.546875 4.394531 C 8.597656 4.296875 8.667969 4.210938 8.746094 4.136719 C 8.820312 4.066406 8.917969 4.003906 9.015625 3.960938 C 9.109375 3.917969 9.21875 3.890625 9.328125 3.878906 C 9.4375 3.867188 9.542969 3.878906 9.652344 3.902344 C 9.753906 3.925781 9.859375 3.972656 9.949219 4.027344 C 10.039062 4.085938 10.125 4.160156 10.195312 4.238281 C 10.257812 4.324219 10.324219 4.398438 10.351562 4.519531 C 10.398438 4.710938 10.398438 5.105469 10.320312 5.308594 C 10.257812 5.46875 10.136719 5.582031 10.011719 5.675781 C 9.890625 5.765625 9.726562 5.839844 9.574219 5.863281 C 9.417969 5.886719 9.242188 5.867188 9.09375 5.816406 C 8.953125 5.769531 8.792969 5.652344 8.695312 5.5625 C 8.625 5.496094 8.59375 5.453125 8.554688 5.367188 C 8.496094 5.246094 8.425781 5.070312 8.421875 4.90625 C 8.417969 4.722656 8.460938 4.523438 8.558594 4.320312 C 8.695312 4.035156 9.117188 3.675781 9.242188 3.414062 C 9.320312 3.242188 9.304688 3.066406 9.355469 2.953125 C 9.394531 2.867188 9.429688 2.816406 9.492188 2.75 C 9.585938 2.660156 9.738281 2.535156 9.886719 2.484375 C 10.027344 2.425781 10.203125 2.410156 10.359375 2.425781 C 10.507812 2.445312 10.6875 2.53125 10.804688 2.597656 C 10.878906 2.644531 10.921875 2.683594 10.980469 2.757812 C 11.058594 2.859375 11.15625 2.996094 11.195312 3.179688 C 11.265625 3.464844 11.203125 3.949219 11.167969 4.335938 C 11.132812 4.730469 11.09375 5.042969 10.992188 5.507812 C 10.824219 6.246094 10.332031 7.421875 10.164062 8.273438 C 10.023438 8.972656 9.878906 9.683594 9.960938 10.226562 C 10.015625 10.625 10.203125 10.851562 10.382812 11.242188 C 10.625 11.78125 11.058594 12.5 11.320312 13.148438 C 11.582031 13.792969 11.761719 14.402344 11.964844 15.125 C 12.210938 15.988281 12.523438 17.269531 12.660156 17.992188 C 12.742188 18.425781 12.804688 18.773438 12.792969 19.046875 C 12.78125 19.226562 12.742188 19.382812 12.6875 19.5 C 12.65625 19.582031 12.625 19.632812 12.5625 19.695312 C 12.472656 19.785156 12.300781 19.910156 12.1875 19.96875 C 12.109375 20.007812 12.039062 20.019531 11.960938 20.03125 C 11.886719 20.042969 11.816406 20.046875 11.726562 20.039062 C 11.601562 20.015625 11.417969 19.964844 11.292969 19.878906 C 11.167969 19.796875 11.042969 19.648438 10.972656 19.542969 C 10.929688 19.46875 10.910156 19.417969 10.890625 19.324219 C 10.84375 19.160156 10.859375 18.9375 10.785156 18.636719 C 10.625 18.019531 9.976562 16.597656 9.785156 15.890625 C 9.664062 15.457031 9.679688 15.164062 9.578125 14.828125 C 9.480469 14.511719 9.320312 14.28125 9.203125 13.917969 C 9.03125 13.40625 8.734375 12.324219 8.707031 12.003906 C 8.695312 11.894531 8.699219 11.867188 8.722656 11.792969 C 8.753906 11.679688 8.816406 11.515625 8.902344 11.410156 C 8.984375 11.304688 9.132812 11.207031 9.230469 11.15625 C 9.304688 11.121094 9.355469 11.105469 9.4375 11.097656 C 9.550781 11.085938 9.742188 11.097656 9.851562 11.125 C 9.929688 11.148438 9.988281 11.179688 10.046875 11.21875 C 10.101562 11.253906 10.160156 11.285156 10.210938 11.347656 C 10.285156 11.433594 10.421875 11.714844 10.421875 11.714844 " clip-rule="nonzero"/></clipPath><clipPath id="22d74321ac"><path d="M 15.332031 15.613281 L 28.683594 15.613281 L 28.683594 31.488281 L 15.332031 31.488281 Z M 15.332031 15.613281 " clip-rule="nonzero"/></clipPath><clipPath id="aa10f3258f"><path d="M 15.34375 30.199219 C 16.097656 28.410156 16.335938 28.085938 16.621094 27.789062 C 16.90625 27.488281 17.304688 27.289062 17.613281 27 C 17.914062 26.703125 18.191406 26.371094 18.453125 26.03125 C 18.714844 25.6875 18.960938 25.308594 19.191406 24.929688 C 19.410156 24.5625 19.632812 24.179688 19.804688 23.78125 C 19.976562 23.398438 20.078125 22.992188 20.210938 22.601562 C 20.339844 22.195312 20.5 21.804688 20.597656 21.394531 C 20.6875 20.988281 20.726562 20.578125 20.773438 20.164062 C 20.824219 19.734375 20.6875 19.195312 20.886719 18.851562 C 21.082031 18.511719 21.976562 18.257812 21.964844 18.113281 C 21.957031 18.03125 21.746094 18.007812 21.652344 17.957031 C 21.558594 17.90625 21.472656 17.859375 21.398438 17.796875 C 21.324219 17.734375 21.257812 17.660156 21.195312 17.582031 C 21.136719 17.5 21.085938 17.417969 21.050781 17.324219 C 21.011719 17.234375 20.984375 17.136719 20.96875 17.039062 C 20.957031 16.945312 20.949219 16.847656 20.960938 16.75 C 20.96875 16.648438 20.988281 16.550781 21.019531 16.460938 C 21.050781 16.367188 21.097656 16.277344 21.148438 16.191406 C 21.199219 16.113281 21.261719 16.03125 21.335938 15.964844 C 21.40625 15.894531 21.492188 15.839844 21.570312 15.785156 C 21.65625 15.742188 21.753906 15.703125 21.84375 15.671875 C 21.941406 15.648438 22.039062 15.632812 22.136719 15.628906 C 22.238281 15.628906 22.335938 15.632812 22.429688 15.65625 C 22.527344 15.671875 22.710938 15.746094 22.710938 15.746094 C 22.710938 15.746094 23.039062 15.878906 23.257812 16.007812 C 23.621094 16.238281 24.261719 16.699219 24.628906 17.082031 C 24.949219 17.417969 25.109375 17.804688 25.382812 18.152344 C 25.660156 18.503906 26.015625 18.804688 26.28125 19.183594 C 26.566406 19.574219 26.761719 20.046875 27.035156 20.464844 C 27.308594 20.886719 27.695312 21.261719 27.921875 21.683594 C 28.140625 22.082031 28.304688 22.5 28.386719 22.914062 C 28.464844 23.320312 28.386719 23.742188 28.425781 24.152344 C 28.464844 24.5625 28.691406 25.046875 28.617188 25.390625 C 28.554688 25.675781 28.214844 25.882812 28.140625 26.117188 C 28.082031 26.296875 28.21875 26.480469 28.132812 26.65625 C 27.996094 26.949219 27.445312 27.386719 27.085938 27.523438 C 26.796875 27.632812 26.453125 27.464844 26.203125 27.5625 C 25.976562 27.648438 25.839844 27.847656 25.617188 28.011719 C 25.320312 28.234375 24.949219 28.546875 24.597656 28.777344 C 24.25 29.003906 23.902344 29.199219 23.515625 29.378906 C 23.085938 29.574219 22.601562 29.726562 22.128906 29.886719 C 21.644531 30.058594 21.125 30.183594 20.636719 30.367188 C 20.152344 30.554688 19.691406 30.816406 19.210938 31 C 18.746094 31.175781 18.304688 31.390625 17.804688 31.441406 C 17.265625 31.496094 16.496094 31.5 16.074219 31.253906 C 15.714844 31.039062 15.34375 30.199219 15.34375 30.199219 " clip-rule="nonzero"/></clipPath><clipPath id="c1f0575fbb"><path d="M 15.109375 29.070312 L 17.371094 29.070312 L 17.371094 30.914062 L 15.109375 30.914062 Z M 15.109375 29.070312 " clip-rule="nonzero"/></clipPath><clipPath id="49e4e65286"><path d="M 16.699219 30.757812 C 15.777344 30.902344 15.707031 30.867188 15.625 30.832031 C 15.539062 30.792969 15.457031 30.742188 15.390625 30.679688 C 15.320312 30.617188 15.257812 30.535156 15.21875 30.457031 C 15.171875 30.378906 15.140625 30.28125 15.128906 30.195312 C 15.109375 30.105469 15.109375 30 15.121094 29.910156 C 15.140625 29.820312 15.167969 29.726562 15.207031 29.648438 C 15.253906 29.5625 15.308594 29.488281 15.378906 29.421875 C 15.441406 29.359375 15.519531 29.300781 15.605469 29.261719 C 15.691406 29.222656 15.78125 29.199219 15.875 29.1875 C 15.964844 29.175781 16.0625 29.179688 16.152344 29.199219 C 16.242188 29.214844 16.335938 29.253906 16.414062 29.300781 C 16.496094 29.347656 16.570312 29.410156 16.632812 29.476562 C 16.6875 29.546875 16.738281 29.632812 16.78125 29.714844 C 16.8125 29.800781 16.832031 29.898438 16.84375 29.988281 C 16.847656 30.082031 16.835938 30.179688 16.8125 30.269531 C 16.789062 30.355469 16.746094 30.445312 16.699219 30.519531 C 16.648438 30.601562 16.582031 30.667969 16.507812 30.726562 C 16.433594 30.78125 16.347656 30.828125 16.261719 30.863281 C 16.175781 30.890625 16.078125 30.90625 15.988281 30.90625 C 15.890625 30.90625 15.792969 30.894531 15.707031 30.867188 C 15.625 30.839844 15.53125 30.792969 15.457031 30.738281 C 15.390625 30.683594 15.320312 30.609375 15.265625 30.535156 C 15.210938 30.464844 15.171875 30.371094 15.144531 30.285156 C 15.121094 30.195312 15.109375 30.097656 15.117188 30.007812 C 15.117188 29.917969 15.140625 29.820312 15.171875 29.734375 C 15.203125 29.648438 15.253906 29.5625 15.308594 29.488281 C 15.371094 29.421875 15.445312 29.359375 15.527344 29.304688 C 15.601562 29.261719 15.679688 29.230469 15.78125 29.203125 C 15.925781 29.160156 16.148438 29.101562 16.3125 29.085938 C 16.460938 29.074219 16.613281 29.074219 16.722656 29.089844 C 16.800781 29.105469 16.847656 29.125 16.917969 29.167969 C 17.011719 29.226562 17.144531 29.335938 17.21875 29.441406 C 17.292969 29.558594 17.34375 29.699219 17.359375 29.832031 C 17.371094 29.960938 17.355469 30.117188 17.304688 30.242188 C 17.253906 30.359375 17.167969 30.484375 17.066406 30.570312 C 16.96875 30.65625 16.699219 30.757812 16.699219 30.757812 " clip-rule="nonzero"/></clipPath><clipPath id="94fda1d2c3"><path d="M 20 14 L 27 14 L 27 23 L 20 23 Z M 20 14 " clip-rule="nonzero"/></clipPath><clipPath id="056305b7d4"><path d="M 20.078125 15.230469 L 24.503906 13.796875 L 26.964844 21.398438 L 22.539062 22.832031 Z M 20.078125 15.230469 " clip-rule="nonzero"/></clipPath><clipPath id="83d0eb0ced"><path d="M 22.425781 20.886719 C 20.839844 17.6875 20.648438 16.996094 20.628906 16.554688 C 20.617188 16.273438 20.671875 16.09375 20.746094 15.886719 C 20.820312 15.679688 20.925781 15.472656 21.0625 15.296875 C 21.199219 15.121094 21.371094 14.960938 21.558594 14.839844 C 21.742188 14.71875 21.964844 14.617188 22.175781 14.558594 C 22.386719 14.511719 22.621094 14.484375 22.847656 14.492188 C 23.070312 14.515625 23.296875 14.5625 23.5 14.648438 C 23.710938 14.734375 23.90625 14.863281 24.070312 15.003906 C 24.242188 15.152344 24.394531 15.335938 24.503906 15.523438 C 24.617188 15.710938 24.699219 15.9375 24.746094 16.148438 C 24.789062 16.367188 24.804688 16.605469 24.773438 16.820312 C 24.742188 17.042969 24.683594 17.265625 24.585938 17.472656 C 24.488281 17.675781 24.355469 17.863281 24.207031 18.023438 C 24.042969 18.1875 23.855469 18.328125 23.664062 18.421875 C 23.464844 18.527344 23.242188 18.597656 23.019531 18.628906 C 22.808594 18.667969 22.5625 18.667969 22.34375 18.625 C 22.128906 18.582031 21.910156 18.511719 21.714844 18.402344 C 21.515625 18.292969 21.328125 18.152344 21.179688 17.984375 C 21.03125 17.828125 20.902344 17.625 20.804688 17.425781 C 20.722656 17.226562 20.65625 16.996094 20.636719 16.777344 C 20.617188 16.558594 20.632812 16.320312 20.683594 16.101562 C 20.738281 15.890625 20.816406 15.671875 20.9375 15.476562 C 21.050781 15.289062 21.207031 15.117188 21.375 14.972656 C 21.554688 14.832031 21.761719 14.714844 21.957031 14.628906 C 22.164062 14.550781 22.394531 14.507812 22.625 14.496094 C 22.84375 14.484375 23.078125 14.511719 23.292969 14.574219 C 23.503906 14.636719 23.710938 14.742188 23.894531 14.867188 C 24.078125 14.992188 24.234375 15.125 24.382812 15.339844 C 24.597656 15.65625 24.691406 16.164062 24.929688 16.679688 C 25.265625 17.402344 26.03125 18.570312 26.246094 19.234375 C 26.382812 19.625 26.414062 19.941406 26.410156 20.21875 C 26.414062 20.410156 26.367188 20.546875 26.316406 20.707031 C 26.265625 20.867188 26.21875 21.003906 26.105469 21.160156 C 25.945312 21.386719 25.667969 21.691406 25.382812 21.851562 C 25.113281 22.023438 24.707031 22.113281 24.429688 22.140625 C 24.242188 22.160156 24.117188 22.152344 23.929688 22.101562 C 23.671875 22.03125 23.277344 21.882812 23.027344 21.679688 C 22.78125 21.476562 22.425781 20.886719 22.425781 20.886719 " clip-rule="nonzero"/></clipPath><clipPath id="207aabf94d"><path d="M 1.851562 19.140625 L 19.40625 19.140625 L 19.40625 30.429688 L 1.851562 30.429688 Z M 1.851562 19.140625 " clip-rule="nonzero"/></clipPath><clipPath id="c1b621c440"><path d="M 1.902344 20.230469 C 2.011719 19.851562 2.058594 19.757812 2.113281 19.675781 C 2.167969 19.597656 2.234375 19.515625 2.3125 19.453125 C 2.386719 19.390625 2.472656 19.324219 2.558594 19.277344 C 2.644531 19.234375 2.742188 19.199219 2.835938 19.175781 C 2.933594 19.152344 3.03125 19.140625 3.136719 19.140625 C 3.234375 19.140625 3.332031 19.152344 3.429688 19.175781 C 3.527344 19.199219 3.710938 19.277344 3.710938 19.277344 C 3.710938 19.277344 3.960938 19.40625 4.140625 19.503906 C 4.425781 19.671875 4.90625 19.960938 5.28125 20.191406 C 5.660156 20.414062 6.007812 20.6875 6.40625 20.882812 C 6.804688 21.085938 7.253906 21.226562 7.675781 21.371094 C 8.078125 21.515625 8.453125 21.679688 8.878906 21.753906 C 9.328125 21.828125 9.832031 21.792969 10.296875 21.804688 C 10.757812 21.8125 11.210938 21.804688 11.671875 21.804688 C 12.132812 21.804688 12.585938 21.792969 13.054688 21.804688 C 13.542969 21.816406 14.058594 21.875 14.535156 21.878906 C 15.003906 21.886719 15.460938 21.914062 15.898438 21.839844 C 16.324219 21.765625 16.691406 21.539062 17.136719 21.449219 C 17.628906 21.347656 18.355469 21.066406 18.722656 21.296875 C 19.117188 21.535156 19.433594 22.460938 19.367188 22.941406 C 19.3125 23.363281 18.855469 23.691406 18.5625 24.035156 C 18.265625 24.382812 17.898438 24.648438 17.605469 25.011719 C 17.28125 25.398438 16.992188 25.882812 16.722656 26.308594 C 16.46875 26.710938 16.285156 27.140625 16.019531 27.496094 C 15.757812 27.832031 15.417969 28.074219 15.160156 28.40625 C 14.882812 28.761719 14.722656 29.238281 14.410156 29.566406 C 14.097656 29.894531 13.699219 30.3125 13.277344 30.378906 C 12.839844 30.445312 12.253906 30.109375 11.820312 29.894531 C 11.429688 29.707031 11.144531 29.433594 10.777344 29.199219 C 10.367188 28.933594 9.886719 28.65625 9.460938 28.378906 C 9.050781 28.113281 8.648438 27.824219 8.257812 27.566406 C 7.894531 27.316406 7.5625 27.097656 7.199219 26.855469 C 6.808594 26.597656 6.375 26.367188 5.984375 26.066406 C 5.574219 25.75 5.160156 25.378906 4.800781 24.984375 C 4.4375 24.578125 3.898438 24.113281 3.816406 23.652344 C 3.746094 23.246094 4.097656 22.503906 4.203125 22.40625 C 4.226562 22.382812 4.265625 22.398438 4.265625 22.386719 C 4.277344 22.324219 3.300781 21.867188 2.984375 21.703125 C 2.808594 21.609375 2.679688 21.550781 2.558594 21.476562 C 2.460938 21.417969 2.386719 21.371094 2.3125 21.308594 C 2.234375 21.238281 2.171875 21.164062 2.113281 21.085938 C 2.058594 21.003906 2.011719 20.910156 1.976562 20.820312 C 1.941406 20.726562 1.914062 20.628906 1.902344 20.53125 C 1.890625 20.433594 1.902344 20.230469 1.902344 20.230469 M 9.679688 24.433594 C 9.6875 24.433594 9.6875 24.433594 9.6875 24.433594 C 9.6875 24.433594 9.679688 24.433594 9.679688 24.433594 M 14.886719 24.320312 C 15.015625 24.371094 15.039062 24.332031 15.03125 24.320312 C 15.019531 24.300781 14.886719 24.320312 14.886719 24.320312 " clip-rule="nonzero"/></clipPath><clipPath id="c672bfc576"><path d="M 1.785156 17.242188 L 19.695312 17.242188 L 19.695312 28.570312 L 1.785156 28.570312 Z M 1.785156 17.242188 " clip-rule="nonzero"/></clipPath><clipPath id="dcd349a393"><path d="M 18.785156 23.265625 C 9.75 23.425781 9.5625 23.402344 9.230469 23.335938 C 8.917969 23.273438 8.609375 23.1875 8.324219 23.0625 C 8.0625 22.949219 7.847656 22.804688 7.589844 22.636719 C 7.289062 22.4375 6.980469 22.207031 6.65625 21.929688 C 6.246094 21.582031 5.835938 21.039062 5.34375 20.679688 C 4.851562 20.3125 4.136719 20.039062 3.683594 19.761719 C 3.363281 19.5625 2.894531 19.433594 2.871094 19.222656 C 2.851562 18.996094 3.3125 18.511719 3.625 18.441406 C 3.984375 18.363281 4.542969 18.667969 4.953125 18.972656 C 5.453125 19.347656 5.726562 20.128906 6.296875 20.667969 C 6.992188 21.335938 8.160156 21.984375 8.917969 22.574219 C 9.53125 23.046875 10.125 23.496094 10.535156 23.898438 C 10.832031 24.191406 10.957031 24.464844 11.21875 24.71875 C 11.5 25 11.789062 25.226562 12.164062 25.511719 C 12.671875 25.894531 13.65625 26.855469 14.003906 26.753906 C 14.226562 26.691406 14.222656 26.234375 14.363281 25.945312 C 14.535156 25.59375 15.066406 24.878906 14.992188 24.792969 C 14.957031 24.75 14.792969 24.875 14.683594 24.886719 C 14.574219 24.902344 14.460938 24.898438 14.359375 24.878906 C 14.253906 24.855469 14.148438 24.816406 14.054688 24.765625 C 13.964844 24.707031 13.875 24.640625 13.804688 24.5625 C 13.730469 24.480469 13.667969 24.382812 13.628906 24.289062 C 13.589844 24.191406 13.5625 24.078125 13.554688 23.972656 C 13.542969 23.867188 13.554688 23.75 13.578125 23.648438 C 13.605469 23.546875 13.652344 23.4375 13.707031 23.351562 C 13.765625 23.261719 13.84375 23.175781 13.925781 23.113281 C 14.011719 23.046875 14.109375 22.988281 14.210938 22.953125 C 14.308594 22.914062 14.421875 22.898438 14.527344 22.890625 C 14.632812 22.890625 14.746094 22.910156 14.847656 22.9375 C 14.949219 22.972656 15.054688 23.023438 15.140625 23.085938 C 15.222656 23.148438 15.304688 23.226562 15.367188 23.3125 C 15.429688 23.398438 15.480469 23.5 15.507812 23.605469 C 15.542969 23.707031 15.554688 23.820312 15.554688 23.921875 C 15.550781 24.03125 15.527344 24.144531 15.492188 24.242188 C 15.453125 24.34375 15.394531 24.441406 15.328125 24.527344 C 15.265625 24.605469 15.179688 24.679688 15.085938 24.738281 C 14.996094 24.800781 14.894531 24.839844 14.792969 24.867188 C 14.683594 24.890625 14.574219 24.902344 14.464844 24.890625 C 14.359375 24.886719 14.25 24.855469 14.152344 24.8125 C 14.054688 24.769531 13.960938 24.707031 13.878906 24.632812 C 13.800781 24.566406 13.730469 24.476562 13.679688 24.382812 C 13.625 24.292969 13.589844 24.183594 13.566406 24.078125 C 13.550781 23.972656 13.542969 23.859375 13.5625 23.757812 C 13.570312 23.648438 13.605469 23.539062 13.65625 23.445312 C 13.703125 23.351562 13.773438 23.257812 13.84375 23.183594 C 13.917969 23.109375 13.980469 23.039062 14.109375 22.992188 C 14.359375 22.910156 14.957031 22.816406 15.320312 22.917969 C 15.6875 23.023438 16.0625 23.332031 16.300781 23.597656 C 16.507812 23.824219 16.648438 24.082031 16.726562 24.378906 C 16.824219 24.703125 16.84375 25.140625 16.785156 25.484375 C 16.734375 25.792969 16.582031 26.066406 16.4375 26.339844 C 16.289062 26.625 16.113281 26.917969 15.914062 27.164062 C 15.71875 27.402344 15.492188 27.613281 15.253906 27.789062 C 15.011719 27.96875 14.746094 28.117188 14.460938 28.234375 C 14.164062 28.359375 13.804688 28.546875 13.492188 28.527344 C 13.179688 28.496094 12.921875 28.28125 12.574219 28.082031 C 12.085938 27.789062 11.355469 27.242188 10.871094 26.886719 C 10.5 26.613281 10.175781 26.40625 9.910156 26.128906 C 9.667969 25.882812 9.605469 25.625 9.328125 25.339844 C 8.890625 24.886719 8.050781 24.304688 7.386719 23.8125 C 6.71875 23.332031 5.859375 22.851562 5.328125 22.414062 C 4.953125 22.097656 4.746094 21.867188 4.433594 21.519531 C 4.035156 21.078125 3.550781 20.363281 3.152344 19.957031 C 2.855469 19.660156 2.53125 19.519531 2.308594 19.257812 C 2.097656 19.007812 1.824219 18.726562 1.832031 18.429688 C 1.835938 18.082031 2.222656 17.429688 2.558594 17.285156 C 2.882812 17.15625 3.398438 17.40625 3.773438 17.542969 C 4.136719 17.667969 4.410156 17.847656 4.785156 18.058594 C 5.269531 18.332031 5.960938 18.734375 6.429688 19.070312 C 6.808594 19.34375 7.121094 19.617188 7.402344 19.890625 C 7.652344 20.121094 7.8125 20.402344 8.050781 20.601562 C 8.285156 20.800781 8.546875 20.960938 8.816406 21.097656 C 9.089844 21.234375 9.375 21.351562 9.675781 21.421875 C 9.988281 21.488281 10.238281 21.484375 10.679688 21.496094 C 11.507812 21.519531 13.015625 21.4375 14.300781 21.445312 C 15.765625 21.445312 18.464844 21.433594 18.996094 21.535156 C 19.109375 21.558594 19.125 21.570312 19.195312 21.609375 C 19.292969 21.667969 19.433594 21.773438 19.507812 21.890625 C 19.589844 22.003906 19.640625 22.167969 19.664062 22.28125 C 19.671875 22.363281 19.667969 22.425781 19.664062 22.492188 C 19.652344 22.5625 19.640625 22.625 19.609375 22.699219 C 19.558594 22.804688 19.453125 22.964844 19.371094 23.046875 C 19.316406 23.101562 19.269531 23.128906 19.195312 23.164062 C 19.09375 23.210938 18.785156 23.265625 18.785156 23.265625 " clip-rule="nonzero"/></clipPath><clipPath id="54d650a932"><path d="M 10.546875 0.449219 L 28.148438 0.449219 L 28.148438 13.558594 L 10.546875 13.558594 Z M 10.546875 0.449219 " clip-rule="nonzero"/></clipPath><clipPath id="59da4c3186"><path d="M 10.5625 10.609375 C 10.65625 9.347656 10.679688 9.359375 10.6875 9.34375 C 10.71875 9.273438 10.617188 8.984375 10.605469 8.746094 C 10.582031 8.386719 10.632812 7.828125 10.636719 7.382812 C 10.644531 6.957031 10.574219 6.539062 10.636719 6.125 C 10.699219 5.691406 10.929688 5.277344 11.042969 4.832031 C 11.15625 4.375 11.164062 3.707031 11.316406 3.425781 C 11.394531 3.269531 11.578125 3.21875 11.617188 3.117188 C 11.644531 3.046875 11.613281 2.980469 11.617188 2.917969 C 11.625 2.871094 11.636719 2.832031 11.640625 2.785156 C 11.644531 2.746094 11.640625 2.6875 11.644531 2.65625 C 11.652344 2.632812 11.667969 2.613281 11.675781 2.59375 C 11.679688 2.574219 11.675781 2.550781 11.679688 2.53125 C 11.699219 2.496094 11.726562 2.449219 11.742188 2.410156 C 11.765625 2.371094 11.777344 2.320312 11.792969 2.289062 C 11.804688 2.269531 11.824219 2.257812 11.839844 2.238281 C 11.851562 2.214844 11.851562 2.199219 11.867188 2.175781 C 11.890625 2.148438 11.9375 2.121094 11.964844 2.085938 C 11.992188 2.058594 12.023438 2.011719 12.050781 1.988281 C 12.074219 1.972656 12.089844 1.964844 12.109375 1.949219 C 12.125 1.9375 12.136719 1.921875 12.160156 1.902344 C 12.1875 1.886719 12.238281 1.867188 12.277344 1.851562 C 12.320312 1.828125 12.359375 1.792969 12.394531 1.785156 C 12.414062 1.773438 12.4375 1.773438 12.457031 1.765625 C 12.476562 1.761719 12.496094 1.761719 12.511719 1.742188 C 12.558594 1.675781 12.445312 1.351562 12.558594 1.226562 C 12.75 1.015625 13.613281 1.019531 13.980469 0.992188 C 14.214844 0.972656 14.375 1.027344 14.550781 0.992188 C 14.722656 0.964844 14.8125 0.878906 15.03125 0.828125 C 15.453125 0.722656 16.359375 0.65625 16.972656 0.597656 C 17.527344 0.542969 18.050781 0.496094 18.550781 0.480469 C 19.011719 0.457031 19.417969 0.449219 19.878906 0.46875 C 20.378906 0.484375 20.9375 0.511719 21.457031 0.605469 C 21.992188 0.695312 22.550781 0.828125 23.046875 1.027344 C 23.523438 1.21875 23.992188 1.503906 24.398438 1.773438 C 24.765625 2.023438 25.027344 2.359375 25.394531 2.574219 C 25.765625 2.792969 26.203125 2.886719 26.613281 3.082031 C 27.039062 3.28125 27.660156 3.402344 27.902344 3.761719 C 28.140625 4.128906 28.207031 4.894531 28.019531 5.285156 C 27.84375 5.652344 27.308594 5.9375 26.886719 6.066406 C 26.449219 6.203125 25.902344 6.074219 25.433594 6.074219 C 24.988281 6.074219 24.566406 6.023438 24.132812 6.074219 C 23.695312 6.128906 23.261719 6.324219 22.824219 6.421875 C 22.398438 6.511719 21.953125 6.527344 21.53125 6.632812 C 21.121094 6.726562 20.722656 6.835938 20.335938 7 C 19.929688 7.171875 19.496094 7.359375 19.15625 7.640625 C 18.808594 7.917969 18.578125 8.347656 18.261719 8.683594 C 17.929688 9.019531 17.542969 9.320312 17.203125 9.652344 C 16.863281 9.96875 16.546875 10.289062 16.222656 10.632812 C 15.875 10.988281 15.570312 11.496094 15.179688 11.757812 C 14.820312 12 14.300781 12.21875 14 12.199219 C 13.792969 12.1875 13.582031 11.890625 13.507812 11.929688 C 13.445312 11.96875 13.515625 12.203125 13.507812 12.324219 C 13.503906 12.429688 13.496094 12.523438 13.46875 12.621094 C 13.445312 12.710938 13.414062 12.808594 13.367188 12.894531 C 13.320312 12.976562 13.265625 13.0625 13.203125 13.136719 C 13.132812 13.210938 13.058594 13.28125 12.980469 13.332031 C 12.898438 13.386719 12.808594 13.433594 12.71875 13.46875 C 12.625 13.507812 12.53125 13.53125 12.433594 13.542969 C 12.335938 13.554688 12.234375 13.554688 12.136719 13.542969 C 12.039062 13.53125 11.914062 13.496094 11.847656 13.46875 C 11.8125 13.457031 11.792969 13.441406 11.765625 13.429688 C 11.726562 13.410156 11.644531 13.398438 11.644531 13.398438 C 11.644531 13.398438 11.5625 13.355469 11.515625 13.332031 C 11.46875 13.308594 11.382812 13.261719 11.382812 13.261719 C 11.382812 13.261719 11.308594 13.199219 11.269531 13.167969 C 11.234375 13.132812 11.164062 13.070312 11.164062 13.070312 C 11.15625 13.070312 11.105469 12.988281 11.078125 12.949219 C 11.046875 12.910156 10.992188 12.832031 10.992188 12.832031 C 10.992188 12.824219 10.957031 12.738281 10.933594 12.695312 C 10.917969 12.648438 10.882812 12.558594 10.882812 12.558594 C 10.882812 12.558594 10.882812 12.558594 10.882812 12.550781 C 10.882812 12.550781 10.867188 12.101562 10.832031 11.828125 C 10.78125 11.472656 10.5625 10.609375 10.5625 10.609375 M 15.46875 5.394531 C 15.605469 5.234375 15.539062 5.234375 15.515625 5.253906 C 15.488281 5.277344 15.46875 5.394531 15.46875 5.394531 " clip-rule="nonzero"/></clipPath><clipPath id="95f3010d5d"><path d="M 14.320312 4.007812 L 16.726562 4.007812 L 16.726562 6.46875 L 14.320312 6.46875 Z M 14.320312 4.007812 " clip-rule="nonzero"/></clipPath><clipPath id="9cf899a6a0"><path d="M 16.71875 4.871094 C 16.71875 5.644531 16.625 5.839844 16.511719 5.992188 C 16.390625 6.140625 16.222656 6.273438 16.050781 6.351562 C 15.875 6.433594 15.664062 6.472656 15.476562 6.460938 C 15.28125 6.449219 15.074219 6.382812 14.910156 6.285156 C 14.75 6.1875 14.597656 6.035156 14.5 5.867188 C 14.398438 5.707031 14.335938 5.496094 14.324219 5.308594 C 14.3125 5.121094 14.351562 4.90625 14.433594 4.734375 C 14.507812 4.558594 14.644531 4.386719 14.792969 4.273438 C 14.9375 4.152344 15.140625 4.066406 15.328125 4.035156 C 15.515625 4 15.730469 4.011719 15.914062 4.066406 C 16.089844 4.125 16.414062 4.371094 16.414062 4.371094 " clip-rule="nonzero"/></clipPath><clipPath id="f6cffb62e7"><path d="M 10.523438 8.75 L 23.191406 8.75 L 23.191406 21.765625 L 10.523438 21.765625 Z M 10.523438 8.75 " clip-rule="nonzero"/></clipPath><clipPath id="4086edff46"><path d="M 16.855469 8.75 L 23.191406 13.703125 L 20.769531 21.714844 L 12.941406 21.714844 L 10.523438 13.703125 Z M 16.855469 8.75 " clip-rule="nonzero"/></clipPath><clipPath id="f806199237"><path d="M 11 3 L 38 3 L 38 31.515625 L 11 31.515625 Z M 11 3 " clip-rule="nonzero"/></clipPath><clipPath id="9f302de557"><path d="M 3 10 L 30 10 L 30 31.515625 L 3 31.515625 Z M 3 10 " clip-rule="nonzero"/></clipPath><clipPath id="ef650f5668"><path d="M 0.613281 7 L 24 7 L 24 30 L 0.613281 30 Z M 0.613281 7 " clip-rule="nonzero"/></clipPath><clipPath id="78d768c981"><path d="M 0.613281 0 L 45.398438 0 L 45.398438 31.515625 L 0.613281 31.515625 Z M 0.613281 0 " clip-rule="nonzero"/></clipPath><clipPath id="0e5b22ffb4"><path d="M 17.179688 -12.40625 C 1.625 -12.40625 -10.984375 0.203125 -10.984375 15.757812 C -10.984375 31.3125 1.625 43.921875 17.179688 43.921875 C 32.730469 43.921875 45.339844 31.3125 45.339844 15.757812 C 45.339844 0.203125 32.730469 -12.40625 17.179688 -12.40625 Z M 17.179688 29.722656 C 9.464844 29.722656 3.214844 23.46875 3.214844 15.757812 C 3.214844 8.046875 9.464844 1.796875 17.179688 1.796875 C 24.890625 1.796875 31.140625 8.046875 31.140625 15.757812 C 31.140625 23.46875 24.890625 29.722656 17.179688 29.722656 Z M 17.179688 29.722656 " clip-rule="nonzero"/></clipPath></defs><g clip-path="url(#9d35df7175)"><g clip-path="url(#b4a74d03a6)"><path fill="#171717" d="M -6.714844 -4.835938 L 40.992188 -4.835938 L 40.992188 38.625 L -6.714844 38.625 Z M -6.714844 -4.835938 " fill-opacity="1" fill-rule="nonzero"/></g></g><g clip-path="url(#080065e27d)"><g clip-path="url(#ef7d0c355c)"><path fill="#4298b4" d="M 17.222656 6.449219 L 32.164062 6.449219 L 32.164062 24.058594 L 17.222656 24.058594 Z M 17.222656 6.449219 " fill-opacity="1" fill-rule="nonzero"/></g></g><g clip-path="url(#589890eab7)"><g clip-path="url(#25bb9620e7)"><path fill="#4298b4" d="M 20.09375 9.136719 L 22.984375 9.136719 L 22.984375 12.027344 L 20.09375 12.027344 Z M 20.09375 9.136719 " fill-opacity="1" fill-rule="nonzero"/></g></g><g clip-path="url(#2684aca01f)"><g clip-path="url(#d7ae0dd554)"><path fill="#e4ae3a" d="M 1.671875 2.546875 L 14.078125 2.546875 L 14.078125 21.59375 L 1.671875 21.59375 Z M 1.671875 2.546875 " fill-opacity="1" fill-rule="nonzero"/></g></g><g clip-path="url(#bbf235f1f8)"><g clip-path="url(#887fd891a1)"><path fill="#e4ae3a" d="M 7.878906 2.199219 L 13.019531 2.199219 L 13.019531 20.265625 L 7.878906 20.265625 Z M 7.878906 2.199219 " fill-opacity="1" fill-rule="nonzero"/></g></g><g clip-path="url(#22d74321ac)"><g clip-path="url(#aa10f3258f)"><path fill="#33a474" d="M 15.117188 15.398438 L 28.847656 15.398438 L 28.847656 31.652344 L 15.117188 31.652344 Z M 15.117188 15.398438 " fill-opacity="1" fill-rule="nonzero"/></g></g><g clip-path="url(#c1f0575fbb)"><g clip-path="url(#49e4e65286)"><path fill="#33a474" d="M 14.886719 28.855469 L 17.59375 28.855469 L 17.59375 31.136719 L 14.886719 31.136719 Z M 14.886719 28.855469 " fill-opacity="1" fill-rule="nonzero"/></g></g><g clip-path="url(#94fda1d2c3)"><g clip-path="url(#056305b7d4)"><g clip-path="url(#83d0eb0ced)"><path fill="#33a474" d="M 19.601562 14.988281 L 24.746094 13.320312 L 27.429688 21.601562 L 22.28125 23.269531 Z M 19.601562 14.988281 " fill-opacity="1" fill-rule="nonzero"/></g></g></g><g clip-path="url(#207aabf94d)"><g clip-path="url(#c1b621c440)"><path fill="#f25e62" d="M 1.671875 18.910156 L 19.585938 18.910156 L 19.585938 30.609375 L 1.671875 30.609375 Z M 1.671875 18.910156 " fill-opacity="1" fill-rule="nonzero"/></g></g><g clip-path="url(#c672bfc576)"><g clip-path="url(#dcd349a393)"><path fill="#f25e62" d="M 1.601562 17.058594 L 19.878906 17.058594 L 19.878906 28.753906 L 1.601562 28.753906 Z M 1.601562 17.058594 " fill-opacity="1" fill-rule="nonzero"/></g></g><g clip-path="url(#54d650a932)"><g clip-path="url(#59da4c3186)"><path fill="#88619a" d="M 10.335938 0.238281 L 28.253906 0.238281 L 28.253906 13.769531 L 10.335938 13.769531 Z M 10.335938 0.238281 " fill-opacity="1" fill-rule="nonzero"/></g></g><g clip-path="url(#95f3010d5d)"><g clip-path="url(#9cf899a6a0)"><path fill="#88619a" d="M 14.097656 3.804688 L 16.984375 3.804688 L 16.984375 6.695312 L 14.097656 6.695312 Z M 14.097656 3.804688 " fill-opacity="1" fill-rule="nonzero"/></g></g><g clip-path="url(#f6cffb62e7)"><g clip-path="url(#4086edff46)"><path fill="#171717" d="M 10.523438 8.75 L 23.191406 8.75 L 23.191406 21.714844 L 10.523438 21.714844 Z M 10.523438 8.75 " fill-opacity="1" fill-rule="nonzero"/></g></g><path stroke-linecap="butt" transform="matrix(0.00170535, 0.0553264, -0.0553264, 0.00170535, 12.942839, 1.037034)" fill="none" stroke-linejoin="miter" d="M 6.095934 11.86341 C 95.981087 59.74973 193.979476 59.734413 300.091103 11.817458 " stroke="#171717" stroke-width="26" stroke-opacity="1" stroke-miterlimit="4"/><path stroke-linecap="butt" transform="matrix(-0.0525146, 0.0174969, -0.0174969, -0.0525146, 30.440899, 6.951264)" fill="none" stroke-linejoin="miter" d="M 6.095874 11.8143 C 95.969906 59.759716 194.005179 59.768727 300.045481 11.86367 " stroke="#171717" stroke-width="26" stroke-opacity="1" stroke-miterlimit="4"/><g clip-path="url(#f806199237)"><path stroke-linecap="butt" transform="matrix(-0.0323716, -0.0448999, 0.0448999, -0.0323716, 28.69243, 25.909957)" fill="none" stroke-linejoin="miter" d="M 6.132765 11.880682 C 96.039107 59.735943 194.007685 59.725416 300.038498 11.8491 " stroke="#171717" stroke-width="26" stroke-opacity="1" stroke-miterlimit="4"/></g><g clip-path="url(#9f302de557)"><path stroke-linecap="butt" transform="matrix(0.0313327, -0.0456309, 0.0456309, 0.0313327, 11.251942, 31.156614)" fill="none" stroke-linejoin="miter" d="M 5.336061 11.873579 C 101.114547 54.739895 196.834025 54.758476 292.650794 11.907605 " stroke="#171717" stroke-width="26" stroke-opacity="1" stroke-miterlimit="4"/></g><g clip-path="url(#ef650f5668)"><path stroke-linecap="butt" transform="matrix(0.0518848, 0.0192844, -0.0192844, 0.0518848, 2.519088, 15.337107)" fill="none" stroke-linejoin="miter" d="M 7.292859 11.496111 C 79.513691 60.166105 161.441026 60.20682 252.959544 11.510542 " stroke="#171717" stroke-width="26" stroke-opacity="1" stroke-miterlimit="4"/></g><g clip-path="url(#78d768c981)"><g clip-path="url(#0e5b22ffb4)"><path fill="#171717" d="M -11.269531 -12.691406 L 45.628906 -12.691406 L 45.628906 44.207031 L -11.269531 44.207031 Z M -11.269531 -12.691406 " fill-opacity="1" fill-rule="nonzero"/></g></g><g fill="#ffffff" fill-opacity="1"><g transform="translate(36.026127, 23.195455)"><g><path d="M 4.394531 0 L 7.125 0 L 7.125 -11.390625 L 11 -11.390625 L 11 -13.660156 L 0.554688 -13.660156 L 0.554688 -11.390625 L 4.394531 -11.390625 Z M 4.394531 0 "/></g></g></g><g fill="#ffffff" fill-opacity="1"><g transform="translate(47.559161, 23.195455)"><g><path d="M 1.679688 0 L 4.410156 0 L 4.410156 -13.660156 L 1.679688 -13.660156 Z M 1.679688 0 "/></g></g></g><g fill="#ffffff" fill-opacity="1"><g transform="translate(53.648604, 23.195455)"><g><path d="M 1.679688 0 L 4.410156 0 L 4.410156 -4.855469 L 6.238281 -4.855469 C 9.175781 -4.855469 11.519531 -6.257812 11.519531 -9.375 C 11.519531 -12.605469 9.191406 -13.660156 6.164062 -13.660156 L 1.679688 -13.660156 Z M 4.410156 -7.015625 L 4.410156 -11.5 L 5.960938 -11.5 C 7.84375 -11.5 8.839844 -10.964844 8.839844 -9.375 C 8.839844 -7.808594 7.9375 -7.015625 6.054688 -7.015625 Z M 4.410156 -7.015625 "/></g></g></g><g fill="#ffffff" fill-opacity="1"><g transform="translate(65.956663, 23.195455)"><g><path d="M 1.679688 0 L 4.410156 0 L 4.410156 -13.660156 L 1.679688 -13.660156 Z M 1.679688 0 "/></g></g></g></svg>