<svg xmlns="http://www.w3.org/2000/svg" xmlns:xlink="http://www.w3.org/1999/xlink" width="115" zoomAndPan="magnify" viewBox="0 0 86.25 32.249999" height="43" preserveAspectRatio="xMidYMid meet" version="1.0"><defs><g/><clipPath id="1065a33817"><path d="M 0.613281 0 L 84.902344 0 L 84.902344 31.515625 L 0.613281 31.515625 Z M 0.613281 0 " clip-rule="nonzero"/></clipPath><clipPath id="18963086ca"><path d="M 16.824219 5.824219 L 32.628906 5.824219 L 32.628906 24.65625 L 16.824219 24.65625 Z M 16.824219 5.824219 " clip-rule="nonzero"/></clipPath><clipPath id="2f6d620994"><path d="M 16.824219 10.40625 C 16.84375 9.980469 16.875 9.875 16.910156 9.777344 C 16.953125 9.675781 17.015625 9.566406 17.066406 9.492188 C 17.109375 9.441406 17.175781 9.410156 17.183594 9.367188 C 17.1875 9.332031 17.128906 9.3125 17.132812 9.257812 C 17.152344 9.050781 17.726562 8.242188 18.125 7.917969 C 18.484375 7.621094 18.917969 7.515625 19.371094 7.324219 C 19.890625 7.101562 20.738281 6.785156 21.078125 6.691406 C 21.222656 6.65625 21.277344 6.679688 21.382812 6.644531 C 21.519531 6.601562 21.617188 6.5 21.808594 6.433594 C 22.136719 6.320312 22.746094 6.210938 23.226562 6.160156 C 23.722656 6.109375 24.238281 6.152344 24.730469 6.152344 C 25.203125 6.152344 25.660156 6.183594 26.132812 6.152344 C 26.601562 6.128906 27.078125 6.03125 27.550781 5.988281 C 28 5.941406 28.449219 5.90625 28.90625 5.886719 C 29.382812 5.875 30.136719 5.886719 30.347656 5.886719 C 30.40625 5.886719 30.417969 5.886719 30.460938 5.886719 C 30.503906 5.894531 30.566406 5.898438 30.613281 5.90625 C 30.671875 5.914062 30.777344 5.925781 30.777344 5.925781 C 30.777344 5.929688 30.875 5.96875 30.925781 5.988281 C 30.972656 6.003906 31.074219 6.042969 31.074219 6.042969 C 31.078125 6.042969 31.167969 6.105469 31.210938 6.136719 C 31.253906 6.160156 31.339844 6.222656 31.339844 6.222656 C 31.339844 6.222656 31.414062 6.300781 31.445312 6.347656 C 31.480469 6.382812 31.550781 6.464844 31.550781 6.464844 C 31.554688 6.464844 31.554688 6.464844 31.554688 6.464844 C 31.554688 6.464844 31.605469 6.554688 31.628906 6.605469 C 31.65625 6.65625 31.699219 6.75 31.703125 6.75 C 31.703125 6.75 31.730469 6.855469 31.742188 6.902344 C 31.753906 6.953125 31.777344 7.058594 31.777344 7.058594 C 31.777344 7.0625 31.777344 7.167969 31.777344 7.21875 C 31.777344 7.273438 31.777344 7.378906 31.777344 7.378906 C 31.777344 7.378906 31.753906 7.484375 31.742188 7.535156 C 31.730469 7.589844 31.703125 7.691406 31.703125 7.691406 C 31.699219 7.695312 31.65625 7.789062 31.628906 7.832031 C 31.605469 7.882812 31.554688 7.972656 31.554688 7.972656 C 31.550781 7.980469 31.480469 8.054688 31.445312 8.097656 C 31.414062 8.136719 31.339844 8.214844 31.339844 8.214844 C 31.339844 8.214844 31.253906 8.277344 31.210938 8.308594 C 31.167969 8.339844 31.078125 8.394531 31.074219 8.402344 C 31.074219 8.402344 30.972656 8.4375 30.925781 8.457031 C 30.875 8.476562 30.777344 8.511719 30.777344 8.511719 C 30.777344 8.511719 30.695312 8.5 30.6875 8.527344 C 30.660156 8.605469 31.246094 9.175781 31.480469 9.546875 C 31.730469 9.949219 31.984375 10.394531 32.125 10.867188 C 32.273438 11.347656 32.285156 11.90625 32.324219 12.425781 C 32.367188 12.941406 32.367188 13.398438 32.386719 13.96875 C 32.40625 14.667969 32.40625 15.558594 32.429688 16.316406 C 32.453125 17.023438 32.503906 17.695312 32.523438 18.359375 C 32.546875 18.984375 32.613281 19.636719 32.570312 20.191406 C 32.527344 20.667969 32.421875 21.039062 32.316406 21.519531 C 32.199219 22.074219 32.101562 22.804688 31.890625 23.339844 C 31.710938 23.789062 31.5625 24.371094 31.195312 24.535156 C 30.78125 24.71875 29.851562 24.484375 29.417969 24.160156 C 29.003906 23.847656 28.894531 23.132812 28.628906 22.652344 C 28.375 22.191406 28.105469 21.757812 27.851562 21.324219 C 27.605469 20.90625 27.375 20.519531 27.128906 20.082031 C 26.855469 19.597656 26.589844 19.035156 26.292969 18.550781 C 26.019531 18.09375 25.753906 17.652344 25.433594 17.261719 C 25.117188 16.875 24.714844 16.574219 24.371094 16.210938 C 24.03125 15.839844 23.730469 15.394531 23.382812 15.035156 C 23.058594 14.695312 22.769531 14.335938 22.371094 14.09375 C 21.964844 13.84375 21.4375 13.789062 20.96875 13.597656 C 20.472656 13.394531 19.90625 13.207031 19.472656 12.902344 C 19.054688 12.613281 18.5625 12.074219 18.382812 11.832031 C 18.308594 11.734375 18.308594 11.621094 18.253906 11.589844 C 18.21875 11.566406 18.175781 11.601562 18.125 11.601562 C 18.039062 11.601562 17.90625 11.585938 17.800781 11.558594 C 17.703125 11.527344 17.597656 11.492188 17.503906 11.4375 C 17.414062 11.386719 17.324219 11.324219 17.246094 11.25 C 17.171875 11.175781 17.097656 11.09375 17.039062 11.007812 C 16.980469 10.914062 16.929688 10.816406 16.890625 10.71875 C 16.859375 10.617188 16.824219 10.40625 16.824219 10.40625 M 20.730469 10.234375 C 20.992188 10.363281 21.089844 9.898438 21.042969 9.871094 C 21.011719 9.84375 20.867188 9.949219 20.816406 10.019531 C 20.769531 10.078125 20.730469 10.234375 20.730469 10.234375 " clip-rule="nonzero"/></clipPath><clipPath id="4a0864b8d6"><path d="M 19.941406 8.785156 L 22.554688 8.785156 L 22.554688 11.457031 L 19.941406 11.457031 Z M 19.941406 8.785156 " clip-rule="nonzero"/></clipPath><clipPath id="7ee9fa8f34"><path d="M 22.546875 9.722656 C 22.546875 10.5625 22.453125 10.78125 22.324219 10.941406 C 22.199219 11.101562 22.011719 11.25 21.820312 11.332031 C 21.636719 11.417969 21.398438 11.460938 21.195312 11.449219 C 20.992188 11.4375 20.761719 11.367188 20.589844 11.257812 C 20.410156 11.152344 20.242188 10.984375 20.136719 10.8125 C 20.03125 10.632812 19.957031 10.40625 19.945312 10.199219 C 19.933594 9.992188 19.976562 9.757812 20.0625 9.570312 C 20.148438 9.386719 20.292969 9.199219 20.453125 9.070312 C 20.621094 8.945312 20.835938 8.847656 21.035156 8.808594 C 21.238281 8.773438 21.476562 8.785156 21.671875 8.847656 C 21.871094 8.910156 22.21875 9.175781 22.21875 9.175781 " clip-rule="nonzero"/></clipPath><clipPath id="56bdf8760c"><path d="M 0.613281 1.609375 L 12.949219 1.609375 L 12.949219 21.890625 L 0.613281 21.890625 Z M 0.613281 1.609375 " clip-rule="nonzero"/></clipPath><clipPath id="257e539386"><path d="M -0.0820312 13.078125 C 0.4375 11.152344 0.964844 10.785156 1.324219 10.394531 C 1.644531 10.035156 1.988281 9.726562 2.253906 9.347656 C 2.527344 8.972656 2.675781 8.570312 2.953125 8.117188 C 3.304688 7.546875 3.808594 6.796875 4.222656 6.214844 C 4.585938 5.695312 5.007812 5.238281 5.292969 4.765625 C 5.542969 4.359375 5.644531 3.960938 5.875 3.558594 C 6.125 3.113281 6.347656 2.519531 6.753906 2.203125 C 7.175781 1.875 7.929688 1.539062 8.390625 1.644531 C 8.816406 1.746094 9.289062 2.253906 9.449219 2.671875 C 9.617188 3.121094 9.417969 3.757812 9.3125 4.269531 C 9.214844 4.785156 8.941406 5.257812 8.828125 5.757812 C 8.722656 6.253906 8.675781 6.765625 8.644531 7.261719 C 8.613281 7.746094 8.617188 8.210938 8.636719 8.691406 C 8.65625 9.175781 8.730469 9.664062 8.761719 10.148438 C 8.785156 10.605469 8.773438 11.058594 8.804688 11.511719 C 8.828125 11.957031 8.828125 12.394531 8.929688 12.84375 C 9.027344 13.320312 9.3125 13.78125 9.425781 14.277344 C 9.527344 14.785156 9.460938 15.367188 9.574219 15.871094 C 9.679688 16.339844 9.902344 16.761719 10.035156 17.207031 C 10.171875 17.648438 10.308594 18.230469 10.394531 18.527344 C 10.441406 18.679688 10.421875 18.792969 10.5 18.875 C 10.582031 18.953125 10.722656 18.953125 10.886719 18.996094 C 11.144531 19.070312 11.660156 19.164062 11.894531 19.238281 C 12.023438 19.277344 12.105469 19.300781 12.199219 19.351562 C 12.292969 19.398438 12.382812 19.460938 12.464844 19.53125 C 12.546875 19.605469 12.621094 19.683594 12.675781 19.769531 C 12.738281 19.859375 12.792969 19.957031 12.828125 20.054688 C 12.867188 20.15625 12.890625 20.261719 12.910156 20.367188 C 12.921875 20.472656 12.921875 20.582031 12.910156 20.6875 C 12.898438 20.792969 12.875 20.898438 12.835938 20.996094 C 12.800781 21.097656 12.75 21.195312 12.6875 21.28125 C 12.625 21.367188 12.558594 21.457031 12.476562 21.523438 C 12.394531 21.597656 12.308594 21.660156 12.214844 21.710938 C 12.117188 21.757812 12.019531 21.796875 11.914062 21.828125 C 11.8125 21.851562 11.703125 21.863281 11.597656 21.863281 C 11.492188 21.863281 11.277344 21.828125 11.277344 21.828125 C 11.277344 21.828125 10.527344 21.652344 10.265625 21.585938 C 10.105469 21.542969 10.042969 21.46875 9.875 21.472656 C 9.597656 21.472656 9.144531 21.796875 8.75 21.828125 C 8.316406 21.859375 7.820312 21.695312 7.367188 21.609375 C 6.921875 21.53125 6.46875 21.488281 6.042969 21.339844 C 5.609375 21.1875 5.195312 20.960938 4.792969 20.707031 C 4.378906 20.453125 3.980469 20.125 3.589844 19.816406 C 3.210938 19.511719 2.835938 19.203125 2.480469 18.878906 C 2.136719 18.5625 1.824219 18.222656 1.484375 17.90625 C 1.152344 17.597656 0.644531 17.398438 0.464844 17.003906 C 0.265625 16.574219 0.285156 15.628906 0.433594 15.398438 C 0.507812 15.289062 0.722656 15.34375 0.75 15.269531 C 0.777344 15.171875 0.542969 15.015625 0.445312 14.796875 C 0.257812 14.414062 -0.0820312 13.078125 -0.0820312 13.078125 " clip-rule="nonzero"/></clipPath><clipPath id="ce428e4e54"><path d="M 6.660156 1.238281 L 11.765625 1.238281 L 11.765625 20.417969 L 6.660156 20.417969 Z M 6.660156 1.238281 " clip-rule="nonzero"/></clipPath><clipPath id="8a18f69c97"><path d="M 9.183594 11.363281 C 10.84375 16.695312 11.566406 18.191406 11.714844 18.816406 C 11.769531 19.058594 11.769531 19.164062 11.757812 19.332031 C 11.746094 19.5 11.722656 19.679688 11.648438 19.828125 C 11.574219 19.96875 11.429688 20.125 11.324219 20.210938 C 11.246094 20.273438 11.175781 20.304688 11.101562 20.335938 C 11.023438 20.367188 10.953125 20.390625 10.855469 20.402344 C 10.71875 20.410156 10.488281 20.390625 10.351562 20.351562 C 10.261719 20.324219 10.203125 20.296875 10.128906 20.234375 C 10.019531 20.15625 9.855469 19.988281 9.78125 19.871094 C 9.734375 19.789062 9.722656 19.757812 9.691406 19.636719 C 9.566406 19.203125 9.363281 17.429688 9.21875 16.675781 C 9.125 16.210938 9.070312 15.949219 8.960938 15.546875 C 8.835938 15.070312 8.710938 14.613281 8.476562 14.011719 C 8.105469 13.082031 7.082031 11.4375 6.828125 10.582031 C 6.6875 10.117188 6.6875 9.808594 6.667969 9.441406 C 6.648438 9.113281 6.667969 8.828125 6.691406 8.488281 C 6.722656 8.085938 6.792969 7.585938 6.859375 7.1875 C 6.921875 6.855469 6.976562 6.59375 7.082031 6.253906 C 7.214844 5.839844 7.523438 5.316406 7.617188 4.902344 C 7.695312 4.5625 7.632812 4.285156 7.683594 3.957031 C 7.738281 3.601562 7.894531 3.207031 7.929688 2.867188 C 7.96875 2.585938 7.894531 2.265625 7.929688 2.078125 C 7.949219 1.972656 7.976562 1.917969 8.023438 1.835938 C 8.097656 1.714844 8.230469 1.546875 8.363281 1.449219 C 8.507812 1.355469 8.710938 1.292969 8.855469 1.269531 C 8.945312 1.25 9.015625 1.25 9.113281 1.269531 C 9.25 1.292969 9.472656 1.378906 9.597656 1.453125 C 9.679688 1.503906 9.726562 1.546875 9.789062 1.628906 C 9.875 1.738281 9.988281 1.949219 10.023438 2.085938 C 10.054688 2.179688 10.074219 2.226562 10.054688 2.34375 C 10.023438 2.59375 9.746094 3.132812 9.578125 3.492188 C 9.417969 3.8125 9.1875 4.203125 9.070312 4.402344 C 9.007812 4.5 8.996094 4.542969 8.929688 4.617188 C 8.828125 4.722656 8.667969 4.867188 8.511719 4.925781 C 8.359375 4.996094 8.167969 5.019531 8 5.007812 C 7.832031 4.996094 7.648438 4.933594 7.503906 4.839844 C 7.367188 4.75 7.230469 4.613281 7.152344 4.464844 C 7.066406 4.316406 7.019531 4.105469 7.007812 3.960938 C 6.996094 3.863281 7.015625 3.789062 7.035156 3.703125 C 7.050781 3.613281 7.109375 3.453125 7.113281 3.453125 C 7.125 3.460938 7.015625 3.96875 7.007812 3.96875 C 7.003906 3.96875 7.019531 3.734375 7.050781 3.621094 C 7.082031 3.507812 7.140625 3.398438 7.207031 3.304688 C 7.269531 3.207031 7.355469 3.121094 7.449219 3.050781 C 7.542969 2.984375 7.652344 2.925781 7.765625 2.890625 C 7.875 2.859375 7.992188 2.839844 8.109375 2.839844 C 8.230469 2.839844 8.347656 2.867188 8.457031 2.902344 C 8.5625 2.945312 8.675781 3 8.761719 3.074219 C 8.855469 3.144531 8.941406 3.238281 9.003906 3.328125 C 9.066406 3.429688 9.113281 3.539062 9.144531 3.652344 C 9.171875 3.761719 9.183594 3.886719 9.175781 4.003906 C 9.171875 4.117188 9.140625 4.242188 9.097656 4.34375 C 9.050781 4.449219 8.984375 4.554688 8.910156 4.644531 C 8.835938 4.730469 8.738281 4.808594 8.636719 4.867188 C 8.539062 4.921875 8.421875 4.972656 8.308594 4.988281 C 8.199219 5.015625 8.074219 5.019531 7.957031 5.003906 C 7.84375 4.988281 7.726562 4.953125 7.621094 4.902344 C 7.515625 4.851562 7.417969 4.785156 7.335938 4.703125 C 7.25 4.625 7.175781 4.523438 7.125 4.417969 C 7.070312 4.316406 7.035156 4.195312 7.019531 4.085938 C 7.003906 3.96875 7.003906 3.851562 7.027344 3.734375 C 7.046875 3.621094 7.089844 3.503906 7.144531 3.40625 C 7.199219 3.300781 7.273438 3.207031 7.363281 3.125 C 7.441406 3.050781 7.546875 2.984375 7.652344 2.933594 C 7.757812 2.890625 7.875 2.859375 7.992188 2.847656 C 8.109375 2.835938 8.230469 2.847656 8.347656 2.871094 C 8.457031 2.898438 8.570312 2.945312 8.667969 3.007812 C 8.765625 3.070312 8.859375 3.152344 8.933594 3.238281 C 9.003906 3.328125 9.078125 3.410156 9.109375 3.539062 C 9.15625 3.75 9.15625 4.179688 9.070312 4.402344 C 9.003906 4.574219 8.871094 4.699219 8.738281 4.796875 C 8.605469 4.898438 8.425781 4.976562 8.257812 5.003906 C 8.09375 5.027344 7.902344 5.007812 7.738281 4.953125 C 7.585938 4.902344 7.410156 4.773438 7.304688 4.671875 C 7.230469 4.605469 7.195312 4.554688 7.152344 4.464844 C 7.089844 4.332031 7.015625 4.140625 7.007812 3.960938 C 7.003906 3.761719 7.050781 3.546875 7.15625 3.324219 C 7.304688 3.015625 7.765625 2.625 7.902344 2.339844 C 7.988281 2.152344 7.96875 1.960938 8.023438 1.835938 C 8.066406 1.746094 8.105469 1.6875 8.171875 1.621094 C 8.273438 1.523438 8.4375 1.386719 8.601562 1.328125 C 8.753906 1.269531 8.945312 1.25 9.113281 1.269531 C 9.273438 1.285156 9.472656 1.378906 9.597656 1.453125 C 9.679688 1.503906 9.726562 1.546875 9.789062 1.628906 C 9.875 1.738281 9.980469 1.886719 10.023438 2.085938 C 10.097656 2.394531 10.03125 2.921875 9.992188 3.34375 C 9.957031 3.769531 9.914062 4.109375 9.800781 4.617188 C 9.621094 5.417969 9.082031 6.699219 8.902344 7.621094 C 8.75 8.382812 8.59375 9.15625 8.679688 9.746094 C 8.742188 10.179688 8.945312 10.425781 9.140625 10.847656 C 9.40625 11.4375 9.875 12.214844 10.160156 12.921875 C 10.445312 13.621094 10.636719 14.285156 10.859375 15.070312 C 11.125 16.007812 11.46875 17.398438 11.617188 18.1875 C 11.703125 18.65625 11.769531 19.035156 11.757812 19.332031 C 11.746094 19.53125 11.703125 19.695312 11.648438 19.828125 C 11.609375 19.914062 11.578125 19.96875 11.511719 20.039062 C 11.410156 20.136719 11.226562 20.273438 11.101562 20.335938 C 11.015625 20.378906 10.941406 20.390625 10.855469 20.402344 C 10.773438 20.414062 10.699219 20.421875 10.601562 20.410156 C 10.464844 20.382812 10.265625 20.328125 10.128906 20.234375 C 9.992188 20.148438 9.855469 19.988281 9.78125 19.871094 C 9.734375 19.789062 9.714844 19.734375 9.691406 19.636719 C 9.640625 19.457031 9.660156 19.214844 9.578125 18.886719 C 9.40625 18.21875 8.699219 16.667969 8.488281 15.902344 C 8.359375 15.429688 8.378906 15.113281 8.265625 14.75 C 8.160156 14.402344 7.988281 14.15625 7.855469 13.757812 C 7.671875 13.199219 7.347656 12.023438 7.320312 11.675781 C 7.304688 11.558594 7.3125 11.527344 7.335938 11.449219 C 7.367188 11.324219 7.4375 11.144531 7.527344 11.035156 C 7.621094 10.914062 7.78125 10.8125 7.886719 10.753906 C 7.96875 10.71875 8.023438 10.699219 8.109375 10.691406 C 8.234375 10.679688 8.445312 10.691406 8.5625 10.722656 C 8.648438 10.75 8.710938 10.78125 8.773438 10.824219 C 8.835938 10.859375 8.898438 10.898438 8.953125 10.964844 C 9.035156 11.058594 9.183594 11.363281 9.183594 11.363281 " clip-rule="nonzero"/></clipPath><clipPath id="014856c5e8"><path d="M 14.519531 15.601562 L 29 15.601562 L 29 31.515625 L 14.519531 31.515625 Z M 14.519531 15.601562 " clip-rule="nonzero"/></clipPath><clipPath id="0cfce03de9"><path d="M 14.53125 31.457031 C 15.351562 29.511719 15.609375 29.160156 15.921875 28.835938 C 16.230469 28.507812 16.664062 28.292969 16.996094 27.976562 C 17.324219 27.65625 17.628906 27.296875 17.914062 26.921875 C 18.199219 26.550781 18.464844 26.136719 18.710938 25.730469 C 18.953125 25.324219 19.195312 24.910156 19.382812 24.476562 C 19.566406 24.0625 19.679688 23.625 19.820312 23.195312 C 19.964844 22.757812 20.136719 22.328125 20.242188 21.882812 C 20.339844 21.441406 20.386719 20.996094 20.433594 20.546875 C 20.488281 20.082031 20.339844 19.492188 20.558594 19.121094 C 20.769531 18.75 21.742188 18.476562 21.730469 18.316406 C 21.722656 18.230469 21.492188 18.203125 21.386719 18.148438 C 21.289062 18.09375 21.195312 18.042969 21.117188 17.976562 C 21.035156 17.90625 20.960938 17.828125 20.890625 17.738281 C 20.832031 17.652344 20.773438 17.5625 20.738281 17.460938 C 20.695312 17.363281 20.664062 17.257812 20.644531 17.152344 C 20.632812 17.046875 20.625 16.941406 20.640625 16.835938 C 20.644531 16.722656 20.667969 16.621094 20.699219 16.519531 C 20.738281 16.421875 20.789062 16.320312 20.84375 16.230469 C 20.898438 16.140625 20.96875 16.054688 21.046875 15.980469 C 21.121094 15.90625 21.214844 15.84375 21.300781 15.789062 C 21.394531 15.738281 21.5 15.695312 21.597656 15.664062 C 21.703125 15.640625 21.808594 15.621094 21.914062 15.617188 C 22.027344 15.617188 22.132812 15.621094 22.238281 15.648438 C 22.339844 15.664062 22.539062 15.746094 22.539062 15.746094 C 22.539062 15.746094 22.898438 15.886719 23.132812 16.03125 C 23.53125 16.277344 24.222656 16.78125 24.625 17.195312 C 24.972656 17.5625 25.148438 17.980469 25.445312 18.359375 C 25.746094 18.742188 26.132812 19.070312 26.421875 19.480469 C 26.730469 19.90625 26.941406 20.421875 27.238281 20.875 C 27.539062 21.332031 27.957031 21.742188 28.207031 22.199219 C 28.441406 22.632812 28.621094 23.085938 28.707031 23.535156 C 28.792969 23.976562 28.707031 24.433594 28.75 24.878906 C 28.792969 25.324219 29.042969 25.851562 28.960938 26.230469 C 28.894531 26.539062 28.523438 26.761719 28.441406 27.015625 C 28.378906 27.214844 28.527344 27.414062 28.433594 27.605469 C 28.285156 27.921875 27.6875 28.398438 27.296875 28.546875 C 26.980469 28.664062 26.609375 28.484375 26.335938 28.589844 C 26.089844 28.683594 25.941406 28.898438 25.699219 29.078125 C 25.375 29.320312 24.972656 29.660156 24.589844 29.910156 C 24.210938 30.15625 23.835938 30.367188 23.414062 30.566406 C 22.949219 30.777344 22.421875 30.941406 21.90625 31.117188 C 21.382812 31.300781 20.816406 31.4375 20.285156 31.636719 C 19.757812 31.839844 19.257812 32.125 18.738281 32.324219 C 18.230469 32.515625 17.753906 32.75 17.207031 32.808594 C 16.621094 32.863281 15.785156 32.867188 15.324219 32.601562 C 14.933594 32.367188 14.53125 31.457031 14.53125 31.457031 " clip-rule="nonzero"/></clipPath><clipPath id="81550b24a4"><path d="M 14.277344 30.226562 L 16.738281 30.226562 L 16.738281 31.515625 L 14.277344 31.515625 Z M 14.277344 30.226562 " clip-rule="nonzero"/></clipPath><clipPath id="52e34bf96b"><path d="M 16.007812 32.0625 C 15.003906 32.21875 14.929688 32.179688 14.835938 32.144531 C 14.742188 32.101562 14.65625 32.046875 14.582031 31.976562 C 14.507812 31.910156 14.441406 31.820312 14.398438 31.734375 C 14.347656 31.648438 14.308594 31.542969 14.296875 31.449219 C 14.277344 31.351562 14.277344 31.238281 14.292969 31.140625 C 14.308594 31.042969 14.339844 30.941406 14.382812 30.855469 C 14.433594 30.761719 14.496094 30.683594 14.570312 30.609375 C 14.636719 30.539062 14.726562 30.476562 14.816406 30.433594 C 14.910156 30.390625 15.007812 30.367188 15.109375 30.355469 C 15.207031 30.34375 15.3125 30.347656 15.414062 30.367188 C 15.511719 30.386719 15.609375 30.429688 15.695312 30.476562 C 15.785156 30.527344 15.863281 30.597656 15.933594 30.671875 C 15.996094 30.746094 16.050781 30.835938 16.09375 30.929688 C 16.128906 31.023438 16.148438 31.128906 16.160156 31.226562 C 16.167969 31.328125 16.15625 31.433594 16.128906 31.53125 C 16.105469 31.625 16.054688 31.722656 16.007812 31.804688 C 15.949219 31.890625 15.875 31.964844 15.796875 32.027344 C 15.714844 32.089844 15.621094 32.136719 15.53125 32.175781 C 15.4375 32.207031 15.332031 32.222656 15.234375 32.222656 C 15.128906 32.222656 15.023438 32.210938 14.929688 32.179688 C 14.835938 32.148438 14.738281 32.101562 14.65625 32.039062 C 14.582031 31.984375 14.507812 31.902344 14.445312 31.820312 C 14.390625 31.742188 14.347656 31.640625 14.316406 31.550781 C 14.292969 31.449219 14.277344 31.34375 14.285156 31.246094 C 14.285156 31.148438 14.308594 31.042969 14.347656 30.949219 C 14.378906 30.855469 14.433594 30.761719 14.496094 30.683594 C 14.5625 30.609375 14.644531 30.539062 14.730469 30.484375 C 14.8125 30.433594 14.898438 30.402344 15.007812 30.371094 C 15.164062 30.324219 15.40625 30.261719 15.585938 30.242188 C 15.746094 30.230469 15.914062 30.230469 16.03125 30.25 C 16.117188 30.269531 16.167969 30.285156 16.242188 30.335938 C 16.347656 30.398438 16.488281 30.515625 16.570312 30.632812 C 16.652344 30.757812 16.707031 30.910156 16.726562 31.054688 C 16.738281 31.195312 16.71875 31.363281 16.664062 31.5 C 16.605469 31.628906 16.515625 31.765625 16.402344 31.859375 C 16.296875 31.953125 16.007812 32.0625 16.007812 32.0625 " clip-rule="nonzero"/></clipPath><clipPath id="895af3c1ce"><path d="M 20 14 L 27 14 L 27 23 L 20 23 Z M 20 14 " clip-rule="nonzero"/></clipPath><clipPath id="6576b85148"><path d="M 19.679688 15.183594 L 24.488281 13.628906 L 27.164062 21.890625 L 22.355469 23.445312 Z M 19.679688 15.183594 " clip-rule="nonzero"/></clipPath><clipPath id="2bf9e983c7"><path d="M 22.230469 21.332031 C 20.507812 17.855469 20.296875 17.105469 20.277344 16.625 C 20.265625 16.320312 20.324219 16.125 20.40625 15.898438 C 20.488281 15.671875 20.601562 15.449219 20.75 15.253906 C 20.898438 15.0625 21.085938 14.890625 21.285156 14.761719 C 21.488281 14.628906 21.726562 14.519531 21.960938 14.453125 C 22.1875 14.402344 22.445312 14.375 22.691406 14.382812 C 22.929688 14.40625 23.179688 14.457031 23.398438 14.554688 C 23.625 14.644531 23.835938 14.785156 24.019531 14.9375 C 24.203125 15.097656 24.371094 15.300781 24.492188 15.503906 C 24.613281 15.707031 24.703125 15.953125 24.753906 16.179688 C 24.796875 16.421875 24.816406 16.679688 24.78125 16.914062 C 24.75 17.15625 24.683594 17.398438 24.578125 17.621094 C 24.472656 17.84375 24.328125 18.042969 24.164062 18.21875 C 23.988281 18.398438 23.785156 18.550781 23.574219 18.652344 C 23.359375 18.769531 23.117188 18.847656 22.875 18.878906 C 22.644531 18.921875 22.378906 18.917969 22.144531 18.875 C 21.90625 18.828125 21.671875 18.75 21.457031 18.632812 C 21.242188 18.515625 21.035156 18.359375 20.878906 18.179688 C 20.710938 18.011719 20.574219 17.789062 20.46875 17.570312 C 20.378906 17.355469 20.308594 17.101562 20.285156 16.867188 C 20.265625 16.628906 20.28125 16.371094 20.335938 16.128906 C 20.394531 15.902344 20.484375 15.664062 20.613281 15.453125 C 20.734375 15.25 20.90625 15.0625 21.089844 14.902344 C 21.28125 14.75 21.507812 14.625 21.71875 14.53125 C 21.949219 14.449219 22.199219 14.398438 22.445312 14.386719 C 22.6875 14.375 22.941406 14.402344 23.171875 14.472656 C 23.402344 14.539062 23.628906 14.65625 23.828125 14.789062 C 24.027344 14.925781 24.195312 15.070312 24.359375 15.304688 C 24.59375 15.648438 24.695312 16.199219 24.953125 16.757812 C 25.316406 17.546875 26.148438 18.816406 26.382812 19.535156 C 26.53125 19.964844 26.566406 20.304688 26.5625 20.605469 C 26.566406 20.816406 26.511719 20.964844 26.457031 21.136719 C 26.402344 21.308594 26.351562 21.457031 26.230469 21.628906 C 26.054688 21.875 25.753906 22.207031 25.445312 22.382812 C 25.152344 22.566406 24.710938 22.664062 24.410156 22.695312 C 24.207031 22.71875 24.070312 22.707031 23.863281 22.652344 C 23.585938 22.578125 23.15625 22.417969 22.886719 22.195312 C 22.617188 21.972656 22.230469 21.332031 22.230469 21.332031 " clip-rule="nonzero"/></clipPath><clipPath id="98717f3349"><path d="M 0.613281 19.433594 L 18.945312 19.433594 L 18.945312 31.515625 L 0.613281 31.515625 Z M 0.613281 19.433594 " clip-rule="nonzero"/></clipPath><clipPath id="05d21e788b"><path d="M -0.078125 20.621094 C 0.0390625 20.207031 0.0898438 20.105469 0.152344 20.019531 C 0.210938 19.929688 0.285156 19.84375 0.367188 19.773438 C 0.449219 19.703125 0.542969 19.636719 0.636719 19.585938 C 0.730469 19.535156 0.835938 19.496094 0.9375 19.472656 C 1.042969 19.449219 1.148438 19.433594 1.261719 19.433594 C 1.371094 19.433594 1.476562 19.449219 1.582031 19.472656 C 1.6875 19.496094 1.890625 19.585938 1.890625 19.585938 C 1.890625 19.585938 2.160156 19.722656 2.351562 19.828125 C 2.667969 20.011719 3.1875 20.324219 3.59375 20.574219 C 4.007812 20.820312 4.382812 21.113281 4.816406 21.328125 C 5.25 21.546875 5.738281 21.703125 6.195312 21.859375 C 6.632812 22.015625 7.042969 22.191406 7.507812 22.273438 C 7.996094 22.355469 8.539062 22.320312 9.046875 22.332031 C 9.550781 22.335938 10.039062 22.332031 10.539062 22.332031 C 11.042969 22.332031 11.535156 22.320312 12.042969 22.332031 C 12.578125 22.34375 13.136719 22.40625 13.65625 22.414062 C 14.164062 22.417969 14.65625 22.449219 15.132812 22.367188 C 15.597656 22.285156 16 22.042969 16.480469 21.941406 C 17.015625 21.835938 17.804688 21.527344 18.207031 21.78125 C 18.632812 22.035156 18.976562 23.046875 18.90625 23.566406 C 18.84375 24.023438 18.351562 24.378906 18.03125 24.757812 C 17.710938 25.132812 17.308594 25.421875 16.988281 25.816406 C 16.640625 26.234375 16.324219 26.761719 16.03125 27.226562 C 15.753906 27.664062 15.554688 28.128906 15.265625 28.519531 C 14.984375 28.882812 14.613281 29.144531 14.332031 29.507812 C 14.03125 29.890625 13.855469 30.410156 13.515625 30.769531 C 13.179688 31.125 12.746094 31.578125 12.289062 31.652344 C 11.8125 31.722656 11.171875 31.355469 10.703125 31.125 C 10.277344 30.917969 9.96875 30.625 9.566406 30.367188 C 9.125 30.078125 8.601562 29.777344 8.140625 29.476562 C 7.695312 29.1875 7.253906 28.875 6.828125 28.59375 C 6.433594 28.324219 6.078125 28.085938 5.683594 27.820312 C 5.253906 27.539062 4.785156 27.289062 4.359375 26.964844 C 3.914062 26.617188 3.464844 26.21875 3.074219 25.785156 C 2.679688 25.347656 2.089844 24.839844 2.003906 24.335938 C 1.925781 23.898438 2.308594 23.089844 2.421875 22.984375 C 2.449219 22.957031 2.492188 22.976562 2.492188 22.964844 C 2.503906 22.894531 1.445312 22.398438 1.101562 22.21875 C 0.90625 22.117188 0.765625 22.054688 0.636719 21.972656 C 0.53125 21.910156 0.449219 21.859375 0.367188 21.792969 C 0.285156 21.714844 0.214844 21.636719 0.152344 21.546875 C 0.0898438 21.460938 0.0390625 21.359375 0.00390625 21.257812 C -0.0351562 21.160156 -0.0664062 21.050781 -0.078125 20.945312 C -0.0898438 20.839844 -0.078125 20.621094 -0.078125 20.621094 M 8.378906 25.1875 C 8.382812 25.1875 8.382812 25.1875 8.382812 25.1875 C 8.382812 25.1875 8.378906 25.1875 8.378906 25.1875 M 14.039062 25.0625 C 14.175781 25.121094 14.199219 25.078125 14.195312 25.0625 C 14.183594 25.046875 14.039062 25.0625 14.039062 25.0625 " clip-rule="nonzero"/></clipPath><clipPath id="2f52480847"><path d="M 0.613281 17.367188 L 19.261719 17.367188 L 19.261719 29.683594 L 0.613281 29.683594 Z M 0.613281 17.367188 " clip-rule="nonzero"/></clipPath><clipPath id="6c07e81686"><path d="M 18.273438 23.921875 C 8.453125 24.09375 8.246094 24.070312 7.886719 23.996094 C 7.546875 23.925781 7.214844 23.832031 6.902344 23.699219 C 6.617188 23.574219 6.382812 23.417969 6.105469 23.234375 C 5.777344 23.015625 5.441406 22.769531 5.089844 22.464844 C 4.644531 22.085938 4.199219 21.5 3.664062 21.109375 C 3.125 20.707031 2.351562 20.410156 1.855469 20.113281 C 1.511719 19.894531 1.003906 19.753906 0.976562 19.523438 C 0.953125 19.277344 1.453125 18.75 1.792969 18.675781 C 2.183594 18.589844 2.792969 18.921875 3.238281 19.25 C 3.78125 19.660156 4.078125 20.507812 4.699219 21.097656 C 5.453125 21.820312 6.722656 22.527344 7.546875 23.164062 C 8.214844 23.679688 8.859375 24.167969 9.304688 24.609375 C 9.628906 24.921875 9.765625 25.222656 10.050781 25.5 C 10.351562 25.804688 10.667969 26.050781 11.078125 26.359375 C 11.628906 26.773438 12.699219 27.820312 13.078125 27.710938 C 13.320312 27.640625 13.3125 27.148438 13.46875 26.832031 C 13.652344 26.445312 14.230469 25.671875 14.148438 25.578125 C 14.113281 25.53125 13.933594 25.667969 13.816406 25.679688 C 13.695312 25.699219 13.574219 25.691406 13.460938 25.671875 C 13.351562 25.648438 13.230469 25.605469 13.132812 25.550781 C 13.035156 25.488281 12.933594 25.414062 12.859375 25.324219 C 12.78125 25.238281 12.710938 25.132812 12.667969 25.027344 C 12.625 24.921875 12.59375 24.800781 12.589844 24.6875 C 12.574219 24.570312 12.589844 24.445312 12.613281 24.335938 C 12.644531 24.222656 12.695312 24.105469 12.753906 24.011719 C 12.816406 23.914062 12.902344 23.820312 12.992188 23.753906 C 13.082031 23.679688 13.1875 23.617188 13.300781 23.578125 C 13.40625 23.535156 13.53125 23.519531 13.648438 23.511719 C 13.757812 23.511719 13.882812 23.53125 13.992188 23.5625 C 14.105469 23.597656 14.21875 23.652344 14.308594 23.722656 C 14.402344 23.789062 14.488281 23.878906 14.558594 23.96875 C 14.625 24.0625 14.679688 24.175781 14.710938 24.285156 C 14.75 24.398438 14.761719 24.519531 14.761719 24.632812 C 14.753906 24.75 14.730469 24.875 14.695312 24.980469 C 14.652344 25.089844 14.589844 25.195312 14.515625 25.289062 C 14.445312 25.375 14.351562 25.457031 14.253906 25.519531 C 14.15625 25.585938 14.042969 25.628906 13.933594 25.660156 C 13.816406 25.683594 13.695312 25.699219 13.578125 25.683594 C 13.460938 25.679688 13.34375 25.648438 13.238281 25.597656 C 13.132812 25.554688 13.027344 25.488281 12.941406 25.40625 C 12.855469 25.332031 12.78125 25.234375 12.722656 25.132812 C 12.664062 25.035156 12.625 24.917969 12.601562 24.800781 C 12.582031 24.6875 12.574219 24.5625 12.59375 24.453125 C 12.605469 24.335938 12.644531 24.21875 12.699219 24.113281 C 12.75 24.011719 12.824219 23.90625 12.902344 23.828125 C 12.984375 23.746094 13.054688 23.671875 13.1875 23.625 C 13.460938 23.53125 14.113281 23.429688 14.507812 23.542969 C 14.90625 23.652344 15.3125 23.988281 15.574219 24.28125 C 15.796875 24.527344 15.949219 24.804688 16.039062 25.128906 C 16.144531 25.480469 16.160156 25.957031 16.097656 26.328125 C 16.042969 26.664062 15.875 26.960938 15.722656 27.257812 C 15.5625 27.566406 15.367188 27.890625 15.152344 28.15625 C 14.941406 28.417969 14.695312 28.644531 14.433594 28.835938 C 14.171875 29.027344 13.882812 29.191406 13.574219 29.320312 C 13.25 29.457031 12.859375 29.660156 12.519531 29.636719 C 12.179688 29.605469 11.902344 29.371094 11.523438 29.152344 C 10.992188 28.835938 10.199219 28.242188 9.671875 27.851562 C 9.269531 27.554688 8.917969 27.332031 8.625 27.027344 C 8.363281 26.761719 8.296875 26.484375 7.992188 26.175781 C 7.515625 25.679688 6.605469 25.046875 5.882812 24.515625 C 5.15625 23.988281 4.222656 23.46875 3.644531 22.992188 C 3.238281 22.652344 3.015625 22.398438 2.675781 22.019531 C 2.242188 21.542969 1.714844 20.761719 1.28125 20.324219 C 0.957031 20 0.605469 19.84375 0.363281 19.5625 C 0.136719 19.289062 -0.164062 18.984375 -0.15625 18.664062 C -0.148438 18.285156 0.269531 17.574219 0.636719 17.417969 C 0.988281 17.277344 1.546875 17.546875 1.957031 17.695312 C 2.351562 17.832031 2.648438 18.03125 3.058594 18.261719 C 3.585938 18.558594 4.332031 18.992188 4.839844 19.355469 C 5.257812 19.652344 5.597656 19.949219 5.898438 20.25 C 6.171875 20.503906 6.347656 20.804688 6.605469 21.023438 C 6.859375 21.238281 7.144531 21.414062 7.4375 21.5625 C 7.734375 21.710938 8.042969 21.839844 8.371094 21.914062 C 8.710938 21.988281 8.984375 21.980469 9.460938 21.996094 C 10.363281 22.019531 12 21.933594 13.398438 21.9375 C 14.992188 21.9375 17.925781 21.925781 18.503906 22.039062 C 18.625 22.0625 18.644531 22.074219 18.71875 22.117188 C 18.824219 22.179688 18.980469 22.296875 19.058594 22.421875 C 19.144531 22.546875 19.203125 22.726562 19.226562 22.847656 C 19.238281 22.9375 19.234375 23.003906 19.226562 23.078125 C 19.214844 23.152344 19.203125 23.21875 19.171875 23.300781 C 19.117188 23.417969 18.996094 23.59375 18.910156 23.679688 C 18.847656 23.742188 18.800781 23.773438 18.71875 23.808594 C 18.609375 23.859375 18.273438 23.921875 18.273438 23.921875 " clip-rule="nonzero"/></clipPath><clipPath id="e52f7df93c"><path d="M 9.320312 0 L 28.449219 0 L 28.449219 13.367188 L 9.320312 13.367188 Z M 9.320312 0 " clip-rule="nonzero"/></clipPath><clipPath id="742e8fcada"><path d="M 9.335938 10.160156 C 9.4375 8.792969 9.460938 8.804688 9.472656 8.785156 C 9.503906 8.710938 9.394531 8.394531 9.378906 8.136719 C 9.355469 7.746094 9.410156 7.136719 9.417969 6.65625 C 9.425781 6.191406 9.351562 5.738281 9.417969 5.285156 C 9.484375 4.816406 9.734375 4.363281 9.855469 3.882812 C 9.980469 3.386719 9.988281 2.660156 10.15625 2.351562 C 10.242188 2.183594 10.441406 2.128906 10.484375 2.015625 C 10.515625 1.941406 10.476562 1.867188 10.484375 1.800781 C 10.488281 1.75 10.5 1.707031 10.507812 1.65625 C 10.515625 1.613281 10.507812 1.554688 10.515625 1.515625 C 10.519531 1.492188 10.539062 1.472656 10.542969 1.449219 C 10.550781 1.429688 10.542969 1.402344 10.550781 1.378906 C 10.570312 1.34375 10.601562 1.292969 10.617188 1.25 C 10.644531 1.207031 10.65625 1.148438 10.675781 1.121094 C 10.6875 1.09375 10.707031 1.082031 10.722656 1.0625 C 10.738281 1.039062 10.738281 1.019531 10.753906 0.996094 C 10.78125 0.964844 10.828125 0.933594 10.859375 0.894531 C 10.890625 0.867188 10.921875 0.816406 10.953125 0.792969 C 10.976562 0.773438 10.996094 0.765625 11.015625 0.746094 C 11.035156 0.734375 11.046875 0.714844 11.070312 0.699219 C 11.101562 0.679688 11.15625 0.660156 11.203125 0.640625 C 11.246094 0.617188 11.289062 0.582031 11.324219 0.566406 C 11.351562 0.554688 11.375 0.554688 11.394531 0.550781 C 11.417969 0.542969 11.4375 0.542969 11.457031 0.523438 C 11.503906 0.449219 11.378906 0.0976562 11.503906 -0.0390625 C 11.714844 -0.269531 12.648438 -0.261719 13.054688 -0.292969 C 13.308594 -0.3125 13.480469 -0.253906 13.671875 -0.292969 C 13.859375 -0.324219 13.957031 -0.417969 14.191406 -0.472656 C 14.652344 -0.582031 15.636719 -0.65625 16.304688 -0.71875 C 16.90625 -0.78125 17.472656 -0.832031 18.019531 -0.851562 C 18.519531 -0.875 18.960938 -0.882812 19.460938 -0.863281 C 20.007812 -0.84375 20.613281 -0.8125 21.175781 -0.714844 C 21.757812 -0.613281 22.367188 -0.472656 22.90625 -0.253906 C 23.425781 -0.046875 23.933594 0.265625 24.371094 0.554688 C 24.773438 0.828125 25.058594 1.195312 25.457031 1.429688 C 25.859375 1.664062 26.335938 1.769531 26.78125 1.980469 C 27.246094 2.195312 27.921875 2.328125 28.179688 2.71875 C 28.441406 3.121094 28.515625 3.949219 28.3125 4.375 C 28.121094 4.773438 27.539062 5.082031 27.078125 5.226562 C 26.601562 5.375 26.007812 5.230469 25.5 5.230469 C 25.015625 5.230469 24.558594 5.175781 24.089844 5.230469 C 23.609375 5.292969 23.140625 5.503906 22.664062 5.609375 C 22.199219 5.707031 21.714844 5.726562 21.257812 5.839844 C 20.8125 5.941406 20.378906 6.0625 19.957031 6.242188 C 19.519531 6.425781 19.046875 6.628906 18.675781 6.933594 C 18.296875 7.238281 18.050781 7.703125 17.703125 8.066406 C 17.34375 8.433594 16.921875 8.761719 16.550781 9.121094 C 16.1875 9.46875 15.839844 9.8125 15.488281 10.183594 C 15.109375 10.574219 14.78125 11.125 14.351562 11.410156 C 13.964844 11.671875 13.398438 11.914062 13.070312 11.886719 C 12.847656 11.875 12.621094 11.554688 12.539062 11.597656 C 12.46875 11.640625 12.546875 11.894531 12.539062 12.023438 C 12.53125 12.140625 12.527344 12.242188 12.496094 12.347656 C 12.46875 12.445312 12.433594 12.550781 12.382812 12.644531 C 12.335938 12.738281 12.273438 12.828125 12.203125 12.910156 C 12.128906 12.992188 12.050781 13.066406 11.960938 13.121094 C 11.875 13.183594 11.777344 13.230469 11.679688 13.269531 C 11.578125 13.3125 11.472656 13.335938 11.367188 13.351562 C 11.261719 13.363281 11.152344 13.363281 11.046875 13.351562 C 10.941406 13.335938 10.804688 13.300781 10.730469 13.269531 C 10.695312 13.257812 10.675781 13.238281 10.644531 13.226562 C 10.601562 13.207031 10.515625 13.195312 10.515625 13.195312 C 10.515625 13.195312 10.421875 13.144531 10.371094 13.121094 C 10.320312 13.097656 10.230469 13.046875 10.230469 13.046875 C 10.230469 13.046875 10.148438 12.976562 10.105469 12.941406 C 10.066406 12.902344 9.988281 12.835938 9.988281 12.835938 C 9.980469 12.835938 9.925781 12.75 9.894531 12.707031 C 9.863281 12.664062 9.800781 12.574219 9.800781 12.574219 C 9.800781 12.570312 9.765625 12.476562 9.738281 12.425781 C 9.722656 12.378906 9.683594 12.277344 9.683594 12.277344 C 9.683594 12.277344 9.683594 12.277344 9.683594 12.273438 C 9.683594 12.273438 9.664062 11.78125 9.628906 11.484375 C 9.574219 11.101562 9.335938 10.160156 9.335938 10.160156 M 14.667969 4.496094 C 14.816406 4.320312 14.742188 4.320312 14.71875 4.339844 C 14.6875 4.363281 14.667969 4.496094 14.667969 4.496094 " clip-rule="nonzero"/></clipPath><clipPath id="53323c95eb"><path d="M 13.421875 2.988281 L 16.035156 2.988281 L 16.035156 5.660156 L 13.421875 5.660156 Z M 13.421875 2.988281 " clip-rule="nonzero"/></clipPath><clipPath id="efb23ab18c"><path d="M 16.023438 3.925781 C 16.023438 4.765625 15.925781 4.976562 15.800781 5.144531 C 15.671875 5.304688 15.488281 5.449219 15.300781 5.535156 C 15.109375 5.621094 14.878906 5.664062 14.675781 5.652344 C 14.464844 5.640625 14.242188 5.566406 14.0625 5.460938 C 13.890625 5.355469 13.722656 5.1875 13.617188 5.007812 C 13.503906 4.835938 13.4375 4.605469 13.425781 4.402344 C 13.410156 4.195312 13.457031 3.960938 13.542969 3.777344 C 13.621094 3.582031 13.769531 3.398438 13.933594 3.273438 C 14.09375 3.144531 14.308594 3.050781 14.515625 3.015625 C 14.71875 2.976562 14.953125 2.988281 15.152344 3.050781 C 15.34375 3.113281 15.695312 3.378906 15.695312 3.378906 " clip-rule="nonzero"/></clipPath><clipPath id="fabec86183"><path d="M 9.292969 8.140625 L 23.0625 8.140625 L 23.0625 22.289062 L 9.292969 22.289062 Z M 9.292969 8.140625 " clip-rule="nonzero"/></clipPath><clipPath id="64b5f284fe"><path d="M 16.175781 8.140625 L 23.0625 13.523438 L 20.429688 22.234375 L 11.921875 22.234375 L 9.292969 13.523438 Z M 16.175781 8.140625 " clip-rule="nonzero"/></clipPath><clipPath id="8d7ca5dac3"><path d="M 0.613281 0 L 21 0 L 21 27 L 0.613281 27 Z M 0.613281 0 " clip-rule="nonzero"/></clipPath><clipPath id="c6244916fd"><path d="M 10 2 L 39 2 L 39 31.515625 L 10 31.515625 Z M 10 2 " clip-rule="nonzero"/></clipPath><clipPath id="5c4460ad35"><path d="M 2 9 L 30 9 L 30 31.515625 L 2 31.515625 Z M 2 9 " clip-rule="nonzero"/></clipPath><clipPath id="f26a3af259"><path d="M 0.613281 7 L 24 7 L 24 31 L 0.613281 31 Z M 0.613281 7 " clip-rule="nonzero"/></clipPath><clipPath id="406b10a94c"><path d="M 0.613281 0 L 47.203125 0 L 47.203125 31.515625 L 0.613281 31.515625 Z M 0.613281 0 " clip-rule="nonzero"/></clipPath><clipPath id="b8ed0590a5"><path d="M 16.527344 -14.855469 C -0.378906 -14.855469 -14.085938 -1.148438 -14.085938 15.757812 C -14.085938 32.664062 -0.378906 46.371094 16.527344 46.371094 C 33.433594 46.371094 47.140625 32.664062 47.140625 15.757812 C 47.140625 -1.148438 33.433594 -14.855469 16.527344 -14.855469 Z M 16.527344 30.933594 C 8.144531 30.933594 1.351562 24.140625 1.351562 15.757812 C 1.351562 7.378906 8.144531 0.582031 16.527344 0.582031 C 24.910156 0.582031 31.703125 7.375 31.703125 15.757812 C 31.703125 24.140625 24.910156 30.933594 16.527344 30.933594 Z M 16.527344 30.933594 " clip-rule="nonzero"/></clipPath></defs><g clip-path="url(#1065a33817)"><path fill="#ffffff" d="M 0.613281 0 L 84.902344 0 L 84.902344 31.515625 L 0.613281 31.515625 Z M 0.613281 0 " fill-opacity="1" fill-rule="nonzero"/><path fill="#171717" d="M 0.613281 0 L 84.902344 0 L 84.902344 31.515625 L 0.613281 31.515625 Z M 0.613281 0 " fill-opacity="1" fill-rule="nonzero"/></g><g clip-path="url(#18963086ca)"><g clip-path="url(#2f6d620994)"><path fill="#4298b4" d="M 16.578125 5.640625 L 32.816406 5.640625 L 32.816406 24.78125 L 16.578125 24.78125 Z M 16.578125 5.640625 " fill-opacity="1" fill-rule="nonzero"/></g></g><g clip-path="url(#4a0864b8d6)"><g clip-path="url(#7ee9fa8f34)"><path fill="#4298b4" d="M 19.699219 8.5625 L 22.835938 8.5625 L 22.835938 11.703125 L 19.699219 11.703125 Z M 19.699219 8.5625 " fill-opacity="1" fill-rule="nonzero"/></g></g><g clip-path="url(#56bdf8760c)"><g clip-path="url(#257e539386)"><path fill="#e4ae3a" d="M -0.328125 1.398438 L 13.15625 1.398438 L 13.15625 22.101562 L -0.328125 22.101562 Z M -0.328125 1.398438 " fill-opacity="1" fill-rule="nonzero"/></g></g><g clip-path="url(#ce428e4e54)"><g clip-path="url(#8a18f69c97)"><path fill="#e4ae3a" d="M 6.421875 1.019531 L 12.007812 1.019531 L 12.007812 20.65625 L 6.421875 20.65625 Z M 6.421875 1.019531 " fill-opacity="1" fill-rule="nonzero"/></g></g><g clip-path="url(#014856c5e8)"><g clip-path="url(#0cfce03de9)"><path fill="#33a474" d="M 14.285156 15.367188 L 29.210938 15.367188 L 29.210938 33.03125 L 14.285156 33.03125 Z M 14.285156 15.367188 " fill-opacity="1" fill-rule="nonzero"/></g></g><g clip-path="url(#81550b24a4)"><g clip-path="url(#52e34bf96b)"><path fill="#33a474" d="M 14.039062 29.996094 L 16.980469 29.996094 L 16.980469 32.472656 L 14.039062 32.472656 Z M 14.039062 29.996094 " fill-opacity="1" fill-rule="nonzero"/></g></g><g clip-path="url(#895af3c1ce)"><g clip-path="url(#6576b85148)"><g clip-path="url(#2bf9e983c7)"><path fill="#33a474" d="M 19.160156 14.917969 L 24.753906 13.105469 L 27.671875 22.113281 L 22.074219 23.925781 Z M 19.160156 14.917969 " fill-opacity="1" fill-rule="nonzero"/></g></g></g><g clip-path="url(#98717f3349)"><g clip-path="url(#05d21e788b)"><path fill="#f25e62" d="M -0.328125 19.183594 L 19.144531 19.183594 L 19.144531 31.902344 L -0.328125 31.902344 Z M -0.328125 19.183594 " fill-opacity="1" fill-rule="nonzero"/></g></g><g clip-path="url(#2f52480847)"><g clip-path="url(#6c07e81686)"><path fill="#f25e62" d="M -0.402344 17.171875 L 19.460938 17.171875 L 19.460938 29.882812 L -0.402344 29.882812 Z M -0.402344 17.171875 " fill-opacity="1" fill-rule="nonzero"/></g></g><g clip-path="url(#e52f7df93c)"><g clip-path="url(#742e8fcada)"><path fill="#88619a" d="M 9.089844 -1.109375 L 28.566406 -1.109375 L 28.566406 13.597656 L 9.089844 13.597656 Z M 9.089844 -1.109375 " fill-opacity="1" fill-rule="nonzero"/></g></g><g clip-path="url(#53323c95eb)"><g clip-path="url(#efb23ab18c)"><path fill="#88619a" d="M 13.175781 2.765625 L 16.316406 2.765625 L 16.316406 5.90625 L 13.175781 5.90625 Z M 13.175781 2.765625 " fill-opacity="1" fill-rule="nonzero"/></g></g><g clip-path="url(#fabec86183)"><g clip-path="url(#64b5f284fe)"><path fill="#171717" d="M 9.292969 8.140625 L 23.0625 8.140625 L 23.0625 22.234375 L 9.292969 22.234375 Z M 9.292969 8.140625 " fill-opacity="1" fill-rule="nonzero"/></g></g><g clip-path="url(#8d7ca5dac3)"><path stroke-linecap="butt" transform="matrix(0.00185363, 0.0601372, -0.0601372, 0.00185363, 11.922944, -0.243045)" fill="none" stroke-linejoin="miter" d="M 6.145055 11.834237 C 95.995751 59.747872 193.949813 59.714234 300.068136 11.865111 " stroke="#171717" stroke-width="26" stroke-opacity="1" stroke-miterlimit="4"/></g><path stroke-linecap="butt" transform="matrix(-0.0570809, 0.0190184, -0.0190184, -0.0570809, 30.942514, 6.185446)" fill="none" stroke-linejoin="miter" d="M 6.127591 11.860056 C 95.977789 59.726186 193.972306 59.733424 300.049547 11.861247 " stroke="#171717" stroke-width="26" stroke-opacity="1" stroke-miterlimit="4"/><g clip-path="url(#c6244916fd)"><path stroke-linecap="butt" transform="matrix(-0.0351864, -0.0488041, 0.0488041, -0.0351864, 29.042013, 26.792659)" fill="none" stroke-linejoin="miter" d="M 6.092943 11.856096 C 96.035554 59.733982 193.985898 59.75882 300.072579 11.86325 " stroke="#171717" stroke-width="26" stroke-opacity="1" stroke-miterlimit="4"/></g><g clip-path="url(#5c4460ad35)"><path stroke-linecap="butt" transform="matrix(0.0340572, -0.0495987, 0.0495987, 0.0340572, 10.085018, 32.495527)" fill="none" stroke-linejoin="miter" d="M 5.314045 11.884764 C 101.059103 54.74698 196.882278 54.711685 292.676526 11.852382 " stroke="#171717" stroke-width="26" stroke-opacity="1" stroke-miterlimit="4"/></g><g clip-path="url(#f26a3af259)"><path stroke-linecap="butt" transform="matrix(0.0563964, 0.0209612, -0.0209612, 0.0563964, 0.592815, 15.300466)" fill="none" stroke-linejoin="miter" d="M 7.270187 11.502591 C 79.538053 60.209545 161.461921 60.16732 252.942696 11.482011 " stroke="#171717" stroke-width="26" stroke-opacity="1" stroke-miterlimit="4"/></g><g clip-path="url(#406b10a94c)"><g clip-path="url(#b8ed0590a5)"><path fill="#171717" d="M -14.394531 -15.164062 L 47.449219 -15.164062 L 47.449219 46.679688 L -14.394531 46.679688 Z M -14.394531 -15.164062 " fill-opacity="1" fill-rule="nonzero"/></g></g><g fill="#ffffff" fill-opacity="1"><g transform="translate(40.9282, 23.088067)"><g><path d="M 4.328125 0 L 7.023438 0 L 7.023438 -11.222656 L 10.84375 -11.222656 L 10.84375 -13.460938 L 0.546875 -13.460938 L 0.546875 -11.222656 L 4.328125 -11.222656 Z M 4.328125 0 "/></g></g></g><g fill="#ffffff" fill-opacity="1"><g transform="translate(52.294698, 23.088067)"><g><path d="M 1.65625 0 L 4.347656 0 L 4.347656 -13.460938 L 1.65625 -13.460938 Z M 1.65625 0 "/></g></g></g><g fill="#ffffff" fill-opacity="1"><g transform="translate(58.296211, 23.088067)"><g><path d="M 1.65625 0 L 4.347656 0 L 4.347656 -4.785156 L 6.148438 -4.785156 C 9.042969 -4.785156 11.351562 -6.167969 11.351562 -9.242188 C 11.351562 -12.425781 9.058594 -13.460938 6.074219 -13.460938 L 1.65625 -13.460938 Z M 4.347656 -6.914062 L 4.347656 -11.332031 L 5.875 -11.332031 C 7.730469 -11.332031 8.714844 -10.804688 8.714844 -9.242188 C 8.714844 -7.695312 7.824219 -6.914062 5.96875 -6.914062 Z M 4.347656 -6.914062 "/></g></g></g><g fill="#ffffff" fill-opacity="1"><g transform="translate(70.426543, 23.088067)"><g><path d="M 1.65625 0 L 4.347656 0 L 4.347656 -13.460938 L 1.65625 -13.460938 Z M 1.65625 0 "/></g></g></g></svg>