<svg xmlns="http://www.w3.org/2000/svg" xmlns:xlink="http://www.w3.org/1999/xlink" width="500" zoomAndPan="magnify" viewBox="0 0 375 374.999991" height="500" preserveAspectRatio="xMidYMid meet" version="1.0"><defs><clipPath id="77b0cb4487"><path d="M 187.5 0 C 83.945312 0 0 83.945312 0 187.5 C 0 291.054688 83.945312 375 187.5 375 C 291.054688 375 375 291.054688 375 187.5 C 375 83.945312 291.054688 0 187.5 0 Z M 187.5 0 " clip-rule="nonzero"/></clipPath><clipPath id="7fdccd0d75"><path d="M 91.828125 98.21875 L 263.46875 98.21875 L 263.46875 274 L 91.828125 274 Z M 91.828125 98.21875 " clip-rule="nonzero"/></clipPath><clipPath id="cafbbe46b9"><path d="M 177.648438 98.21875 L 263.46875 165.320312 L 230.6875 273.886719 L 124.609375 273.886719 L 91.828125 165.320312 Z M 177.648438 98.21875 " clip-rule="nonzero"/></clipPath><clipPath id="ca8fe1e151"><path d="M 268.554688 297.753906 L 275.949219 297.753906 L 275.949219 305.808594 L 268.554688 305.808594 Z M 268.554688 297.753906 " clip-rule="nonzero"/></clipPath><clipPath id="c5f6657545"><path d="M 242 259.304688 L 260 259.304688 L 260 284 L 242 284 Z M 242 259.304688 " clip-rule="nonzero"/></clipPath><clipPath id="af93849ef9"><path d="M 298.035156 260.363281 L 315.007812 260.363281 L 315.007812 284.207031 L 298.035156 284.207031 Z M 298.035156 260.363281 " clip-rule="nonzero"/></clipPath><clipPath id="9673fe6acd"><path d="M 293 89.464844 L 306 89.464844 L 306 110 L 293 110 Z M 293 89.464844 " clip-rule="nonzero"/></clipPath><clipPath id="0124fe751d"><path d="M 251.035156 125 L 282 125 L 282 141 L 251.035156 141 Z M 251.035156 125 " clip-rule="nonzero"/></clipPath><clipPath id="453a2bfbbc"><path d="M 300 125 L 330.535156 125 L 330.535156 141 L 300 141 Z M 300 125 " clip-rule="nonzero"/></clipPath><clipPath id="164423e746"><path d="M 119.382812 50 L 159 50 L 159 89.722656 L 119.382812 89.722656 Z M 119.382812 50 " clip-rule="nonzero"/></clipPath><clipPath id="0449e89191"><path d="M 106.046875 283 L 163.046875 283 L 163.046875 339.886719 L 106.046875 339.886719 Z M 106.046875 283 " clip-rule="nonzero"/></clipPath><clipPath id="bfcbb270d6"><path d="M 24.011719 140.855469 L 82.511719 140.855469 L 82.511719 214.355469 L 24.011719 214.355469 Z M 24.011719 140.855469 " clip-rule="nonzero"/></clipPath></defs><g clip-path="url(#77b0cb4487)"><rect x="-37.5" width="450" fill="#171717" y="-37.499999" height="449.999989" fill-opacity="1"/></g><g clip-path="url(#7fdccd0d75)"><g clip-path="url(#cafbbe46b9)"><path fill="#ffffff" d="M 91.828125 98.21875 L 263.46875 98.21875 L 263.46875 273.886719 L 91.828125 273.886719 Z M 91.828125 98.21875 " fill-opacity="1" fill-rule="nonzero"/></g></g><path stroke-linecap="butt" transform="matrix(0.0382045, 0.749026, -0.749026, 0.0382045, 119.138932, -3.665125)" fill="none" stroke-linejoin="miter" d="M 2.734755 4.486624 C 97.192853 66.201292 207.205481 66.201092 332.772641 4.486022 " stroke="#ffffff" stroke-width="10" stroke-opacity="1" stroke-miterlimit="4"/><path stroke-linecap="butt" transform="matrix(-0.739476, 0.125198, -0.125198, -0.739476, 381.422528, 88.608421)" fill="none" stroke-linejoin="miter" d="M 2.743182 4.176713 C 105.261844 71.495221 207.77779 71.498961 310.292757 4.177664 " stroke="#ffffff" stroke-width="10" stroke-opacity="1" stroke-miterlimit="4"/><path stroke-linecap="butt" transform="matrix(-0.293435, -0.690215, 0.690215, -0.293435, 340.348429, 377.682369)" fill="none" stroke-linejoin="miter" d="M 1.944968 4.606282 C 120.302913 54.630119 223.696228 54.629138 312.129707 4.605375 " stroke="#ffffff" stroke-width="10" stroke-opacity="1" stroke-miterlimit="4"/><path stroke-linecap="butt" transform="matrix(0.706199, 0.252554, -0.252554, 0.706199, -18.755442, 186.496805)" fill="none" stroke-linejoin="miter" d="M 3.275418 4.419846 C 79.253555 70.291504 179.549439 70.294252 304.149756 4.42179 " stroke="#ffffff" stroke-width="10" stroke-opacity="1" stroke-miterlimit="4"/><path stroke-linecap="butt" transform="matrix(0.47873, -0.577336, 0.577336, 0.47873, 102.788837, 378.814751)" fill="none" stroke-linejoin="miter" d="M 3.290141 4.362943 C 76.952266 68.82481 171.373079 68.826574 286.560599 4.361588 " stroke="#ffffff" stroke-width="10" stroke-opacity="1" stroke-miterlimit="4"/><path fill="#c2e4d5" d="M 266.734375 293.46875 L 263.085938 298.371094 C 262.308594 299.410156 262.527344 300.894531 263.566406 301.667969 L 263.824219 301.859375 C 264.242188 302.171875 264.734375 302.320312 265.226562 302.320312 C 265.945312 302.320312 266.660156 301.992188 267.121094 301.375 L 270.769531 296.472656 C 271.542969 295.433594 271.324219 293.949219 270.285156 293.175781 L 270.03125 292.984375 C 269.609375 292.671875 269.117188 292.519531 268.628906 292.519531 C 267.90625 292.519531 267.195312 292.847656 266.734375 293.46875 " fill-opacity="1" fill-rule="nonzero"/><g clip-path="url(#ca8fe1e151)"><path fill="#c2e4d5" d="M 271.476562 298.617188 L 268.988281 301.960938 C 268.296875 302.886719 268.492188 304.210938 269.421875 304.902344 L 270.082031 305.394531 C 270.457031 305.675781 270.898438 305.808594 271.332031 305.808594 C 271.976562 305.808594 272.613281 305.515625 273.023438 304.964844 L 275.511719 301.621094 C 276.203125 300.691406 276.011719 299.367188 275.082031 298.675781 L 274.421875 298.183594 C 274.046875 297.90625 273.605469 297.769531 273.167969 297.769531 C 272.527344 297.769531 271.890625 298.0625 271.476562 298.617188 " fill-opacity="1" fill-rule="nonzero"/></g><path fill="#c2e4d5" d="M 258.167969 287.699219 L 257.164062 286.953125 C 256.828125 286.703125 256.433594 286.582031 256.039062 286.582031 C 255.460938 286.582031 254.890625 286.84375 254.519531 287.339844 L 252.847656 289.589844 C 252.226562 290.425781 252.398438 291.613281 253.234375 292.234375 L 254.238281 292.984375 C 254.574219 293.234375 254.96875 293.355469 255.363281 293.355469 C 255.941406 293.355469 256.511719 293.09375 256.882812 292.59375 L 258.554688 290.34375 C 259.175781 289.511719 259.003906 288.320312 258.167969 287.699219 " fill-opacity="1" fill-rule="nonzero"/><path fill="#c2e4d5" d="M 265.59375 288.050781 C 265.144531 287.714844 264.617188 287.554688 264.09375 287.554688 C 263.324219 287.554688 262.5625 287.902344 262.066406 288.566406 L 257.613281 294.546875 C 256.785156 295.660156 257.019531 297.246094 258.128906 298.074219 C 258.582031 298.410156 259.105469 298.570312 259.628906 298.570312 C 260.324219 298.570312 261.015625 298.285156 261.503906 297.742188 C 261.578125 297.617188 261.660156 297.496094 261.746094 297.375 L 263.863281 294.535156 L 265.398438 292.472656 C 265.503906 292.332031 265.617188 292.199219 265.742188 292.070312 L 266.109375 291.574219 C 266.9375 290.464844 266.707031 288.875 265.59375 288.050781 " fill-opacity="1" fill-rule="nonzero"/><g clip-path="url(#c5f6657545)"><path fill="#c2e4d5" d="M 253.046875 260.132812 L 242.308594 279.347656 C 241.96875 279.957031 242.183594 280.726562 242.792969 281.066406 L 246.503906 283.136719 C 247.113281 283.476562 247.882812 283.261719 248.222656 282.652344 L 258.960938 263.4375 C 259.300781 262.828125 259.082031 262.058594 258.472656 261.71875 L 254.765625 259.644531 C 254.15625 259.304688 253.386719 259.523438 253.046875 260.132812 " fill-opacity="1" fill-rule="nonzero"/></g><g clip-path="url(#af93849ef9)"><path fill="#c2e4d5" d="M 298.199219 264.324219 L 308.933594 283.539062 C 309.277344 284.148438 310.042969 284.367188 310.652344 284.027344 L 314.363281 281.953125 C 314.972656 281.613281 315.1875 280.84375 314.847656 280.234375 L 304.109375 261.019531 C 303.769531 260.410156 303 260.195312 302.390625 260.535156 L 298.683594 262.605469 C 298.074219 262.945312 297.855469 263.714844 298.199219 264.324219 " fill-opacity="1" fill-rule="nonzero"/></g><path fill="#c2e4d5" d="M 302.578125 290.355469 C 302.609375 289.46875 302.195312 288.625 301.488281 288.089844 L 295.914062 283.867188 C 293.902344 282.449219 291.386719 280.824219 288.449219 279.035156 C 284.300781 276.515625 280.394531 274.332031 278.582031 273.335938 C 278.300781 273.179688 277.96875 273.140625 277.65625 273.222656 L 275.621094 273.757812 C 275.320312 273.835938 275.058594 274.019531 274.886719 274.273438 L 274.882812 274.277344 C 274.316406 275.105469 273.691406 275.863281 273.015625 276.535156 C 272.222656 277.324219 271.382812 277.976562 270.519531 278.476562 C 269.480469 279.078125 268.414062 279.460938 267.34375 279.605469 C 267.109375 279.636719 266.871094 279.65625 266.636719 279.65625 C 265.796875 279.65625 265.015625 279.441406 264.378906 279.03125 C 263.558594 278.511719 263.03125 277.746094 262.855469 276.824219 C 262.65625 275.753906 262.929688 274.535156 263.703125 273.089844 C 264.246094 272.074219 264.921875 271.144531 265.417969 270.46875 C 265.539062 270.300781 265.644531 270.15625 265.730469 270.039062 C 266.070312 269.554688 266.464844 269 266.910156 268.421875 C 267.023438 268.273438 266.90625 268.0625 266.71875 268.082031 C 265.785156 268.1875 263.667969 268.085938 260.34375 266.023438 C 260.046875 265.839844 259.65625 265.9375 259.488281 266.242188 L 250.261719 282.75 C 250.070312 283.09375 250.117188 283.527344 250.378906 283.824219 L 252.824219 286.574219 C 252.859375 286.613281 252.898438 286.644531 252.9375 286.675781 L 253.183594 286.347656 C 253.519531 285.894531 253.964844 285.523438 254.472656 285.277344 C 254.957031 285.042969 255.5 284.914062 256.039062 284.914062 C 256.414062 284.914062 256.785156 284.972656 257.136719 285.089844 C 257.503906 285.207031 257.847656 285.386719 258.160156 285.617188 L 259.164062 286.363281 C 259.546875 286.652344 259.867188 287.003906 260.105469 287.417969 C 260.164062 287.515625 260.214844 287.613281 260.261719 287.714844 C 260.324219 287.851562 260.507812 287.867188 260.597656 287.75 L 260.730469 287.570312 C 261.125 287.039062 261.648438 286.605469 262.242188 286.3125 C 262.816406 286.035156 263.464844 285.886719 264.089844 285.886719 C 264.527344 285.886719 264.96875 285.957031 265.382812 286.089844 C 265.816406 286.230469 266.222656 286.441406 266.589844 286.710938 C 267.042969 287.050781 267.414062 287.464844 267.699219 287.953125 C 267.972656 288.417969 268.148438 288.925781 268.226562 289.464844 C 268.28125 289.835938 268.289062 290.210938 268.242188 290.578125 C 268.222656 290.730469 268.34375 290.863281 268.496094 290.855469 C 268.539062 290.855469 268.585938 290.855469 268.632812 290.855469 C 269.046875 290.855469 269.46875 290.921875 269.871094 291.050781 C 270.285156 291.1875 270.671875 291.386719 271.023438 291.648438 L 271.28125 291.839844 C 272.539062 292.773438 273.089844 294.308594 272.839844 295.757812 C 272.808594 295.941406 272.953125 296.105469 273.140625 296.105469 C 273.152344 296.105469 273.160156 296.105469 273.171875 296.105469 C 273.566406 296.105469 273.957031 296.167969 274.332031 296.289062 C 274.722656 296.414062 275.085938 296.605469 275.417969 296.847656 L 276.078125 297.339844 C 277.746094 298.585938 278.09375 300.945312 276.851562 302.617188 L 276.523438 303.054688 C 276.371094 303.257812 276.40625 303.554688 276.613281 303.707031 C 276.648438 303.734375 276.691406 303.753906 276.734375 303.769531 C 277.472656 304.035156 284.625 306.460938 286.644531 303.054688 C 286.777344 302.828125 286.6875 302.539062 286.453125 302.425781 L 279.785156 299.164062 C 279.382812 298.964844 279.171875 298.507812 279.300781 298.078125 C 279.398438 297.765625 279.667969 297.484375 280.328125 297.457031 C 280.398438 297.453125 280.46875 297.46875 280.53125 297.5 L 287.390625 301.082031 C 288.164062 301.484375 289.035156 301.652344 289.898438 301.542969 C 290.957031 301.414062 292.105469 300.871094 292.207031 299.144531 C 292.234375 298.691406 292 298.261719 291.605469 298.03125 L 283.046875 293.046875 C 282.710938 292.851562 282.53125 292.46875 282.59375 292.085938 C 282.65625 291.730469 282.847656 291.367188 283.371094 291.347656 C 283.542969 291.339844 283.714844 291.386719 283.863281 291.472656 L 292.859375 296.703125 C 293.3125 296.964844 293.828125 297.09375 294.351562 297.066406 C 295.25 297.027344 296.5625 296.753906 297.082031 295.582031 C 297.539062 294.550781 297.136719 293.34375 296.167969 292.761719 L 286.320312 286.851562 C 286.03125 286.679688 285.859375 286.355469 285.878906 286.019531 C 285.910156 285.570312 286.136719 285.066406 287.050781 285.210938 C 287.164062 285.230469 287.269531 285.269531 287.367188 285.328125 L 298.554688 291.996094 C 299.386719 292.492188 300.40625 292.574219 301.296875 292.195312 C 301.957031 291.910156 302.546875 291.371094 302.578125 290.355469 " fill-opacity="1" fill-rule="nonzero"/><path fill="#c2e4d5" d="M 306.667969 283.160156 L 297.332031 266.453125 C 297.257812 266.316406 297.101562 266.253906 296.953125 266.296875 C 296.285156 266.496094 295.445312 266.699219 295.324219 266.714844 C 294.964844 266.761719 294.601562 266.78125 294.238281 266.78125 C 293.007812 266.78125 291.78125 266.539062 290.621094 266.136719 C 287.914062 265.210938 284.550781 264.941406 281.550781 264.941406 C 279.328125 264.941406 277.308594 265.085938 275.898438 265.21875 C 274.738281 265.328125 273.613281 265.414062 272.488281 265.746094 C 271.429688 266.058594 270.523438 266.78125 269.785156 267.578125 C 269.59375 267.789062 269.402344 268.003906 269.214844 268.222656 C 268.457031 269.105469 267.757812 270.050781 267.089844 270.996094 C 266.117188 272.382812 263 276.179688 265.273438 277.625 C 265.675781 277.882812 266.15625 277.988281 266.636719 277.988281 C 266.796875 277.988281 266.960938 277.976562 267.117188 277.953125 C 268.9375 277.707031 270.566406 276.621094 271.839844 275.355469 C 272.460938 274.738281 273.015625 274.058594 273.507812 273.339844 C 273.589844 273.214844 273.925781 272.476562 274.066406 272.441406 L 277.1875 271.621094 L 278.230469 271.347656 C 278.257812 271.34375 278.285156 271.339844 278.3125 271.339844 C 278.371094 271.339844 278.425781 271.351562 278.472656 271.378906 C 280.082031 272.25 294.105469 279.941406 302.148438 286.886719 C 302.148438 286.886719 302.152344 286.886719 302.152344 286.886719 C 302.261719 286.980469 302.425781 286.980469 302.539062 286.890625 L 306.652344 283.507812 C 306.722656 283.40625 306.730469 283.269531 306.667969 283.160156 " fill-opacity="1" fill-rule="nonzero"/><path fill="#c6e0e9" d="M 285.644531 90.101562 C 280.457031 90.101562 276.253906 94.308594 276.253906 99.496094 C 276.253906 100.832031 276.535156 102.105469 277.039062 103.253906 L 275.597656 110.101562 L 282.324219 108.28125 C 283.359375 108.667969 284.476562 108.882812 285.644531 108.882812 C 290.832031 108.882812 295.039062 104.679688 295.039062 99.496094 C 295.039062 94.308594 290.832031 90.101562 285.644531 90.101562 " fill-opacity="1" fill-rule="nonzero"/><g clip-path="url(#9673fe6acd)"><path fill="#c6e0e9" d="M 304.40625 102.679688 C 304.910156 101.53125 305.191406 100.257812 305.191406 98.917969 C 305.191406 93.730469 300.988281 89.527344 295.800781 89.527344 C 294.855469 89.527344 293.941406 89.667969 293.082031 89.925781 C 295.933594 92.148438 297.765625 95.609375 297.765625 99.496094 C 297.765625 102.886719 296.367188 105.957031 294.113281 108.15625 C 294.660156 108.257812 295.222656 108.308594 295.800781 108.308594 C 296.96875 108.308594 298.085938 108.09375 299.117188 107.707031 L 305.847656 109.527344 L 304.40625 102.679688 " fill-opacity="1" fill-rule="nonzero"/></g><g clip-path="url(#0124fe751d)"><path fill="#c6e0e9" d="M 274.804688 125.984375 L 257.558594 125.984375 C 253.957031 125.984375 251.035156 128.898438 251.035156 132.5 L 251.035156 138.808594 C 251.035156 139.902344 251.921875 140.785156 253.015625 140.785156 L 279.351562 140.785156 C 280.441406 140.785156 281.328125 139.902344 281.328125 138.808594 L 281.328125 132.5 C 281.328125 128.898438 278.40625 125.984375 274.804688 125.984375 " fill-opacity="1" fill-rule="nonzero"/></g><path fill="#c6e0e9" d="M 266.179688 124.035156 C 270.8125 124.035156 274.5625 120.28125 274.5625 115.65625 C 274.5625 111.027344 270.8125 107.277344 266.179688 107.277344 C 261.554688 107.277344 257.800781 111.027344 257.800781 115.65625 C 257.800781 120.28125 261.554688 124.035156 266.179688 124.035156 " fill-opacity="1" fill-rule="nonzero"/><g clip-path="url(#453a2bfbbc)"><path fill="#c6e0e9" d="M 323.890625 125.984375 L 306.640625 125.984375 C 303.039062 125.984375 300.117188 128.898438 300.117188 132.5 L 300.117188 138.808594 C 300.117188 139.902344 301.003906 140.785156 302.09375 140.785156 L 328.429688 140.785156 C 329.523438 140.785156 330.40625 139.902344 330.40625 138.808594 L 330.40625 132.5 C 330.40625 128.898438 327.488281 125.984375 323.890625 125.984375 " fill-opacity="1" fill-rule="nonzero"/></g><path fill="#c6e0e9" d="M 315.265625 124.035156 C 319.890625 124.035156 323.644531 120.28125 323.644531 115.65625 C 323.644531 111.027344 319.890625 107.277344 315.265625 107.277344 C 310.636719 107.277344 306.882812 111.027344 306.882812 115.65625 C 306.882812 120.28125 310.636719 124.035156 315.265625 124.035156 " fill-opacity="1" fill-rule="nonzero"/><path fill="#dbd0e1" d="M 180.851562 33.359375 C 174.144531 28.851562 165.039062 30.300781 159.316406 36.023438 L 155.976562 39.363281 L 152.144531 35.511719 C 144.835938 28.222656 132.425781 29.085938 126.355469 38.148438 C 123.386719 42.535156 122.996094 47.953125 124.699219 52.773438 C 125.464844 52.332031 126.335938 52.089844 127.269531 52.089844 C 127.574219 52.089844 127.898438 52.113281 128.226562 52.183594 C 129.746094 52.46875 131.070312 53.425781 131.824219 54.800781 C 132.339844 55.714844 132.527344 56.761719 132.433594 57.855469 L 141.757812 48.535156 C 142.710938 47.554688 144.046875 47.011719 145.398438 47.011719 C 146.378906 47.011719 147.339844 47.296875 148.132812 47.832031 C 148.949219 48.390625 149.578125 49.144531 149.957031 50.027344 C 150.542969 49.792969 151.144531 49.679688 151.78125 49.679688 C 152.757812 49.679688 153.722656 49.960938 154.511719 50.496094 C 155.773438 51.359375 156.570312 52.691406 156.707031 54.191406 C 156.800781 54.988281 156.6875 55.757812 156.402344 56.460938 C 156.6875 56.574219 156.9375 56.710938 157.199219 56.902344 C 158.4375 57.742188 159.234375 59.074219 159.394531 60.566406 C 159.488281 61.667969 159.226562 62.761719 158.648438 63.695312 C 158.953125 63.832031 159.257812 64.019531 159.539062 64.253906 C 159.65625 64.347656 159.792969 64.464844 159.917969 64.578125 C 160.851562 65.535156 161.363281 66.796875 161.363281 68.128906 C 161.363281 69.460938 160.851562 70.722656 159.917969 71.65625 L 150.464844 81.101562 L 154.390625 85.027344 C 155.28125 85.917969 156.699219 85.917969 157.589844 85.027344 L 183.472656 59.144531 C 190.78125 51.859375 189.914062 39.457031 180.851562 33.359375 Z M 180.851562 33.359375 " fill-opacity="1" fill-rule="nonzero"/><g clip-path="url(#164423e746)"><path fill="#dbd0e1" d="M 158.316406 68.136719 C 158.316406 67.605469 158.113281 67.113281 157.742188 66.746094 C 157.691406 66.695312 157.640625 66.652344 157.589844 66.605469 C 157.265625 66.339844 156.851562 66.203125 156.402344 66.203125 C 155.832031 66.203125 155.273438 66.441406 154.859375 66.847656 L 146.050781 75.660156 C 145.820312 75.894531 145.507812 76.023438 145.183594 76.023438 C 144.855469 76.023438 144.546875 75.894531 144.3125 75.660156 C 144.082031 75.429688 143.953125 75.117188 143.953125 74.792969 C 143.953125 74.460938 144.082031 74.15625 144.3125 73.921875 L 155.789062 62.449219 C 156.199219 62.035156 156.410156 61.457031 156.351562 60.871094 C 156.292969 60.285156 155.976562 59.753906 155.484375 59.421875 C 155.179688 59.21875 154.816406 59.109375 154.441406 59.109375 C 153.890625 59.109375 153.347656 59.34375 152.949219 59.742188 L 141.53125 71.140625 C 141.300781 71.375 140.988281 71.503906 140.664062 71.503906 C 140.335938 71.503906 140.023438 71.375 139.792969 71.140625 C 139.316406 70.664062 139.316406 69.882812 139.792969 69.394531 L 153.121094 56.0625 C 153.535156 55.648438 153.746094 55.066406 153.6875 54.480469 C 153.628906 53.894531 153.308594 53.367188 152.816406 53.03125 C 152.511719 52.828125 152.152344 52.722656 151.773438 52.722656 C 151.222656 52.722656 150.679688 52.953125 150.28125 53.351562 L 137.011719 66.621094 C 136.78125 66.855469 136.46875 66.984375 136.144531 66.984375 C 135.816406 66.984375 135.503906 66.855469 135.273438 66.621094 C 134.796875 66.144531 134.796875 65.363281 135.273438 64.875 L 146.746094 53.402344 C 147.160156 52.988281 147.371094 52.410156 147.3125 51.824219 C 147.253906 51.234375 146.9375 50.707031 146.441406 50.375 C 146.140625 50.171875 145.777344 50.0625 145.398438 50.0625 C 144.847656 50.0625 144.304688 50.292969 143.90625 50.691406 L 130.289062 64.3125 C 130.09375 64.507812 129.839844 64.617188 129.574219 64.617188 C 129.277344 64.617188 128.984375 64.476562 128.789062 64.253906 C 128.59375 64.027344 128.515625 63.746094 128.558594 63.441406 L 129.390625 57.71875 C 129.449219 57.34375 129.449219 56.785156 129.175781 56.277344 C 128.847656 55.683594 128.3125 55.292969 127.652344 55.167969 C 127.523438 55.148438 127.390625 55.132812 127.261719 55.132812 C 126.304688 55.132812 125.464844 55.757812 125.160156 56.691406 L 120.070312 72.308594 C 119.46875 74.148438 119.394531 76.117188 119.84375 78 C 120.292969 79.886719 121.257812 81.601562 122.625 82.96875 L 126.046875 86.382812 C 128.03125 88.367188 130.660156 89.453125 133.460938 89.453125 C 133.558594 89.453125 133.652344 89.453125 133.746094 89.445312 C 136.441406 89.375 139.054688 88.199219 141.113281 86.144531 L 157.742188 69.511719 C 158.113281 69.15625 158.316406 68.664062 158.316406 68.136719 Z M 158.316406 68.136719 " fill-opacity="1" fill-rule="nonzero"/></g><g clip-path="url(#0449e89191)"><path fill="#fbcfd0" d="M 155.980469 304.308594 C 155.492188 304.308594 155.011719 304.355469 154.535156 304.449219 C 154.054688 304.542969 153.59375 304.683594 153.140625 304.871094 C 152.691406 305.058594 152.265625 305.285156 151.859375 305.558594 C 151.457031 305.828125 151.082031 306.136719 150.734375 306.480469 C 150.390625 306.824219 150.085938 307.199219 149.8125 307.601562 C 149.542969 308.007812 149.316406 308.4375 149.128906 308.886719 C 148.941406 309.335938 148.800781 309.800781 148.707031 310.277344 C 148.613281 310.753906 148.5625 311.238281 148.5625 311.722656 C 148.5625 312.210938 148.613281 312.691406 148.707031 313.171875 C 148.800781 313.648438 148.941406 314.113281 149.128906 314.5625 C 149.316406 315.011719 149.542969 315.4375 149.8125 315.84375 C 150.085938 316.25 150.390625 316.625 150.734375 316.96875 C 151.082031 317.3125 151.457031 317.621094 151.859375 317.890625 C 152.265625 318.160156 152.691406 318.390625 153.140625 318.574219 C 153.59375 318.761719 154.054688 318.902344 154.535156 318.996094 C 155.011719 319.09375 155.492188 319.140625 155.980469 319.140625 C 156.46875 319.140625 156.949219 319.09375 157.425781 318.996094 C 157.90625 318.902344 158.367188 318.761719 158.820312 318.574219 C 159.269531 318.390625 159.695312 318.160156 160.101562 317.890625 C 160.507812 317.621094 160.878906 317.3125 161.226562 316.96875 C 161.570312 316.625 161.875 316.25 162.148438 315.84375 C 162.417969 315.4375 162.644531 315.011719 162.832031 314.5625 C 163.019531 314.113281 163.160156 313.648438 163.253906 313.171875 C 163.351562 312.691406 163.398438 312.210938 163.398438 311.722656 C 163.398438 311.238281 163.351562 310.753906 163.253906 310.277344 C 163.160156 309.800781 163.019531 309.335938 162.832031 308.886719 C 162.644531 308.4375 162.417969 308.007812 162.148438 307.601562 C 161.875 307.199219 161.570312 306.824219 161.226562 306.480469 C 160.878906 306.136719 160.507812 305.828125 160.101562 305.558594 C 159.695312 305.285156 159.269531 305.058594 158.820312 304.871094 C 158.367188 304.683594 157.90625 304.542969 157.425781 304.449219 C 156.949219 304.355469 156.46875 304.308594 155.980469 304.308594 Z M 150.53125 310.238281 C 150.53125 310.007812 150.609375 309.8125 150.773438 309.652344 C 150.933594 309.488281 151.132812 309.40625 151.359375 309.40625 C 151.589844 309.40625 151.785156 309.488281 151.949219 309.652344 C 152.109375 309.8125 152.191406 310.007812 152.191406 310.238281 C 152.195312 310.367188 152.242188 310.472656 152.332031 310.5625 C 152.421875 310.652344 152.53125 310.695312 152.660156 310.695312 C 152.785156 310.695312 152.894531 310.652344 152.988281 310.5625 C 153.078125 310.472656 153.125 310.367188 153.128906 310.238281 C 153.128906 310.007812 153.210938 309.8125 153.371094 309.652344 C 153.535156 309.488281 153.730469 309.40625 153.960938 309.40625 C 154.1875 309.40625 154.382812 309.488281 154.546875 309.652344 C 154.707031 309.8125 154.789062 310.007812 154.789062 310.238281 C 154.789062 310.519531 154.734375 310.792969 154.628906 311.054688 C 154.519531 311.316406 154.367188 311.546875 154.164062 311.746094 C 153.964844 311.945312 153.734375 312.097656 153.476562 312.207031 C 153.214844 312.316406 152.941406 312.367188 152.660156 312.367188 C 152.378906 312.367188 152.105469 312.316406 151.84375 312.207031 C 151.582031 312.097656 151.351562 311.945312 151.152344 311.746094 C 150.953125 311.546875 150.800781 311.316406 150.691406 311.054688 C 150.582031 310.792969 150.53125 310.519531 150.53125 310.238281 Z M 158.347656 315.699219 L 153.613281 315.699219 C 153.386719 315.699219 153.1875 315.617188 153.027344 315.457031 C 152.863281 315.292969 152.785156 315.097656 152.785156 314.871094 C 152.785156 314.640625 152.863281 314.445312 153.027344 314.28125 C 153.1875 314.121094 153.386719 314.039062 153.613281 314.039062 L 158.347656 314.039062 C 158.578125 314.039062 158.773438 314.121094 158.933594 314.28125 C 159.097656 314.445312 159.175781 314.640625 159.175781 314.871094 C 159.175781 315.097656 159.097656 315.292969 158.933594 315.457031 C 158.773438 315.617188 158.578125 315.699219 158.347656 315.699219 Z M 159.300781 312.367188 C 159.019531 312.367188 158.746094 312.316406 158.488281 312.207031 C 158.226562 312.097656 157.996094 311.945312 157.796875 311.746094 C 157.597656 311.546875 157.441406 311.316406 157.332031 311.054688 C 157.226562 310.792969 157.171875 310.519531 157.171875 310.238281 C 157.171875 310.007812 157.253906 309.8125 157.414062 309.652344 C 157.578125 309.488281 157.773438 309.40625 158.003906 309.40625 C 158.230469 309.40625 158.425781 309.488281 158.589844 309.652344 C 158.75 309.8125 158.832031 310.007812 158.832031 310.238281 C 158.832031 310.367188 158.878906 310.480469 158.96875 310.570312 C 159.0625 310.660156 159.171875 310.707031 159.300781 310.707031 C 159.429688 310.707031 159.542969 310.660156 159.632812 310.570312 C 159.726562 310.480469 159.769531 310.367188 159.769531 310.238281 C 159.769531 310.007812 159.851562 309.8125 160.015625 309.652344 C 160.175781 309.488281 160.371094 309.40625 160.601562 309.40625 C 160.832031 309.40625 161.027344 309.488281 161.1875 309.652344 C 161.351562 309.8125 161.433594 310.007812 161.433594 310.238281 C 161.433594 310.519531 161.378906 310.792969 161.269531 311.054688 C 161.160156 311.316406 161.007812 311.546875 160.808594 311.746094 C 160.609375 311.945312 160.378906 312.097656 160.117188 312.207031 C 159.855469 312.316406 159.585938 312.367188 159.300781 312.367188 Z M 155.980469 283.242188 C 155.492188 283.242188 155.011719 283.292969 154.535156 283.386719 C 154.054688 283.480469 153.59375 283.621094 153.140625 283.808594 C 152.691406 283.996094 152.265625 284.222656 151.859375 284.492188 C 151.457031 284.765625 151.082031 285.070312 150.734375 285.417969 C 150.390625 285.761719 150.085938 286.136719 149.8125 286.539062 C 149.542969 286.945312 149.316406 287.371094 149.128906 287.820312 C 148.941406 288.273438 148.800781 288.734375 148.707031 289.214844 C 148.613281 289.691406 148.5625 290.171875 148.5625 290.660156 C 148.5625 291.148438 148.613281 291.628906 148.707031 292.105469 C 148.800781 292.585938 148.941406 293.046875 149.128906 293.5 C 149.316406 293.949219 149.542969 294.375 149.8125 294.78125 C 150.085938 295.1875 150.390625 295.558594 150.734375 295.90625 C 151.082031 296.25 151.457031 296.554688 151.859375 296.828125 C 152.265625 297.097656 152.691406 297.328125 153.140625 297.511719 C 153.59375 297.699219 154.054688 297.839844 154.535156 297.933594 C 155.011719 298.03125 155.492188 298.078125 155.980469 298.078125 C 156.46875 298.078125 156.949219 298.03125 157.425781 297.933594 C 157.90625 297.839844 158.367188 297.699219 158.820312 297.511719 C 159.269531 297.328125 159.695312 297.097656 160.101562 296.828125 C 160.507812 296.554688 160.878906 296.25 161.226562 295.90625 C 161.570312 295.558594 161.875 295.1875 162.148438 294.78125 C 162.417969 294.375 162.644531 293.949219 162.832031 293.5 C 163.019531 293.046875 163.160156 292.585938 163.253906 292.105469 C 163.351562 291.628906 163.398438 291.148438 163.398438 290.660156 C 163.398438 290.171875 163.351562 289.691406 163.253906 289.214844 C 163.160156 288.734375 163.019531 288.273438 162.832031 287.820312 C 162.644531 287.371094 162.417969 286.945312 162.148438 286.539062 C 161.875 286.136719 161.570312 285.761719 161.226562 285.417969 C 160.878906 285.070312 160.507812 284.765625 160.101562 284.492188 C 159.695312 284.222656 159.269531 283.996094 158.820312 283.808594 C 158.367188 283.621094 157.90625 283.480469 157.425781 283.386719 C 156.949219 283.292969 156.46875 283.242188 155.980469 283.242188 Z M 150.53125 289.175781 C 150.53125 288.945312 150.609375 288.75 150.773438 288.589844 C 150.933594 288.425781 151.132812 288.34375 151.359375 288.34375 C 151.589844 288.34375 151.785156 288.425781 151.949219 288.589844 C 152.109375 288.75 152.191406 288.945312 152.191406 289.175781 C 152.195312 289.304688 152.242188 289.410156 152.332031 289.5 C 152.421875 289.589844 152.53125 289.632812 152.660156 289.632812 C 152.785156 289.632812 152.894531 289.589844 152.988281 289.5 C 153.078125 289.410156 153.125 289.304688 153.128906 289.175781 C 153.128906 288.945312 153.210938 288.75 153.371094 288.589844 C 153.535156 288.425781 153.730469 288.34375 153.960938 288.34375 C 154.1875 288.34375 154.382812 288.425781 154.546875 288.589844 C 154.707031 288.75 154.789062 288.945312 154.789062 289.175781 C 154.789062 289.457031 154.734375 289.730469 154.628906 289.992188 C 154.519531 290.25 154.367188 290.480469 154.164062 290.683594 C 153.964844 290.882812 153.734375 291.035156 153.476562 291.144531 C 153.214844 291.25 152.941406 291.304688 152.660156 291.304688 C 152.378906 291.304688 152.105469 291.25 151.84375 291.144531 C 151.582031 291.035156 151.351562 290.882812 151.152344 290.683594 C 150.953125 290.480469 150.800781 290.25 150.691406 289.992188 C 150.582031 289.730469 150.53125 289.457031 150.53125 289.175781 Z M 159.070312 293.667969 C 158.757812 294.230469 158.324219 294.671875 157.773438 295 C 157.21875 295.324219 156.621094 295.484375 155.980469 295.484375 C 155.339844 295.484375 154.742188 295.324219 154.1875 295 C 153.636719 294.671875 153.203125 294.230469 152.890625 293.667969 C 152.78125 293.46875 152.757812 293.261719 152.824219 293.042969 C 152.886719 292.824219 153.015625 292.660156 153.214844 292.550781 C 153.414062 292.441406 153.621094 292.414062 153.839844 292.476562 C 154.058594 292.539062 154.226562 292.667969 154.335938 292.863281 C 154.503906 293.160156 154.734375 293.394531 155.027344 293.566406 C 155.324219 293.738281 155.640625 293.824219 155.980469 293.824219 C 156.320312 293.824219 156.636719 293.738281 156.933594 293.566406 C 157.226562 293.394531 157.457031 293.160156 157.625 292.863281 C 157.734375 292.664062 157.898438 292.53125 158.121094 292.464844 C 158.339844 292.402344 158.550781 292.425781 158.753906 292.539062 C 158.953125 292.648438 159.085938 292.816406 159.148438 293.039062 C 159.210938 293.257812 159.183594 293.46875 159.070312 293.667969 Z M 159.300781 291.304688 C 159.019531 291.304688 158.746094 291.25 158.488281 291.144531 C 158.226562 291.035156 157.996094 290.882812 157.796875 290.679688 C 157.597656 290.480469 157.441406 290.25 157.332031 289.992188 C 157.226562 289.730469 157.171875 289.457031 157.171875 289.175781 C 157.171875 288.945312 157.253906 288.75 157.414062 288.589844 C 157.578125 288.425781 157.773438 288.34375 158.003906 288.34375 C 158.230469 288.34375 158.425781 288.425781 158.589844 288.589844 C 158.75 288.75 158.832031 288.945312 158.832031 289.175781 C 158.832031 289.304688 158.878906 289.414062 158.96875 289.507812 C 159.0625 289.597656 159.171875 289.644531 159.300781 289.644531 C 159.429688 289.644531 159.542969 289.597656 159.632812 289.507812 C 159.726562 289.414062 159.769531 289.304688 159.769531 289.175781 C 159.769531 288.945312 159.851562 288.75 160.015625 288.589844 C 160.175781 288.425781 160.371094 288.34375 160.601562 288.34375 C 160.832031 288.34375 161.027344 288.425781 161.1875 288.589844 C 161.351562 288.75 161.433594 288.945312 161.433594 289.175781 C 161.433594 289.457031 161.378906 289.730469 161.269531 289.992188 C 161.160156 290.25 161.007812 290.480469 160.808594 290.679688 C 160.609375 290.882812 160.378906 291.035156 160.117188 291.144531 C 159.855469 291.25 159.585938 291.304688 159.300781 291.304688 Z M 155.980469 325.371094 C 155.492188 325.371094 155.011719 325.417969 154.535156 325.511719 C 154.054688 325.609375 153.59375 325.75 153.140625 325.933594 C 152.691406 326.121094 152.265625 326.351562 151.859375 326.621094 C 151.457031 326.890625 151.082031 327.199219 150.734375 327.542969 C 150.390625 327.886719 150.085938 328.261719 149.8125 328.667969 C 149.542969 329.070312 149.316406 329.5 149.128906 329.949219 C 148.941406 330.398438 148.800781 330.863281 148.707031 331.339844 C 148.613281 331.816406 148.5625 332.300781 148.5625 332.785156 C 148.5625 333.273438 148.613281 333.757812 148.707031 334.234375 C 148.800781 334.710938 148.941406 335.175781 149.128906 335.625 C 149.316406 336.074219 149.542969 336.503906 149.8125 336.90625 C 150.085938 337.3125 150.390625 337.6875 150.734375 338.03125 C 151.082031 338.375 151.457031 338.683594 151.859375 338.953125 C 152.265625 339.222656 152.691406 339.453125 153.140625 339.640625 C 153.59375 339.824219 154.054688 339.964844 154.535156 340.0625 C 155.011719 340.15625 155.492188 340.203125 155.980469 340.203125 C 156.46875 340.203125 156.949219 340.15625 157.425781 340.0625 C 157.90625 339.964844 158.367188 339.824219 158.820312 339.640625 C 159.269531 339.453125 159.695312 339.222656 160.101562 338.953125 C 160.507812 338.683594 160.878906 338.375 161.226562 338.03125 C 161.570312 337.6875 161.875 337.3125 162.148438 336.90625 C 162.417969 336.503906 162.644531 336.074219 162.832031 335.625 C 163.019531 335.175781 163.160156 334.710938 163.253906 334.234375 C 163.351562 333.757812 163.398438 333.273438 163.398438 332.785156 C 163.398438 332.300781 163.351562 331.816406 163.253906 331.339844 C 163.160156 330.863281 163.019531 330.398438 162.832031 329.949219 C 162.644531 329.5 162.417969 329.070312 162.148438 328.667969 C 161.875 328.261719 161.570312 327.886719 161.226562 327.542969 C 160.878906 327.199219 160.507812 326.890625 160.101562 326.621094 C 159.695312 326.351562 159.269531 326.121094 158.820312 325.933594 C 158.367188 325.75 157.90625 325.609375 157.425781 325.511719 C 156.949219 325.417969 156.46875 325.371094 155.980469 325.371094 Z M 150.53125 330.90625 C 150.53125 330.675781 150.609375 330.480469 150.773438 330.316406 C 150.933594 330.15625 151.132812 330.074219 151.359375 330.074219 C 151.589844 330.074219 151.785156 330.15625 151.949219 330.316406 C 152.109375 330.480469 152.191406 330.675781 152.191406 330.90625 C 152.195312 331.03125 152.242188 331.140625 152.332031 331.230469 C 152.421875 331.320312 152.53125 331.363281 152.660156 331.363281 C 152.785156 331.363281 152.894531 331.320312 152.988281 331.230469 C 153.078125 331.140625 153.125 331.03125 153.128906 330.90625 C 153.128906 330.675781 153.210938 330.480469 153.371094 330.316406 C 153.535156 330.15625 153.730469 330.074219 153.960938 330.074219 C 154.1875 330.074219 154.382812 330.15625 154.546875 330.316406 C 154.707031 330.480469 154.789062 330.675781 154.789062 330.90625 C 154.789062 331.1875 154.734375 331.460938 154.628906 331.71875 C 154.519531 331.980469 154.367188 332.210938 154.164062 332.410156 C 153.964844 332.609375 153.734375 332.765625 153.476562 332.871094 C 153.214844 332.980469 152.941406 333.035156 152.660156 333.035156 C 152.378906 333.035156 152.105469 332.980469 151.84375 332.871094 C 151.582031 332.765625 151.351562 332.609375 151.152344 332.410156 C 150.953125 332.210938 150.800781 331.980469 150.691406 331.71875 C 150.582031 331.460938 150.53125 331.1875 150.53125 330.90625 Z M 158.75 337.109375 C 158.550781 337.21875 158.339844 337.246094 158.121094 337.179688 C 157.898438 337.117188 157.734375 336.988281 157.625 336.789062 C 157.457031 336.492188 157.226562 336.257812 156.933594 336.085938 C 156.636719 335.914062 156.320312 335.828125 155.980469 335.828125 C 155.640625 335.828125 155.324219 335.914062 155.027344 336.085938 C 154.734375 336.257812 154.503906 336.492188 154.335938 336.789062 C 154.226562 336.988281 154.0625 337.121094 153.839844 337.1875 C 153.621094 337.25 153.410156 337.226562 153.207031 337.113281 C 153.007812 337.003906 152.875 336.835938 152.8125 336.617188 C 152.75 336.394531 152.777344 336.183594 152.890625 335.984375 C 153.203125 335.421875 153.636719 334.980469 154.1875 334.65625 C 154.742188 334.328125 155.339844 334.167969 155.980469 334.167969 C 156.621094 334.167969 157.21875 334.328125 157.773438 334.65625 C 158.324219 334.980469 158.757812 335.421875 159.070312 335.984375 C 159.183594 336.183594 159.207031 336.394531 159.144531 336.613281 C 159.082031 336.832031 158.949219 336.996094 158.75 337.109375 Z M 159.300781 333.035156 C 159.019531 333.035156 158.746094 332.980469 158.488281 332.871094 C 158.226562 332.765625 157.996094 332.609375 157.796875 332.410156 C 157.597656 332.210938 157.441406 331.980469 157.332031 331.71875 C 157.226562 331.460938 157.171875 331.1875 157.171875 330.90625 C 157.171875 330.675781 157.253906 330.480469 157.414062 330.316406 C 157.578125 330.15625 157.773438 330.074219 158.003906 330.074219 C 158.230469 330.074219 158.425781 330.15625 158.589844 330.316406 C 158.75 330.480469 158.832031 330.675781 158.832031 330.90625 C 158.832031 331.035156 158.878906 331.144531 158.96875 331.238281 C 159.0625 331.328125 159.171875 331.375 159.300781 331.375 C 159.429688 331.375 159.542969 331.328125 159.632812 331.238281 C 159.726562 331.144531 159.769531 331.035156 159.769531 330.90625 C 159.769531 330.675781 159.851562 330.480469 160.015625 330.316406 C 160.175781 330.15625 160.371094 330.074219 160.601562 330.074219 C 160.832031 330.074219 161.027344 330.15625 161.1875 330.316406 C 161.351562 330.480469 161.433594 330.675781 161.433594 330.90625 C 161.433594 331.1875 161.378906 331.460938 161.269531 331.71875 C 161.160156 331.980469 161.007812 332.210938 160.808594 332.410156 C 160.609375 332.609375 160.378906 332.765625 160.117188 332.871094 C 159.855469 332.980469 159.585938 333.035156 159.300781 333.035156 Z M 146.902344 311.722656 C 146.902344 311.222656 146.945312 310.726562 147.027344 310.234375 C 147.109375 309.742188 147.230469 309.257812 147.390625 308.785156 C 147.554688 308.3125 147.753906 307.855469 147.988281 307.417969 C 148.226562 306.976562 148.496094 306.558594 148.804688 306.164062 C 149.109375 305.769531 149.445312 305.402344 149.8125 305.0625 C 150.179688 304.722656 150.570312 304.414062 150.988281 304.140625 C 151.40625 303.867188 151.84375 303.625 152.300781 303.425781 C 152.757812 303.222656 153.226562 303.058594 153.710938 302.933594 C 153.707031 302.449219 153.691406 301.953125 153.667969 301.449219 C 153.636719 300.753906 153.578125 300.070312 153.492188 299.394531 C 152.890625 299.222656 152.316406 298.992188 151.761719 298.699219 C 151.210938 298.410156 150.691406 298.066406 150.210938 297.667969 C 149.726562 297.269531 149.289062 296.828125 148.898438 296.339844 C 148.507812 295.851562 148.171875 295.332031 147.890625 294.773438 C 147.605469 294.214844 147.382812 293.636719 147.21875 293.035156 C 147.054688 292.429688 146.957031 291.816406 146.917969 291.191406 C 146.882812 290.570312 146.910156 289.949219 147 289.332031 C 147.089844 288.710938 147.246094 288.109375 147.460938 287.523438 C 143.960938 284.589844 138.894531 282.925781 132.035156 283.292969 C 120.609375 283.90625 113.144531 292.304688 113.144531 303.28125 L 106.644531 315.214844 C 106.042969 316.324219 106.8125 317.699219 108.085938 317.699219 L 113.144531 317.699219 L 113.144531 320.542969 C 113.144531 325.941406 115.996094 331.03125 122.394531 331.3125 C 122.554688 331.320312 122.6875 331.382812 122.796875 331.496094 C 122.90625 331.609375 122.960938 331.746094 122.960938 331.90625 L 122.960938 340.203125 L 142.890625 340.203125 L 142.890625 331.324219 C 142.839844 326.679688 146.691406 323.65625 149.816406 318.386719 C 148.886719 317.527344 148.167969 316.519531 147.660156 315.359375 C 147.152344 314.199219 146.902344 312.988281 146.902344 311.722656 Z M 144.085938 304.652344 C 145.003906 306.660156 144.109375 308.535156 142.109375 309.46875 C 139.691406 310.59375 140.429688 312.730469 140.941406 313.714844 C 140.96875 313.769531 140.984375 313.828125 140.980469 313.890625 C 140.980469 313.953125 140.960938 314.007812 140.929688 314.0625 C 140.898438 314.117188 140.855469 314.15625 140.800781 314.1875 C 140.746094 314.21875 140.6875 314.234375 140.625 314.234375 L 137.171875 314.234375 C 137.074219 314.234375 136.992188 314.199219 136.925781 314.132812 C 136.855469 314.066406 136.820312 313.984375 136.816406 313.886719 C 136.789062 312.992188 136.484375 310.589844 134.054688 309.464844 C 133.980469 309.425781 133.898438 309.417969 133.816406 309.441406 C 130.117188 310.390625 128.421875 308.71875 127.4375 307.929688 C 126.191406 306.933594 125.953125 307.929688 124.359375 307.929688 C 123.847656 307.929688 123.351562 307.835938 122.875 307.644531 C 122.402344 307.457031 121.976562 307.1875 121.605469 306.835938 C 121.230469 306.484375 120.9375 306.078125 120.722656 305.613281 C 120.503906 305.148438 120.382812 304.664062 120.351562 304.152344 C 120.320312 303.640625 120.386719 303.140625 120.546875 302.65625 C 120.707031 302.171875 120.953125 301.730469 121.28125 301.339844 C 121.609375 300.945312 122 300.628906 122.449219 300.386719 C 122.898438 300.140625 123.378906 299.988281 123.886719 299.929688 C 124.078125 299.910156 124.183594 299.804688 124.199219 299.613281 C 124.234375 299.296875 124.300781 298.992188 124.40625 298.695312 C 124.511719 298.394531 124.648438 298.113281 124.820312 297.847656 C 124.992188 297.582031 125.191406 297.339844 125.421875 297.121094 C 125.648438 296.902344 125.902344 296.714844 126.175781 296.554688 C 126.449219 296.398438 126.734375 296.273438 127.039062 296.179688 C 127.339844 296.089844 127.648438 296.035156 127.964844 296.015625 C 128.28125 296 128.59375 296.019531 128.90625 296.074219 C 129.21875 296.128906 129.519531 296.222656 129.808594 296.347656 C 129.890625 296.386719 129.976562 296.390625 130.0625 296.359375 C 130.152344 296.332031 130.214844 296.277344 130.261719 296.195312 C 130.4375 295.882812 130.648438 295.589844 130.894531 295.328125 C 131.140625 295.0625 131.414062 294.828125 131.714844 294.632812 C 132.015625 294.433594 132.335938 294.269531 132.675781 294.148438 C 133.015625 294.027344 133.367188 293.945312 133.722656 293.910156 C 134.082031 293.871094 134.441406 293.875 134.800781 293.921875 C 135.15625 293.96875 135.503906 294.058594 135.839844 294.191406 C 136.179688 294.320312 136.496094 294.492188 136.789062 294.699219 C 137.085938 294.90625 137.355469 295.144531 137.59375 295.414062 C 137.707031 295.546875 137.84375 295.578125 138.003906 295.503906 C 138.582031 295.246094 139.1875 295.09375 139.816406 295.046875 C 140.445312 295 141.066406 295.058594 141.675781 295.226562 C 142.285156 295.394531 142.851562 295.660156 143.367188 296.023438 C 143.882812 296.390625 144.324219 296.832031 144.6875 297.347656 C 145.050781 297.867188 145.316406 298.429688 145.484375 299.039062 C 145.652344 299.648438 145.710938 300.269531 145.660156 300.898438 C 145.613281 301.53125 145.457031 302.132812 145.199219 302.710938 C 144.941406 303.289062 144.59375 303.804688 144.152344 304.257812 C 144.039062 304.375 144.019531 304.507812 144.085938 304.652344 Z M 144.085938 304.652344 " fill-opacity="1" fill-rule="evenodd"/></g><g clip-path="url(#bfcbb270d6)"><path fill="#f7e7c4" d="M 24.210938 196.335938 L 34.050781 213.722656 C 34.246094 214.078125 34.699219 214.199219 35.046875 214 L 38.398438 212.105469 C 38.566406 212.011719 38.6875 211.851562 38.738281 211.664062 C 38.792969 211.472656 38.769531 211.273438 38.675781 211.105469 L 28.835938 193.71875 C 28.738281 193.546875 28.582031 193.425781 28.390625 193.375 C 28.324219 193.355469 28.257812 193.347656 28.191406 193.347656 C 28.0625 193.347656 27.941406 193.378906 27.835938 193.441406 L 24.488281 195.335938 C 24.132812 195.535156 24.011719 195.984375 24.210938 196.335938 Z M 46.101562 146.1875 C 46.421875 146.738281 46.234375 147.449219 45.679688 147.769531 C 45.125 148.089844 44.414062 147.902344 44.09375 147.347656 L 42.820312 145.140625 C 42.5 144.589844 42.6875 143.878906 43.242188 143.558594 C 43.796875 143.238281 44.507812 143.425781 44.828125 143.980469 Z M 59.710938 174.882812 L 59.710938 175.976562 C 59.710938 176.941406 58.917969 177.734375 57.953125 177.734375 L 48.554688 177.734375 C 47.585938 177.734375 46.796875 176.941406 46.796875 175.976562 L 46.796875 174.882812 Z M 59.328125 159.140625 C 59.320312 158.683594 59.132812 158.269531 58.828125 157.964844 C 58.523438 157.65625 58.097656 157.464844 57.632812 157.464844 C 56.703125 157.464844 55.9375 158.230469 55.9375 159.160156 L 55.9375 160.824219 L 57.632812 160.824219 C 58.097656 160.824219 58.523438 160.632812 58.828125 160.324219 C 59.132812 160.019531 59.324219 159.601562 59.328125 159.140625 Z M 50.566406 160.824219 L 50.566406 159.160156 C 50.566406 158.695312 50.375 158.273438 50.070312 157.964844 C 49.761719 157.65625 49.335938 157.464844 48.871094 157.464844 C 47.949219 157.464844 47.191406 158.21875 47.179688 159.140625 C 47.183594 160.066406 47.945312 160.824219 48.871094 160.824219 Z M 54.300781 173.546875 L 52.203125 173.546875 L 52.203125 162.492188 L 54.300781 162.492188 Z M 53.253906 148.234375 C 59.226562 148.234375 64.066406 153.078125 64.066406 159.050781 C 64.066406 165.054688 60.230469 164.695312 59.710938 173.546875 L 55.9375 173.546875 L 55.9375 162.492188 L 57.632812 162.492188 C 58.550781 162.492188 59.382812 162.117188 59.988281 161.515625 C 60.589844 160.910156 60.964844 160.078125 60.964844 159.160156 L 60.964844 159.128906 C 60.964844 158.210938 60.589844 157.378906 59.988281 156.777344 C 59.382812 156.171875 58.550781 155.796875 57.632812 155.796875 C 55.800781 155.796875 54.300781 157.296875 54.300781 159.128906 L 54.300781 160.824219 L 52.203125 160.824219 L 52.203125 159.128906 C 52.203125 158.210938 51.832031 157.378906 51.226562 156.777344 C 50.625 156.171875 49.789062 155.796875 48.875 155.796875 C 47.039062 155.796875 45.542969 157.296875 45.542969 159.128906 L 45.542969 159.160156 C 45.542969 160.992188 47.039062 162.492188 48.875 162.492188 L 50.566406 162.492188 L 50.566406 173.550781 L 46.796875 173.550781 C 46.277344 164.695312 42.441406 165.054688 42.441406 159.050781 C 42.441406 153.078125 47.28125 148.234375 53.253906 148.234375 Z M 56.207031 182.386719 C 56.179688 183.328125 55.402344 184.09375 54.453125 184.09375 L 52.171875 184.09375 C 51.222656 184.09375 50.441406 183.328125 50.414062 182.386719 Z M 58.011719 179.066406 L 58.011719 179.570312 C 58.011719 180.535156 57.21875 181.324219 56.253906 181.324219 L 50.371094 181.324219 C 49.402344 181.324219 48.613281 180.535156 48.613281 179.570312 L 48.613281 179.066406 Z M 54.414062 144.582031 C 54.414062 145.222656 53.894531 145.746094 53.253906 145.746094 C 52.609375 145.746094 52.089844 145.222656 52.089844 144.582031 L 52.089844 142.035156 C 52.089844 141.390625 52.609375 140.871094 53.253906 140.871094 C 53.894531 140.871094 54.414062 141.390625 54.414062 142.035156 Z M 67.960938 153.742188 C 67.40625 154.0625 66.695312 153.871094 66.375 153.320312 C 66.054688 152.765625 66.242188 152.054688 66.796875 151.734375 L 69.003906 150.460938 C 69.558594 150.140625 70.265625 150.328125 70.589844 150.882812 C 70.910156 151.4375 70.71875 152.144531 70.167969 152.46875 Z M 62.414062 147.347656 C 62.089844 147.902344 61.382812 148.089844 60.828125 147.769531 C 60.273438 147.449219 60.082031 146.738281 60.40625 146.1875 L 61.679688 143.980469 C 62 143.425781 62.710938 143.238281 63.261719 143.558594 C 63.816406 143.878906 64.007812 144.589844 63.6875 145.140625 Z M 39.707031 151.734375 C 40.261719 152.054688 40.453125 152.765625 40.128906 153.320312 C 39.808594 153.871094 39.101562 154.0625 38.546875 153.742188 L 36.339844 152.46875 C 35.785156 152.144531 35.597656 151.4375 35.917969 150.882812 C 36.238281 150.328125 36.949219 150.140625 37.503906 150.460938 Z M 32.472656 196 L 41.398438 190.832031 C 43.390625 189.675781 45.554688 188.703125 47.828125 189.441406 C 48.550781 189.679688 49.390625 189.980469 50.359375 190.332031 C 53.128906 191.332031 56.578125 192.578125 60.148438 193.234375 C 61.417969 193.671875 62.128906 194.898438 61.804688 196.105469 C 61.40625 197.578125 60.246094 197.855469 59.246094 197.792969 C 57.289062 197.410156 52.074219 195.933594 51.214844 195.703125 C 50.671875 195.554688 50.109375 195.878906 49.96875 196.425781 C 49.816406 196.96875 50.140625 197.527344 50.6875 197.675781 C 51.53125 197.902344 58.886719 199.8125 58.96875 199.820312 C 59.359375 199.894531 59.757812 199.964844 60.160156 200.027344 C 62.371094 200.382812 64.335938 200.039062 66.152344 198.976562 L 74.894531 193.882812 C 78.351562 191.871094 81.011719 191.675781 82.019531 193.351562 C 82.710938 194.511719 82.402344 196.324219 81.398438 196.9375 L 62.9375 208.414062 C 61.210938 209.476562 59.316406 209.742188 57.308594 209.203125 L 42.105469 205.855469 C 41.839844 205.785156 41.5625 205.820312 41.328125 205.957031 L 38.90625 207.355469 Z M 28.625 196.484375 C 28.71875 197.136719 28.269531 197.742188 27.617188 197.839844 C 26.960938 197.933594 26.359375 197.484375 26.261719 196.828125 C 26.167969 196.175781 26.617188 195.570312 27.269531 195.472656 C 27.925781 195.378906 28.535156 195.832031 28.625 196.484375 Z M 28.625 196.484375 " fill-opacity="1" fill-rule="evenodd"/></g></svg>